<?xml version="1.0" encoding="utf-8" ?>
<svg baseProfile="full" height="200mm" version="1.1" viewBox="0,0,200,200" width="200mm" xmlns="http://www.w3.org/2000/svg" xmlns:ev="http://www.w3.org/2001/xml-events" xmlns:xlink="http://www.w3.org/1999/xlink"><defs /><rect fill="#1a1a1a" height="200" width="200" x="0" y="0" /><text alignment-baseline="middle" fill="#e1ed5e" style="dominant-baseline: central; font-size:9.0px; font-family:Arial;" text-anchor="middle" x="100.0" y="100.0">2024</text><line stroke="#e1ed5e" stroke-width="0.3" x1="100.0" x2="100.0" y1="15.0" y2="10.0" /><path d="M 100.0 14.0 a86.0,86.0 0 0,1 42.35913384403234,11.155469271406648" fill="none" id="id61" stroke="none" /><text fill="#e1ed5e" style="font-size:6.75px; font-family:Arial;" text-anchor="middle"><textPath startOffset="22.145653131862478" xlink:href="#id61">January</textPath></text><path d="M 100.0 79.0 l 0.0 -19.97224271013541 a40.97224271013541,40.97224271013541 0 0,0 0.7033430291520897,0.00603735399353295 l -0.34285010430323487 19.969299754336312" fill="#fffe18" stroke="none" /><path d="M 101.44090949804482 79.04949213459386 l 0.4184467417333787 -6.084123788367214 a27.098496531756258,27.098496531756258 0 0,0 0.46381142135661907,0.03590193736144063 l -0.5228271578652313 6.07604408401072" fill="#ff4806" stroke="none" /><path d="M 101.80034050326958 79.07731436759882 l 0.8341567621404753 -9.694166003992551 a30.72998828451451,30.72998828451451 0 0,0 0.5251907720231284,0.04973611214937713 l -1.0004470975486164 9.67841813633799" fill="#ff7a0b" stroke="none" /><path d="M 104.29559338865022 79.4440306129975 l 2.9137288113411235 -13.94324714397042 a35.244435984056324,35.244435984056324 0 0,0 0.5911626170783633,0.12884114092359508 l -3.152653845038621 13.891174544913106" fill="#ffb610" stroke="none" /><path d="M 105.69591212413111 79.78721728523813 l 2.659193911619592 -9.43654107728774 a30.80406139122627,30.80406139122627 0 0,0 0.5077389251693027,0.14779540125040286 l -2.820792849170499 9.389501981734822" fill="#ff7b0b" stroke="none" /><path d="M 106.72888874123014 80.10723608172694 l 2.5346117376580337 -7.493129231394834 a28.91019862829358,28.91019862829358 0 0,0 0.468750274379333,0.16305567810897512 l -2.662867784082385 7.448515120717268" fill="#ff6109" stroke="none" /><line stroke="#e1ed5e" stroke-width="0.3" x1="143.13028292997686" x2="145.6673583964461" y1="26.7553504044142" y2="22.446841604673864" /><path d="M 143.63769802327073 25.89364864446614 a86.0,86.0 0 0,1 29.32050498858742,28.57503671076993" fill="none" id="id62" stroke="none" /><text fill="#e1ed5e" style="font-size:6.75px; font-family:Arial;" text-anchor="middle"><textPath startOffset="20.669276256404974" xlink:href="#id62">February</textPath></text><path d="M 113.31354834802062 83.75963576809568 l 6.666735898680518 -8.132333800296044 a31.51571303251439,31.51571303251439 0 0,0 0.41544563069469104,0.34657952096138495 l -6.805355863537101 8.016692095422789" fill="#ff850c" stroke="none" /><path d="M 113.86319453409587 84.22622945171908 l 4.789024957187586 -5.4490312920934905 a28.254426377238907,28.254426377238907 0 0,0 0.3615691673622956,0.3233173790014881 l -4.8818591513732565 5.3660183832086155" fill="#ff5808" stroke="none" /><path d="M 114.91283532996326 85.21462403516908 l 6.945935883967138 -6.886569267329086 a30.78114827501883,30.78114827501883 0 0,0 0.3688068181775552,0.37842828555752517 l -7.063129503295506 6.766318289703818" fill="#ff7b0b" stroke="none" /><path d="M 115.41159269507618 85.73525988315684 l 4.9642527020746785 -4.594838189050757 a27.76434349169341,27.76434349169341 0 0,0 0.32074731265241313,0.3525574832640258 l -5.04239771556897 4.508943130229059" fill="#ff5107" stroke="none" /><line stroke="#e1ed5e" stroke-width="0.3" x1="172.87174338648825" x2="177.1583165268699" y1="56.24261187166439" y2="53.66864786411523" /><path d="M 173.72905801456457 55.72781907015455 a86.0,86.0 0 0,1 12.242430191666344,42.057860355516425" fill="none" id="id63" stroke="none" /><text fill="#e1ed5e" style="font-size:6.75px; font-family:Arial;" text-anchor="middle"><textPath startOffset="22.145653131862474" xlink:href="#id63">March</textPath></text><path d="M 119.4528033332814 92.08871423366111 l 5.441385301637139 -2.2129640313772665 a26.874170903629057,26.874170903629057 0 0,0 0.17012799471977486,0.4288336825254713 l -5.478571971323038 2.11922933163823" fill="#ff4506" stroke="none" /><path d="M 120.98066250479742 99.09900007780936 l 9.394746193605515 -0.4034508246583669 a30.403405160375833,30.403405160375833 0 0,0 0.017916745486728267,0.5216264959620153 l -9.400287626089092 0.24211806413223172" fill="#ff760a" stroke="none" /><path d="M 120.99303781780057 99.45929381324524 l 5.360391101691358 -0.13806466016328808 a26.36216883485385,26.36216883485385 0 0,0 0.007768765954381321,0.4524916694412969 l -5.361971299244406 0.04602607475292481" fill="#ff3e05" stroke="none" /><line stroke="#e1ed5e" stroke-width="0.3" x1="184.99686870605535" x2="189.99668451229388" y1="99.2704041080226" y2="99.22748670261217" /><path d="M 185.99683186730306 99.26182062694052 a86.0,86.0 0 0,1 -10.086455211305974,41.156179273409016" fill="none" id="id64" stroke="none" /><text fill="#e1ed5e" style="font-size:6.75px; font-family:Arial;" text-anchor="middle"><textPath startOffset="21.40746469413373" xlink:href="#id64">April</textPath></text><path d="M 120.98066250479742 100.90099992219065 l 9.416430751070038 0.4043820528588027 a30.425109704102745,30.425109704102745 0 0,0 -0.02688769889131207,0.5216141753849686 l -9.408101462722152 -0.5659680216205019" fill="#ff760a" stroke="none" /><path d="M 120.77682067341334 103.0534771498775 l 4.679578185095586 0.687736843083945 a25.729845024496846,25.729845024496846 0 0,0 -0.06797397187965269,0.43644166070466867 l -4.667082721077666 -0.7679666857200642" fill="#ff3505" stroke="none" /><path d="M 120.592083275326 104.11899336999214 l 19.9501241547491 3.990583566763015 a41.34532405721822,41.34532405721822 0 0,0 -0.14518565917560697,0.6947659369555197 l -19.87868078474913 -4.332465955003944" fill="#fcff18" stroke="none" /><line stroke="#e1ed5e" stroke-width="0.3" x1="174.33088141563837" x2="178.70328620479359" y1="141.23008692659167" y2="143.65538615756765" /><path d="M 175.20536237346943 141.71514677278685 a86.0,86.0 0 0,1 -30.301960400862466,31.631185727798858" fill="none" id="id65" stroke="none" /><text fill="#e1ed5e" style="font-size:6.75px; font-family:Arial;" text-anchor="middle"><textPath startOffset="22.145653131862474" xlink:href="#id65">May</textPath></text><path d="M 113.03279911837588 116.46651593811092 l 7.8444122021063 9.911158560632533 a33.639852325504194,33.639852325504194 0 0,0 -0.45588416360847156,0.35449828301266156 l -7.673118093862598 -10.044357895265987" fill="#ffa10e" stroke="none" /><path d="M 111.8722381534696 117.32195027204791 l 13.445109861892156 19.61681710047692 a44.78214650429842,44.78214650429842 0 0,0 -0.6378336307818792,0.4291629324005623 l -13.106379943013275 -19.844729706934604" fill="#d3ff1c" stroke="none" /><path d="M 111.27062007382361 117.71928675628689 l 12.820451489559305 20.155879161979293 a44.887725743327984,44.887725743327984 0 0,0 -0.6537274623504312,0.4079742859807354 l -12.472559898419158 -20.372989244801577" fill="#d2ff1c" stroke="none" /><line stroke="#e1ed5e" stroke-width="0.3" x1="143.1302829299769" x2="145.66735839644613" y1="173.24464959558577" y2="177.55315839532614" /><path d="M 143.63769802327073 174.10635135553383 a86.0,86.0 0 0,1 -40.68552437913181,11.842963189579606" fill="none" id="id66" stroke="none" /><text fill="#e1ed5e" style="font-size:6.75px; font-family:Arial;" text-anchor="middle"><textPath startOffset="21.407464694133747" xlink:href="#id66">June</textPath></text><path d="M 110.65571695917076 118.09573695890943 l 8.74329065077598 14.848018990929232 a38.23104173748476,38.23104173748476 0 0,0 -0.5683818662850579,0.32815542350218135 l -8.487116316630523 -14.995921311707585" fill="#ffdc14" stroke="none" /><path d="M 110.34350942703117 118.27599006163325 l 11.749273797184433 20.759841005953753 a44.85406534227832,44.85406534227832 0 0,0 -0.6733573706656923,0.3734999827321657 l -11.391172238362646 -20.958473904119064" fill="#d2ff1c" stroke="none" /><path d="M 109.71004243097381 118.62028667847754 l 11.01709065417538 21.12672398723472 a44.82676547320507,44.82676547320507 0 0,0 -0.6853644824797912,0.34995198816945816 l -10.652798949982007 -21.312733927077012" fill="#d3ff1c" stroke="none" /><path d="M 108.73861861582097 119.09545874513695 l 9.91359377307584 21.66299151299346 a44.82361313465266,44.82361313465266 0 0,0 -0.7024214437237462,0.3141841773375638 l -9.540258926496467 -21.829979441240873" fill="#d3ff1c" stroke="none" /><path d="M 108.4095320186766 119.2426549942271 l 12.044414402015484 27.55997722950071 a51.07690581123789,51.07690581123789 0 0,0 -0.8064433540871457,0.34422271377376534 l -11.569535972757908 -27.76267459293388" fill="#8cff24" stroke="none" /><path d="M 107.74402155503746 119.51999308798841 l 7.429561691447865 18.727348811355952 a41.14725739224138,41.14725739224138 0 0,0 -0.6588023455995103,0.2548388999641786 l -7.106987083354825 -18.85212759945817" fill="#feff18" stroke="none" /><path d="M 107.06938296918513 119.77432235084164 l 8.028087200981135 22.455988714269058 a44.84788487983654,44.84788487983654 0 0,0 -0.7271640922654135,0.2529454181500596 l -7.6414173366707 -22.590492564987706" fill="#d2ff1c" stroke="none" /><path d="M 106.72888874123015 119.89276391827305 l 7.626338235579161 22.545913881991247 a44.80082493649374,44.80082493649374 0 0,0 -0.7306316131130237,0.24017312341809074 l -7.238183884818404 -22.673507926811357" fill="#d3ff1c" stroke="none" /><path d="M 106.38641147887787 120.00534299687104 l 7.214274798871552 22.59861305561642 a44.7222063246889,44.7222063246889 0 0,0 -0.73335765078831,0.2271960748349087 l -6.825276515211617 -22.71912571825797" fill="#d4ff1c" stroke="none" /><path d="M 106.0420521117495 120.11202640906438 l 5.819787563755693 19.372180016419506 a41.2274883729001,41.2274883729001 0 0,0 -0.6795467769015757,0.19780616293520456 l -5.48638077447251 -19.469229873657227" fill="#fdff18" stroke="none" /><path d="M 104.9986988182912 120.39639698878246 l 5.436234216893932 22.181690724402475 a43.838127021583254,43.838127021583254 0 0,0 -0.7324471053400249,0.17285552251017694 l -5.054654957814028 -22.271742390558877" fill="#deff1b" stroke="none" /><path d="M 104.29559338865022 120.5559693870025 l 1.9804005644441107 9.476933613939527 a30.68164537249054,30.68164537249054 0 0,0 -0.5164794985175335,0.10331036455547286 l -1.8174245803956186 -9.509533375157861" fill="#ff790b" stroke="none" /><path d="M 103.94208987418118 120.62667999033965 l 4.453148892200068 23.30075672559991 a44.722474555612706,44.722474555612706 0 0,0 -0.7553099216439261,0.13764262842082745 l -4.052504237005085 -23.373767527952104" fill="#d4ff1c" stroke="none" /><path d="M 103.2317021107853 120.74984581791261 l 2.615187700719114 16.791381047690894 a37.993813115329516,37.993813115329516 0 0,0 -0.6453066324034042,0.09483785260897228 l -2.3265559627080243 -16.833799973598747" fill="#ffd914" stroke="none" /><path d="M 102.875027216393 120.80226474461374 l 3.252367943392656 23.532514273110408 a44.75620182717248,44.75620182717248 0 0,0 -0.7619683219593698,0.09865205441489489 l -2.847921799542511 -23.584877923725696" fill="#d3ff1c" stroke="none" /><path d="M 101.08105385017728 120.97215588758144 l 1.1064151629566683 21.46415858017237 a42.49265591004536,42.49265591004536 0 0,0 -0.7287980963072025,0.031297726080635135 l -0.7377913060486363 -21.47998887467884" fill="#eeff19" stroke="none" /><line stroke="#e1ed5e" stroke-width="0.3" x1="101.45913802915013" x2="101.54496967792366" y1="184.9874750549273" y2="189.98673829345242" /><path d="M 101.47630435890484 185.9873277026323 a86.0,86.0 0 0,1 -42.54439059252881,-10.42667462771756" fill="none" id="id67" stroke="none" /><text fill="#e1ed5e" style="font-size:6.75px; font-family:Arial;" text-anchor="middle"><textPath startOffset="22.145653131862474" xlink:href="#id67">July</textPath></text><path d="M 100.0 121.0 l 2.9148851116494214e-15 23.801843222706154 a44.801843222706154,44.801843222706154 0 0,0 -0.7690832143796698,-0.006601654417890374 l 0.4085902895308148 -23.7983359664827" fill="#d3ff1c" stroke="none" /><path d="M 99.63950707515114 120.99690560180557 l -0.40773175246057136 23.748330486272206 a44.75183037298748,44.75183037298748 0 0,0 -0.7679982779709134,-0.01978091136308581 l 0.8153433445022287 -23.737831857559073" fill="#d3ff1c" stroke="none" /><path d="M 98.91894614982273 120.97215588758144 l -1.2244648536587805 23.754291042565264 a44.785828913719655,44.785828913719655 0 0,0 -0.7674492132872383,-0.04616783892684594 l 1.6320584190784653 -23.729771225813725" fill="#d3ff1c" stroke="none" /><path d="M 98.55909050195518 120.95050786540614 l -1.321575737805144 19.215421181681553 a40.2608144589,40.2608144589 0 0,0 -0.6890945243871494,-0.05334027432592518 l 1.6512392569675294 -19.189903140360574" fill="#fff517" stroke="none" /><path d="M 97.84075906011543 120.88869738790638 l -2.4351102577442827 23.557482789728073 a44.68300566557602,44.68300566557602 0 0,0 -0.7623007970735224,-0.08541739431939342 l 2.8391469564186047 -23.51220963490171" fill="#d4ff1c" stroke="none" /><path d="M 97.48249496171623 120.84855314841334 l -3.8860726390420948 32.18225613121162 a53.41603261120675,53.41603261120675 0 0,0 -0.9094007773862388,-0.11774013747049042 l 4.437951238319128 -32.11080439754073" fill="#73ff27" stroke="none" /><path d="M 97.12497278360702 120.80226474461374 l -3.2621148461097835 23.603038005757504 a44.82739592088156,44.82739592088156 0 0,0 -0.7613717479029964,-0.11189542766565085 l 3.6668116996204647 -23.543561504792972" fill="#d3ff1c" stroke="none" /><path d="M 96.41257539226777 120.69131181640829 l -3.9455551001707496 22.75691332731882 a44.09641767104986,44.09641767104986 0 0,0 -0.7447365582260367,-0.13571580938881597 l 4.3356263919478435 -22.68582934399864" fill="#dbff1b" stroke="none" /><path d="M 95.70440661134978 120.55596938700252 l -4.0533363534763565 19.396681775661687 a40.81567055389999,40.81567055389999 0 0,0 -0.6846101504750098,-0.14920759589130542 l 4.385708920570503 -19.32424272163666" fill="#fffc17" stroke="none" /><path d="M 95.35216902796893 120.47920084513623 l -6.3740901108892425 28.08541712713229 a49.79964721913711,49.79964721913711 0 0,0 -0.8320521411567627,-0.19636203975247504 l 6.8552744057858925 -27.971858943733587" fill="#9aff22" stroke="none" /><path d="M 95.00130118170881 120.39639698878247 l -6.859749587759068 27.990119213343736 a49.81844787603862,49.81844787603862 0 0,0 -0.8288715232197748,-0.21069589992559065 l 7.339226404204222 -27.86823808158288" fill="#9aff23" stroke="none" /><path d="M 94.6519064749342 120.30758222061772 l -8.064555007413261 30.62242893063916 a52.66654703436484,52.66654703436484 0 0,0 -0.8723049812904651,-0.237750601618665 l 8.589041389638423 -30.479477834876352" fill="#7bff26" stroke="none" /><path d="M 94.30408787586889 120.21278271476187 l -7.819012936978021 27.746918508360537 a49.827564066674626,49.827564066674626 0 0,0 -0.8213005909092118,-0.23906863225061145 l 8.29417354026884 -27.60860618180741" fill="#9aff23" stroke="none" /><path d="M 93.61358852112213 120.00534299687104 l -7.369729878874002 23.085573879600407 a45.23337863027062,45.23337863027062 0 0,0 -0.7376858895351496,-0.2424920041937788 l 7.764938506056896 -22.955660954004607" fill="#ceff1d" stroke="none" /><path d="M 92.93061703081489 119.77432235084164 l -8.434057170477265 23.5915589721785 a46.0538415236597,46.0538415236597 0 0,0 -0.742148551409926,-0.2725272279062937 l 8.83779487354131 -23.443300895263487" fill="#c4ff1e" stroke="none" /><path d="M 92.59220618246901 119.65005319985036 l -8.43313358898698 22.36988876133039 a44.906686623704175,44.906686623704175 0 0,0 -0.7189939829714378,-0.278122318363282 l 8.815899834451947 -22.221826554829068" fill="#d2ff1c" stroke="none" /><path d="M 92.25597844496254 119.51999308798841 l -8.793133006297085 22.164439275485915 a44.84494823779523,44.84494823779523 0 0,0 -0.7131319239122532,-0.2900245451778403 l 9.172319391399778 -22.010227473728783" fill="#d2ff1c" stroke="none" /><path d="M 91.26138138417905 119.09545874513695 l -15.687751218959878 34.28056760175677 a58.6996399638855,58.6996399638855 0 0,0 -0.9126711876137498,-0.427176199273062 l 16.273911120445117 -34.00621517091318" fill="#3dff2e" stroke="none" /><path d="M 90.93487009805054 118.94263497670748 l -14.541441659978451 30.386020319556884 a54.68625471035747,54.68625471035747 0 0,0 -0.843313480675864,-0.4125068823759953 l 15.060915389916383 -30.13191968708367" fill="#66ff29" stroke="none" /><path d="M 90.6110303473126 118.78422872680471 l -10.63691396505828 21.2809533163 a44.791236049238634,44.791236049238634 0 0,0 -0.6848212667243712,-0.3496746183341752 l 11.000662453496235 -21.09522074629299" fill="#d3ff1c" stroke="none" /><line stroke="#e1ed5e" stroke-width="0.3" x1="58.13341422392154" x2="55.67067388415222" y1="173.97424548756322" y2="178.32567169271397" /><path d="M 57.64086615596768 174.84453072859336 a86.0,86.0 0 0,1 -31.369924170532247,-30.572349798747897" fill="none" id="id68" stroke="none" /><text fill="#e1ed5e" style="font-size:6.75px; font-family:Arial;" text-anchor="middle"><textPath startOffset="22.145653131862474" xlink:href="#id68">August</textPath></text><path d="M 89.65649057296885 118.27599006163327 l -2.9032889097164234 5.129833315698649 a26.894427566790025,26.894427566790025 0 0,0 -0.39984013613974995,-0.230847810233103 l 2.9909215137165734 -5.079238608189375" fill="#ff4506" stroke="none" /><path d="M 88.4268655584334 117.5232005979908 l -13.127320478612448 19.876436346807015 a44.82014409689557,44.82014409689557 0 0,0 -0.6383748317813592,-0.42952707658604905 l 13.466591598490814 -19.648159596163847" fill="#d3ff1c" stroke="none" /><path d="M 87.83215693770417 117.11559508785305 l -13.766301656883089 19.364027281594062 a44.75871658719429,44.75871658719429 0 0,0 -0.6223997711786204,-0.4505694362316408 l 14.096682438435664 -19.124857073989357" fill="#d3ff1c" stroke="none" /><path d="M 87.2517909369889 116.68781488649013 l -32.48901015366505 42.52915720238436 a74.51882839814482,74.51882839814482 0 0,0 -1.0098722618831406,-0.7852827789980963 l 33.214292360183414 -41.965173371765474" fill="#41ffd1" stroke="none" /><path d="M 85.08716467003676 114.78537596483092 l -18.57765492703579 18.418872505701753 a47.16073636137395,47.16073636137395 0 0,0 -0.5650601779032682,-0.5798015216134619 l 18.89110190608987 -18.097248292020552" fill="#b8ff1f" stroke="none" /><path d="M 83.8745106332314 113.45245675266167 l -48.3764681003058 40.35737025798504 a84.0,84.0 0 0,0 -0.9142127230454804,-1.1151908732060192 l 49.06212764258991 -39.520977103080526" fill="#4dd2ff" stroke="none" /><path d="M 82.98947788004972 112.3143062007846 l -19.2924652315914 13.966257035178044 a44.8171272466858,44.8171272466858 0 0,0 -0.4457914861473419,-0.6270615532635369 l 19.5293718162687 -13.633018255205004" fill="#d3ff1c" stroke="none" /><path d="M 82.576782715395 111.72311816256416 l -11.73416390196429 7.895269152337898 a35.143050500723675,35.143050500723675 0 0,0 -0.33247929886992916,-0.5034160346268676 l 11.867967639754946 -7.6926732393719695" fill="#ffb410" stroke="none" /><line stroke="#e1ed5e" stroke-width="0.3" x1="26.387840678322732" x2="22.057713659400548" y1="142.50000000000003" y2="145.00000000000006" /><path d="M 25.521815274538298 143.00000000000003 a86.0,86.0 0 0,1 -11.493303480769221,-40.785679425670985" fill="none" id="id69" stroke="none" /><text fill="#e1ed5e" style="font-size:6.75px; font-family:Arial;" text-anchor="middle"><textPath startOffset="21.40746469413373" xlink:href="#id69">September</textPath></text><path d="M 81.81346652052679 110.50000000000001 l -53.943740716854045 31.1444332239711 a83.28886644794214,83.28886644794214 0 0,0 -0.7042535117307102,-1.2443484749600129 l 54.47042759360614 -30.213827978911965" fill="#4cd8ff" stroke="none" /><path d="M 81.63589988554817 110.18625677009913 l -9.354212804552965 5.188624158846777 a31.69687420953575,31.69687420953575 0 0,0 -0.259845918944262,-0.4780872238016414 l 9.441904073112557 -5.027282101570549" fill="#ff870c" stroke="none" /><path d="M 79.34024301695615 103.76489593502545 l -20.391673120209898 3.716042124873775 a41.72750109673926,41.72750109673926 0 0,0 -0.12237122717312761,-0.7058047194464474 l 20.45245916487526 -3.3654443725067353" fill="#f7ff18" stroke="none" /><path d="M 79.0935383218832 101.97986365728391 l -23.73213425216759 2.247457787887221 a44.838315013256306,44.838315013256306 0 0,0 -0.06598999435225013,-0.76690376304293 l 23.767217869217582 -1.839732977468629" fill="#d2ff1c" stroke="none" /><path d="M 79.06263194458094 101.62068470465958 l -23.72596906282068 1.836540058977825 a44.796942815373455,44.796942815373455 0 0,0 -0.052766615103209125,-0.7672150029205195 l 23.753999639088956 -1.4289816319029622" fill="#d3ff1c" stroke="none" /><line stroke="#e1ed5e" stroke-width="0.3" x1="15.003131293944662" x2="10.003315487706104" y1="100.72959589197737" y2="100.7725132973878" /><path d="M 14.003168132696942 100.73817937305945 a86.0,86.0 0 0,1 10.791469493833604,-42.45332614584628" fill="none" id="id70" stroke="none" /><text fill="#e1ed5e" style="font-size:6.75px; font-family:Arial;" text-anchor="middle"><textPath startOffset="22.145653131862435" xlink:href="#id70">October</textPath></text><path d="M 79.17382384314186 97.30363454192245 l -23.755462822098732 -3.0756202632550758 a44.95373569812985,44.95373569812985 0 0,0 0.10565301704907659,-0.764452600375533 l 23.699165288494445 3.482961171830676" fill="#d1ff1c" stroke="none" /><path d="M 79.34024301695615 96.23510406497455 l -23.44101642126206 -4.271734053295325 a44.82706366055122,44.82706366055122 0 0,0 0.14445779066729447,-0.7558642028233097 l 23.364232338312604 4.673500821151949" fill="#d3ff1c" stroke="none" /><path d="M 80.16572619554312 93.10060997987247 l -22.47224246384439 -7.817012455988903 a44.79301084543309,44.79301084543309 0 0,0 0.25886057997245554,-0.7240791133559429 l 22.334741713827988 8.201626525725766" fill="#d3ff1c" stroke="none" /><path d="M 80.41425534168474 92.42381321644754 l -22.235312787180735 -8.601096655003781 a44.84088921186625,44.84088921186625 0 0,0 0.2838670108344001,-0.7155303029588004 l 22.084387101380205 8.981527975176164" fill="#d2ff1c" stroke="none" /><path d="M 80.5471966667186 92.08871423366112 l -22.074687060542605 -8.977583053012678 a44.830417669328156,44.830417669328156 0 0,0 0.2960390623510006,-0.7103859804058265 l 21.917322153655125 9.355201542859767" fill="#d3ff1c" stroke="none" /><path d="M 80.9802524753101 91.09779779509293 l -8.781973905963842 -4.110407215848797 a30.696314411421056,30.696314411421056 0 0,0 0.22747539174292417,-0.4753360799654009 l 8.710119256261011 4.260555797879285" fill="#ff7a0b" stroke="none" /><line stroke="#e1ed5e" stroke-width="0.3" x1="26.387840678322718" x2="22.05771365940052" y1="57.49999999999999" y2="54.99999999999999" /><path d="M 25.521815274538284 56.99999999999999 a86.0,86.0 0 0,1 29.574782752854787,-30.34633250058573" fill="none" id="id71" stroke="none" /><text fill="#e1ed5e" style="font-size:6.75px; font-family:Arial;" text-anchor="middle"><textPath startOffset="21.40746469413373" xlink:href="#id71">November</textPath></text><path d="M 82.18462484594161 88.88188828441811 l -4.121954097942041 -2.572404215522813 a25.85878266992677,25.85878266992677 0 0,0 0.23824842679627928,-0.3745660989356126 l 4.077187979519872 2.6427839891370977" fill="#ff3705" stroke="none" /><path d="M 85.34317274990677 84.96080404539775 l -3.6565018291367717 -3.751892996923987 a26.238960458607014,26.238960458607014 0 0,0 0.32527254046037335,-0.3116037357984965 l 3.591556802811098 3.814108863028052" fill="#ff3c05" stroke="none" /><path d="M 86.13680546590413 84.22622945171909 l -3.4252013098764413 -3.8972503351072545 a26.188503077735707,26.188503077735707 0 0,0 0.3402267159000046,-0.2938797339159239 l 3.3577951142135882 3.955474201487889" fill="#ff3b05" stroke="none" /><path d="M 88.4268655584334 82.4767994020092 l -2.9282059417749084 -4.43367701023652 a26.313368222563323,26.313368222563323 0 0,0 0.3790558071922289,-0.2456993945996644 l 2.851664502325654 4.483290246540091" fill="#ff3d05" stroke="none" /><line stroke="#e1ed5e" stroke-width="0.3" x1="56.869717070023135" x2="54.33264160355391" y1="26.7553504044142" y2="22.446841604673864" /><path d="M 56.362301976729285 25.89364864446614 a86.0,86.0 0 0,1 42.16139366436587,-11.88097634709845" fill="none" id="id72" stroke="none" /><text fill="#e1ed5e" style="font-size:6.75px; font-family:Arial;" text-anchor="middle"><textPath startOffset="22.145653131862474" xlink:href="#id72">December</textPath></text><path d="M 89.34428304082924 81.90426304109057 l -4.904856916461271 -8.329519348295262 a30.666359911806673,30.666359911806673 0 0,0 0.4559175498938063,-0.2632241201594623 l 4.761146898707065 8.4124903657309" fill="#ff790b" stroke="none" /><path d="M 91.5904679813234 80.7573450057729 l -3.8611899601761297 -8.835158259203016 a30.64203346673969,30.64203346673969 0 0,0 0.4838011201440323,-0.20650592959660025 l 3.708953764861666 8.90013883845902" fill="#ff790b" stroke="none" /><path d="M 92.592206182469 80.34994680014964 l -0.37011133461659323 -0.98176428694227 a22.049210901166653,22.049210901166653 0 0,0 0.3553186745914704,-0.13047793898645782 l 0.35320350837099584 0.9879730749374497" fill="#ff0000" stroke="none" /><path d="M 93.95794788825049 79.88797359093562 l -1.3666539508113904 -4.549146522142806 a25.749997589598586,25.749997589598586 0 0,0 0.4244335165160409,-0.12354641089747394 l 1.2883604219137252 4.571936627342801" fill="#ff3505" stroke="none" /><path d="M 96.41257539226777 79.30868818359171 l -1.1260469516081961 -6.494739581543375 a27.59163287579734,27.59163287579734 0 0,0 0.4673792638772169,-0.07690708001232799 l 1.0143901846779064 6.513112660051371" fill="#ff4f07" stroke="none" /><path d="M 99.27912038922189 79.0123766808444 l -0.0376470855816097 -1.0960538201350771 a22.09670017766274,22.09670017766274 0 0,0 0.3792074546190609,-0.009767038889541627 l 0.018826316891804883 1.0965385763746638" fill="#ff0100" stroke="none" /><path d="M 99.63950707515114 79.00309439819443 l -0.01851716575806004 -1.0785320727112335 a22.078691020308643,22.078691020308643 0 0,0 0.37901009060691193,-0.0032533457918442546 l 2.6420310105799443e-16 1.0786910203086428" fill="#ff0000" stroke="none" /></svg>