<?xml version="1.0" encoding="utf-8" ?>
<svg baseProfile="full" height="200mm" version="1.1" viewBox="0,0,200,200" width="200mm" xmlns="http://www.w3.org/2000/svg" xmlns:ev="http://www.w3.org/2001/xml-events" xmlns:xlink="http://www.w3.org/1999/xlink"><defs /><rect fill="#1a1a1a" height="200" width="200" x="0" y="0" /><text alignment-baseline="middle" fill="#e1ed5e" style="dominant-baseline: central; font-size:9.0px; font-family:Arial;" text-anchor="middle" x="100.0" y="100.0">2019</text><line stroke="#e1ed5e" stroke-width="0.3" x1="100.0" x2="100.0" y1="15.0" y2="10.0" /><path d="M 100.0 14.0 a86.0,86.0 0 0,1 42.46469731375804,11.215312516191453" fill="none" id="id1" stroke="none" /><text fill="#e1ed5e" style="font-size:6.75px; font-family:Arial;" text-anchor="middle"><textPath startOffset="22.20632615414155" xlink:href="#id1">January</textPath></text><line stroke="#e1ed5e" stroke-width="0.3" x1="143.23703022742887" x2="145.7803849466894" y1="26.81831364943548" y2="22.513508569990506" /><path d="M 143.74570117128098 25.957352633546492 a86.0,86.0 0 0,1 28.547481713284135,27.462654790039103" fill="none" id="id2" stroke="none" /><text fill="#e1ed5e" style="font-size:6.75px; font-family:Arial;" text-anchor="middle"><textPath startOffset="19.985693538727396" xlink:href="#id2">February</textPath></text><line stroke="#e1ed5e" stroke-width="0.3" x1="172.23445277983987" x2="176.4835382374775" y1="55.19839476539836" y2="52.563006222186495" /><path d="M 173.08426987136738 54.67131705675599 a86.0,86.0 0 0,1 12.851231095245387,41.99856678651699" fill="none" id="id3" stroke="none" /><text fill="#e1ed5e" style="font-size:6.75px; font-family:Arial;" text-anchor="middle"><textPath startOffset="22.20632615414155" xlink:href="#id3">March</textPath></text><line stroke="#e1ed5e" stroke-width="0.3" x1="184.98032266829074" x2="189.97916517819016" y1="98.17113171792111" y2="98.06355123074" /><path d="M 185.9800911702706 98.14961562048488 a86.0,86.0 0 0,1 -9.607161424134198,41.387399972396054" fill="none" id="id4" stroke="none" /><text fill="#e1ed5e" style="font-size:6.75px; font-family:Arial;" text-anchor="middle"><textPath startOffset="21.466115282336823" xlink:href="#id4">April</textPath></text><line stroke="#e1ed5e" stroke-width="0.3" x1="174.80103733775053" x2="179.2010983576182" y1="140.37084112569926" y2="142.7455964860345" /><path d="M 175.68104954172406 140.8457921977663 a86.0,86.0 0 0,1 -30.038265399797805,32.042727171017184" fill="none" id="id5" stroke="none" /><text fill="#e1ed5e" style="font-size:6.75px; font-family:Arial;" text-anchor="middle"><textPath startOffset="22.206326154141568" xlink:href="#id5">May</textPath></text><line stroke="#e1ed5e" stroke-width="0.3" x1="143.8653032363475" x2="146.44561519142675" y1="172.8068346515853" y2="177.08958963109032" /><path d="M 144.38136562736335 173.6633856474863 a86.0,86.0 0 0,1 -40.68145358897372,12.25698825130547" fill="none" id="id6" stroke="none" /><text fill="#e1ed5e" style="font-size:6.75px; font-family:Arial;" text-anchor="middle"><textPath startOffset="21.466115282336833" xlink:href="#id6">June</textPath></text><line stroke="#e1ed5e" stroke-width="0.3" x1="102.19456741930631" x2="102.32365962044197" y1="184.97166512339345" y2="189.96999836594603" /><path d="M 102.22038585953345 185.97133177190398 a86.0,86.0 0 0,1 -42.740103519485714,-10.115201625700543" fill="none" id="id7" stroke="none" /><text fill="#e1ed5e" style="font-size:6.75px; font-family:Arial;" text-anchor="middle"><textPath startOffset="22.20632615414155" xlink:href="#id7">July</textPath></text><line stroke="#e1ed5e" stroke-width="0.3" x1="58.666819895761336" x2="56.23545636021788" y1="174.27360380694188" y2="178.64263932499728" /><path d="M 58.180547188652646 175.14741091055294 a86.0,86.0 0 0,1 -31.652253787137756,-30.449443065178592" fill="none" id="id8" stroke="none" /><text fill="#e1ed5e" style="font-size:6.75px; font-family:Arial;" text-anchor="middle"><textPath startOffset="22.20632615414155" xlink:href="#id8">August</textPath></text><line stroke="#e1ed5e" stroke-width="0.3" x1="26.63291911575756" x2="22.317208475507996" y1="142.92168965132927" y2="145.44649492493687" /><path d="M 25.769776987707644 143.4266507060508 a86.0,86.0 0 0,1 -11.730757126820373,-40.83630448921669" fill="none" id="id9" stroke="none" /><text fill="#e1ed5e" style="font-size:6.75px; font-family:Arial;" text-anchor="middle"><textPath startOffset="21.46611528233685" xlink:href="#id9">September</textPath></text><line stroke="#e1ed5e" stroke-width="0.3" x1="15.007084014347285" x2="10.007500721073583" y1="101.09737516637583" y2="101.16192664675087" /><path d="M 14.007167355692545 101.11028546245083 a86.0,86.0 0 0,1 10.666146001902534,-42.60595125391555" fill="none" id="id10" stroke="none" /><text fill="#e1ed5e" style="font-size:6.75px; font-family:Arial;" text-anchor="middle"><textPath startOffset="22.20632615414155" xlink:href="#id10">October</textPath></text><path d="M 79.81627453868168 94.20196356495316 l -14.301015389418499 -4.108151809978011 a35.879380110146066,35.879380110146066 0 0,0 0.1756280328862157,-0.5921304175203498 l 14.228181459420576 4.3537116142449" fill="#ff970d" stroke="none" /><path d="M 80.02781315780177 93.51064311812611 l -21.673941297193558 -7.042290422453969 a43.78933052435677,43.78933052435677 0 0,0 0.23909538770690858,-0.7148647766082893 l 21.549508615714878 7.414328301984581" fill="#fdff18" stroke="none" /><path d="M 80.14247586403 93.16781622104843 l -14.135920495445543 -4.863607670736157 a35.94921161226909,35.94921161226909 0 0,0 0.206360319389298,-0.5834084116930163 l 14.050107095246435 5.106213708855785" fill="#ff980e" stroke="none" /><path d="M 80.38941819471856 92.48833698450439 l -17.334962285311597 -6.640006725273073 a39.56315185373559,39.56315185373559 0 0,0 0.24907161247971307,-0.6338600862213982 l 17.21809712295019 6.937415816390235" fill="#ffc912" stroke="none" /><path d="M 80.65960295795068 91.81776055985345 l -4.325934756068844 -1.8301503272994148 a25.69714399760946,25.69714399760946 0 0,0 0.17585325347461297,-0.40589355455659015 l 4.29379079275155 1.9043430264426042" fill="#ff0000" stroke="none" /><path d="M 81.10775173730289 90.83032412892265 l -40.228755720319086 -19.525714754682745 a65.71695789615323,65.71695789615323 0 0,0 0.5027033935799606,-1.0134193660803181 l 39.88669231378571 20.215293709262024" fill="#35ff64" stroke="none" /><path d="M 81.43458229118936 90.18545643968196 l -30.56403739949504 -16.15757216678057 a55.57206271662791,55.57206271662791 0 0,0 0.45434633705562577,-0.8418347593142774 l 30.281382963220942 16.681287909427322" fill="#6fff27" stroke="none" /><line stroke="#e1ed5e" stroke-width="0.3" x1="26.266209847984243" x2="21.928928074336255" y1="57.711370442889674" y2="55.22380399835377" /><path d="M 25.398753493254645 57.213857153982495 a86.0,86.0 0 0,1 29.58750427330803,-30.492523968695096" fill="none" id="id11" stroke="none" /><text fill="#e1ed5e" style="font-size:6.75px; font-family:Arial;" text-anchor="middle"><textPath startOffset="21.46611528233685" xlink:href="#id11">November</textPath></text><path d="M 81.78341655067845 89.55222093294921 l -25.980512025564998 -14.900634383340893 a50.950223874564415,50.950223874564415 0 0,0 0.44287954532727664,-0.7570247044782076 l 25.720172805767398 15.345638500172994" fill="#a4ff21" stroke="none" /><path d="M 82.34701348167596 88.62581576622439 l -14.665601557979967 -9.449350332107281 a38.44620562633378,38.44620562633378 0 0,0 0.363231264475518,-0.5532261356608692 l 14.500773658146528 9.700394531745816" fill="#ffba11" stroke="none" /><path d="M 82.7489923806493 88.02491185347247 l -36.760285659566 -25.51779413574933 a65.74903819443918,65.74903819443918 0 0,0 0.6533806919624886,-0.9241606525557938 l 36.31559234779964 26.14678128863691" fill="#35ff64" stroke="none" /><path d="M 83.17141714833178 87.43820079747576 l -24.320920731710302 -18.15450090748241 a51.349515456394286,51.349515456394286 0 0,0 0.534827356578449,-0.7037701094991815 l 24.004817434907746 18.57045579286262" fill="#a0ff22" stroke="none" /><path d="M 83.84228863543731 86.58626213691792 l -23.092941863563457 -19.171197062265268 a51.01364290975239,51.01364290975239 0 0,0 0.5667114980096691,-0.6708076636354395 l 22.759519752066662 19.565863675529823" fill="#a4ff21" stroke="none" /><path d="M 84.5562425177563 85.77008943001954 l -12.165245746987098 -11.209082973524636 a37.541969205386266,37.541969205386266 0 0,0 0.441981027864301,-0.47147454428965735 l 11.970497397152341 11.416826934692343" fill="#ffae10" stroke="none" /><path d="M 85.31137513191541 84.99185889309783 l -44.06587460425377 -45.02442332070654 a84.0,84.0 0 0,0 1.0420670255502897,-1.0024676529507457 l 43.28432433509105 45.776274060419595" fill="#4dd2ff" stroke="none" /><path d="M 86.10567301691215 84.25364557470407 l -11.868318288289597 -13.450291361870427 a38.937873806874535,38.937873806874535 0 0,0 0.5063892763888953,-0.43913579044165607 l 11.635035213253929 13.652592145731763" fill="#ffc111" stroke="none" /><path d="M 86.65592168130627 83.78471172551755 l -19.087232182960406 -23.19418133023816 a51.03818369985456,51.03818369985456 0 0,0 0.6831742848318965,-0.5524127600804756 l 18.68515449956401 23.51930018758277" fill="#a3ff21" stroke="none" /><path d="M 87.51073957382395 83.11751280151077 l -17.88662066740411 -24.17842483361043 a51.07536244726167,51.07536244726167 0 0,0 0.7112966174585642,-0.5167872426100089 l 17.46777873359176 24.482731311037107" fill="#a3ff22" stroke="none" /><path d="M 88.09926311788651 82.69761687909137 l -17.088333234632568 -24.844586637971254 a51.1540149557154,51.1540149557154 0 0,0 0.7297858449042858,-0.4927546601731969 l 16.65814269532174 25.135053210443118" fill="#a2ff22" stroke="none" /><path d="M 88.70189139769569 82.29822771554957 l -9.621507297463175 -15.07488883388268 a38.883670653114194,38.883670653114194 0 0,0 0.5672958082656998,-0.35524058309216533 l 9.360592336825233 15.238273758297776" fill="#ffc011" stroke="none" /><line stroke="#e1ed5e" stroke-width="0.3" x1="56.762969772571076" x2="54.21961505331055" y1="26.818313649435495" y2="22.513508569990535" /><path d="M 56.25429882871897 25.957352633546506 a86.0,86.0 0 0,1 42.265352541879196,-11.944610805530505" fill="none" id="id12" stroke="none" /><text fill="#e1ed5e" style="font-size:6.75px; font-family:Arial;" text-anchor="middle"><textPath startOffset="22.20632615414155" xlink:href="#id12">December</textPath></text><path d="M 89.63071344664047 81.73862282372117 l -16.813533847242663 -29.610357633636042 a55.05096473852397,55.05096473852397 0 0,0 0.8280606492497122,-0.46081485478522544 l 16.301349108920906 29.895387885981453" fill="#75ff27" stroke="none" /><path d="M 90.91171255644093 81.06846463323043 l -12.913803245295446 -26.900351070110318 a50.839490645005796,50.839490645005796 0 0,0 0.7921804316893152,-0.37193933465803036 l 12.448844602306522 27.118655387408356" fill="#a6ff21" stroke="none" /><path d="M 96.75951476605007 79.25152402106235 l -6.991452395214196 -44.765512448630304 a66.30818371313312,66.30818371313312 0 0,0 1.1292315879643935,-0.16641938223571037 l 6.219851826821154 44.87922631502698" fill="#36ff6b" stroke="none" /><path d="M 97.83486435360386 79.11191278185805 l -1.987864265800049 -19.177866398797406 a40.28061627514451,40.28061627514451 0 0,0 0.6902848410830756,-0.06555086322838191 l 1.657454297626737 19.20924280654097" fill="#ffd313" stroke="none" /><path d="M 99.27714615592234 79.0124445844662 l -0.5176486285744761 -15.029565612733556 a36.03847740331873,36.03847740331873 0 0,0 0.6201593257947908,-0.016016885737049943 l 0.25886266758480625 15.036249290612966" fill="#ff990e" stroke="none" /></svg>