<?xml version="1.0" encoding="utf-8" ?>
<svg baseProfile="full" height="200mm" version="1.1" viewBox="0,0,200,200" width="200mm" xmlns="http://www.w3.org/2000/svg" xmlns:ev="http://www.w3.org/2001/xml-events" xmlns:xlink="http://www.w3.org/1999/xlink"><defs /><rect fill="#1a1a1a" height="200" width="200" x="0" y="0" /><text alignment-baseline="middle" fill="#e1ed5e" style="dominant-baseline: central; font-size:9.0px; font-family:Arial;" text-anchor="middle" x="100.0" y="100.0">2025</text><line stroke="#e1ed5e" stroke-width="0.3" x1="100.0" x2="100.0" y1="15.0" y2="10.0" /><path d="M 100.0 14.0 a86.0,86.0 0 0,1 42.46469731375804,11.215312516191453" fill="none" id="id73" stroke="none" /><text fill="#e1ed5e" style="font-size:6.75px; font-family:Arial;" text-anchor="middle"><textPath startOffset="22.20632615414155" xlink:href="#id73">January</textPath></text><path d="M 100.0 79.0 l 0.0 -35.867112450517716 a56.867112450517716,56.867112450517716 0 0,0 0.9788738601646624,0.008425476355944173 l -0.617393380892134 35.86179835077033" fill="#54ff2b" stroke="none" /><path d="M 100.36148047927253 79.00311137660856 l 0.033215500279020004 -1.9293494390965658 a22.929635335393975,22.929635335393975 0 0,0 0.39457902261457034,0.010190812032625098 l -0.06642115808845812 1.9284918349215812" fill="#ff0000" stroke="none" /><path d="M 101.44485096284872 79.0497635885617 l 0.8633154735550975 -12.518013091794481 a33.54774742227535,33.54774742227535 0 0,0 0.5757589188467745,0.04468997325265562 l -1.0786645817642133 12.50129785635336" fill="#ff960d" stroke="none" /><path d="M 102.16513564639614 79.11191278185805 l 0.19739346986120307 -1.9043481278484802 a22.914551115531747,22.914551115531747 0 0,0 0.3919842730870177,0.044044000353696156 l -0.23014444645794604 1.9006681740241833" fill="#ff0000" stroke="none" /><path d="M 105.01212808612495 79.60689891045804 l 2.4444940738500773 -9.946037671864897 a31.24203186126873,31.24203186126873 0 0,0 0.5211336219248419,0.13284856375276508 l -2.6153365844599445 9.902486111943263" fill="#ff770a" stroke="none" /><path d="M 105.36241919743992 79.69619591428918 l 2.9336111531177473 -11.107573638591175 a32.48844056146971,32.48844056146971 0 0,0 0.5394660856959284,0.14745645967014426 l -3.1243751280373866 11.055430638094737" fill="#ff880c" stroke="none" /><path d="M 106.0581310904928 79.89281104454417 l 2.395537697316559 -7.95088921160065 a29.30392919733859,29.30392919733859 0 0,0 0.4817211902843211,0.1496731187199383 l -2.5320442603115985 7.908475957998191" fill="#ff5c08" stroke="none" /><path d="M 107.4271985657038 80.35727306442388 l 14.739264204371478 -38.980961588219714 a62.67446791056278,62.67446791056278 0 0,0 1.0058262290737048,0.3902449504325657 l -15.408073598444851 38.7214739338966" fill="#32ff4a" stroke="none" /><path d="M 107.76421540070413 80.48803036053334 l 15.42117122712331 -38.75438911204839 a62.70989328042342,62.70989328042342 0 0,0 0.9995244198737385,0.4077311074300633 l -16.085979516585436 38.48319711843475" fill="#32ff4b" stroke="none" /><path d="M 109.08828744355905 81.06846463323043 l 3.9918424629537532 -8.315285716401917 a30.22381606464691,30.22381606464691 0 0,0 0.4670712730271247,0.22918984520614238 l -4.134385002991309 8.245340711060942" fill="#ff6909" stroke="none" /><path d="M 110.05341064243156 81.56283822128135 l 30.16023192729467 -55.311485336155954 a84.0,84.0 0 0,0 1.2635036437118596,0.7031384097592803 l -31.107859660078564 54.7841315288365" fill="#4dd2ff" stroke="none" /><line stroke="#e1ed5e" stroke-width="0.3" x1="143.23703022742887" x2="145.7803849466894" y1="26.81831364943548" y2="22.513508569990506" /><path d="M 143.74570117128098 25.957352633546492 a86.0,86.0 0 0,1 28.547481713284135,27.462654790039103" fill="none" id="id74" stroke="none" /><text fill="#e1ed5e" style="font-size:6.75px; font-family:Arial;" text-anchor="middle"><textPath startOffset="19.985693538727396" xlink:href="#id74">February</textPath></text><path d="M 113.89432698308785 84.25364557470407 l 2.5423915459717983 -2.881276539660871 a24.84259147855051,24.84259147855051 0 0,0 0.318208768922456,0.2856909746099692 l -2.5916113024902443 2.8370865562816046" fill="#ff1c02" stroke="none" /><path d="M 114.16331599549186 84.49514656593476 l 2.624179290239154 -2.8727393565756882 a24.890880152117123,24.890880152117123 0 0,0 0.31385280141371136,0.2916919740000847 l -2.673239975447712 2.8271427965009632" fill="#ff1d02" stroke="none" /><path d="M 114.42810811169701 84.74124197986012 l 1.501377333929503 -1.587814095791281 a23.185243121858697,23.185243121858697 0 0,0 0.2876259206744818,0.2766959078031332 l -1.528486498216403 1.5617351012258458" fill="#ff0400" stroke="none" /><path d="M 115.68641384162765 86.03803664274999 l 1.6881407865218316 -1.502558841125881 a23.259978403915422,23.259978403915422 0 0,0 0.2636221006254955,0.301365632702894 l -1.7137547507251754 1.4732776522200393" fill="#ff0500" stroke="none" /><path d="M 116.15771136456269 86.58626213691792 l 2.0960618808138656 -1.7400994472336229 a23.72422860539708,23.72422860539708 0 0,0 0.25814390526939185,0.3164539045813357 l -2.1257042781596662 1.7037613730441863" fill="#ff0c01" stroke="none" /><path d="M 116.38621287248628 86.86637796730983 l 3.2925961035205646 -2.6390303279018807 a25.219676548327456,25.219676548327456 0 0,0 0.2685846547035018,0.3410752362747229 l -3.3375348388180304 2.5819626976741192" fill="#ff2203" stroke="none" /><path d="M 117.2510076193507 88.02491185347247 l 1.912523229587437 -1.3276113930238405 a23.32815315531394,23.32815315531394 0 0,0 0.22614482112165044,0.33183962019076596 l -1.9350925163778208 1.294493749562668" fill="#ff0601" stroke="none" /><path d="M 117.45458315368197 88.32363383020206 l 19.66046229424388 -13.152004536222451 a44.653942608880264,44.653942608880264 0 0,0 0.4218805932445697,0.6425530870752988 l -19.883939522846376 12.811633385169479" fill="#dbff1b" stroke="none" /><line stroke="#e1ed5e" stroke-width="0.3" x1="172.23445277983987" x2="176.4835382374775" y1="55.19839476539836" y2="52.563006222186495" /><path d="M 173.08426987136738 54.67131705675599 a86.0,86.0 0 0,1 12.851231095245387,41.99856678651699" fill="none" id="id75" stroke="none" /><text fill="#e1ed5e" style="font-size:6.75px; font-family:Arial;" text-anchor="middle"><textPath startOffset="22.20632615414155" xlink:href="#id75">March</textPath></text><path d="M 117.84615892207809 88.93136811851018 l 14.154901747904866 -8.779222321750554 a37.65640981927268,37.65640981927268 0 0,0 0.33690688087146886,0.553786328452986 l -14.303924427062558 8.534268220090487" fill="#ffcc13" stroke="none" /><path d="M 119.196687751892 91.48605970444005 l 8.150728666378097 -3.614937020789566 a29.916397672669866,29.916397672669866 0 0,0 0.20472687017159355,0.47253784280533145 l -8.211746246392371 3.4741000333976317" fill="#ff6509" stroke="none" /><path d="M 119.7369772167798 92.82701384747503 l 3.8799152871665994 -1.410072997609543 a25.128201605321212,25.128201605321212 0 0,0 0.14424415658626047,0.4077976547963821 l -3.903612524562669 1.3430777163865462" fill="#ff2103" stroke="none" /><path d="M 120.28053869075195 94.5502522615342 l 12.291343894741955 -3.30290652602935 a33.72738489472592,33.72738489472592 0 0,0 0.1458366792792028,0.5619682157883005 l -12.346376905891459 3.090841884692199" fill="#ff990e" stroke="none" /><path d="M 120.37134235888165 94.90015583598534 l 15.081124674853344 -3.7754696919270874 a36.54652671348589,36.54652671348589 0 0,0 0.14752127284263603,0.6115709151749033 l -15.1438787479568 3.515313545092778" fill="#ffbe11" stroke="none" /><path d="M 120.45610955862082 95.25157060432595 l 9.725636477618751 -2.2575894995880312 a30.984223316985585,30.984223316985585 0 0,0 0.11612534711567193,0.5205671612272164 l -9.763056211736462 2.089844168810851" fill="#ff730a" stroke="none" /><path d="M 120.53481517161879 95.60439243477599 l 9.767218390716186 -2.090735109647581 a30.988479783763772,30.988479783763772 0 0,0 0.10716215335337188,0.5225607176151773 l -9.801759839984555 1.9222987358689918" fill="#ff730a" stroke="none" /><path d="M 120.73433829027371 96.67025291283417 l 29.86903696914487 -4.796697027515591 a51.25173832753946,51.25173832753946 0 0,0 0.13238594072667467,0.8722579414148259 l -29.94717880331084 4.281839973708683" fill="#8fff24" stroke="none" /><path d="M 120.78858239683441 97.02765380044208 l 41.96792001716383 -6.000562481132078 a63.394729161265204,63.394729161265204 0 0,0 0.14515581984373788,1.0815794603933175 l -42.0649918360654 5.277264678674096" fill="#33ff53" stroke="none" /><path d="M 120.83666639777658 97.38593545837742 l 51.048548504637836 -6.404297021404222 a72.44870576378699,72.44870576378699 0 0,0 0.14458569923367456,1.2387219740356215 l -51.1512245568751 5.524631309043747" fill="#3effb9" stroke="none" /><path d="M 120.87857604477298 97.74499172005257 l 18.440494135696813 -1.991681179460937 a39.547738888858866,39.547738888858866 0 0,0 0.06727423361327346,0.677442351601635 l -18.472045494992315 1.6739632971548672" fill="#ffe415" stroke="none" /><path d="M 120.91429891909075 98.10471618934814 l 7.037007417142994 -0.6377037205380076 a28.065843150262644,28.065843150262644 0 0,0 0.03945992885964772,0.48151108042234775 l -7.046941829822137 0.5164787229078911" fill="#ff4b06" stroke="none" /><path d="M 120.96714384426684 98.82574320788733 l 12.928275093825977 -0.7240430528823432 a33.948534096339564,33.948534096339564 0 0,0 0.027654139245261302,0.5837351718389816 l -12.938822841304734 0.5013967744203618" fill="#ff9c0e" stroke="none" /><path d="M 120.98425023603335 99.18683210126433 l 11.8541530112833 -0.45936436074918213 a32.86305016557055,32.86305016557055 0 0,0 0.01703918720581887,0.5654476700709746 l -11.860303892944764 0.25524654325320845" fill="#ff8d0d" stroke="none" /><line stroke="#e1ed5e" stroke-width="0.3" x1="184.98032266829074" x2="189.97916517819016" y1="98.17113171792111" y2="98.06355123074" /><path d="M 185.9800911702706 98.14961562048488 a86.0,86.0 0 0,1 -9.607161424134198,41.387399972396054" fill="none" id="id76" stroke="none" /><text fill="#e1ed5e" style="font-size:6.75px; font-family:Arial;" text-anchor="middle"><textPath startOffset="21.466115282336823" xlink:href="#id76">April</textPath></text><path d="M 120.99513854157772 99.54816195383933 l 58.02898959174293 -1.2488464996735624 a79.04242629851336,79.04242629851336 0 0,0 0.01756621147303119,1.360522437230511 l -58.041888810333674 0.24978780438258888" fill="#47fffd" stroke="none" /><path d="M 120.99980553446 99.90962569577887 l 46.69941217510482 -0.20097456978519568 a67.69984462798595,67.69984462798595 0 0,0 -0.005015277704189648,1.1653739123857199 l -46.69595260011113 -0.6029088208042088" fill="#38ff85" stroke="none" /><path d="M 120.99824983174949 100.27111621757518 l 39.60817351334198 0.5113958674671235 a60.611474786938544,60.611474786938544 0 0,0 -0.022449154831526624,1.0431240127609651 l -39.59350229582545 -1.1931096960182035" fill="#30ff31" stroke="none" /><path d="M 120.9904718944345 100.63252640178507 l 14.930015549569564 0.44990074838042626 a35.93679266086874,35.93679266086874 0 0,0 -0.023954211877176033,0.618151770402184 l -14.920059204841184 -0.7068297657966165" fill="#ffb610" stroke="none" /><path d="M 120.9764740272857 100.99374915477107 l 4.691319932150254 0.2222487540694755 a25.696581439140143,25.696581439140143 0 0,0 -0.024734365742895534,0.44164871594647 l -4.686799215519829 -0.3029691863513688" fill="#ff2904" stroke="none" /><path d="M 120.95626037817324 101.35467743843564 l 28.96473753187674 1.8723701527163323 a50.02519233836861,50.02519233836861 0 0,0 -0.06294465405038606,0.8588297947570398 l -28.928216319162015 -2.3706730839701424" fill="#9dff22" stroke="none" /><path d="M 120.92983693683757 101.71520430193887 l 54.05546469840708 4.42985608888464 a75.23667475729833,75.23667475729833 0 0,0 -0.1168869947012968,1.2898382464926361 l -53.97120310742871 -5.3596757239258475" fill="#42ffd7" stroke="none" /><path d="M 120.89721153311464 102.0752229133903 l 39.930832824138825 3.9653797395934016 a61.12724319596975,61.12724319596975 0 0,0 -0.11299137602157291,1.0461598113178279 l -39.8566591466162 -4.652135872796021" fill="#30ff37" stroke="none" /><path d="M 120.8583938346157 102.4346265915055 l 52.93504873735667 6.178667365304501 a74.29442105171427,74.29442105171427 0 0,0 -0.1591969913669684,1.2689566565117485 l -52.82085023674285 -7.088941776103645" fill="#41ffcd" stroke="none" /><path d="M 120.81339534386255 102.79330883721812 l 57.711410709052885 7.745290515007579 a79.2288283515206,79.2288283515206 0 0,0 -0.1930389614023025,1.3501140464418366 l -57.56953769663398 -8.737550033429825" fill="#47ffff" stroke="none" /><path d="M 120.76222939487914 103.15116336523771 l 38.24715794911823 5.8049181839522275 a59.68516726482098,59.68516726482098 0 0,0 -0.1629070989653617,1.0144226607642768 l -38.14156909579158 -6.4624200744097084" fill="#37ff2e" stroke="none" /><path d="M 120.70491114924044 103.5080841355445 l 11.428897157882071 1.9364262187527692 a32.59178315644828,32.59178315644828 0 0,0 -0.09847926627554043,0.5523240240737556 l -11.393871449267342 -2.132868993559743" fill="#ff890c" stroke="none" /><path d="M 120.5718875245553 104.21870165774334 l 40.10615353498551 8.224617026599736 a61.94078500231847,61.94078500231847 0 0,0 -0.22318138282681077,1.0426291196587523 l -39.958638113434255 -8.913759965674657" fill="#31ff41" stroke="none" /><path d="M 120.49622156327973 104.57218783832717 l 49.67727795678779 11.08174233060341 a71.89830015116263,71.89830015116263 0 0,0 -0.27985363642434674,1.2056021412659417 l -49.479163754432896 -11.935213129217916" fill="#3effb3" stroke="none" /><line stroke="#e1ed5e" stroke-width="0.3" x1="174.80103733775053" x2="179.2010983576182" y1="140.37084112569926" y2="142.7455964860345" /><path d="M 175.68104954172406 140.8457921977663 a86.0,86.0 0 0,1 -30.038265399797805,32.042727171017184" fill="none" id="id77" stroke="none" /><text fill="#e1ed5e" style="font-size:6.75px; font-family:Arial;" text-anchor="middle"><textPath startOffset="22.206326154141568" xlink:href="#id77">May</textPath></text><line stroke="#e1ed5e" stroke-width="0.3" x1="143.8653032363475" x2="146.44561519142675" y1="172.8068346515853" y2="177.08958963109032" /><path d="M 144.38136562736335 173.6633856474863 a86.0,86.0 0 0,1 -40.68145358897372,12.25698825130547" fill="none" id="id78" stroke="none" /><text fill="#e1ed5e" style="font-size:6.75px; font-family:Arial;" text-anchor="middle"><textPath startOffset="21.466115282336833" xlink:href="#id78">June</textPath></text><line stroke="#e1ed5e" stroke-width="0.3" x1="102.19456741930631" x2="102.32365962044197" y1="184.97166512339345" y2="189.96999836594603" /><path d="M 102.22038585953345 185.97133177190398 a86.0,86.0 0 0,1 -42.740103519485714,-10.115201625700543" fill="none" id="id79" stroke="none" /><text fill="#e1ed5e" style="font-size:6.75px; font-family:Arial;" text-anchor="middle"><textPath startOffset="22.20632615414155" xlink:href="#id79">July</textPath></text><line stroke="#e1ed5e" stroke-width="0.3" x1="58.666819895761336" x2="56.23545636021788" y1="174.27360380694188" y2="178.64263932499728" /><path d="M 58.180547188652646 175.14741091055294 a86.0,86.0 0 0,1 -31.652253787137756,-30.449443065178592" fill="none" id="id80" stroke="none" /><text fill="#e1ed5e" style="font-size:6.75px; font-family:Arial;" text-anchor="middle"><textPath startOffset="22.20632615414155" xlink:href="#id80">August</textPath></text><line stroke="#e1ed5e" stroke-width="0.3" x1="26.63291911575756" x2="22.317208475507996" y1="142.92168965132927" y2="145.44649492493687" /><path d="M 25.769776987707644 143.4266507060508 a86.0,86.0 0 0,1 -11.730757126820373,-40.83630448921669" fill="none" id="id81" stroke="none" /><text fill="#e1ed5e" style="font-size:6.75px; font-family:Arial;" text-anchor="middle"><textPath startOffset="21.46611528233685" xlink:href="#id81">September</textPath></text><line stroke="#e1ed5e" stroke-width="0.3" x1="15.007084014347285" x2="10.007500721073583" y1="101.09737516637583" y2="101.16192664675087" /><path d="M 14.007167355692545 101.11028546245083 a86.0,86.0 0 0,1 10.666146001902534,-42.60595125391555" fill="none" id="id82" stroke="none" /><text fill="#e1ed5e" style="font-size:6.75px; font-family:Arial;" text-anchor="middle"><textPath startOffset="22.20632615414155" xlink:href="#id82">October</textPath></text><line stroke="#e1ed5e" stroke-width="0.3" x1="26.266209847984243" x2="21.928928074336255" y1="57.711370442889674" y2="55.22380399835377" /><path d="M 25.398753493254645 57.213857153982495 a86.0,86.0 0 0,1 29.58750427330803,-30.492523968695096" fill="none" id="id83" stroke="none" /><text fill="#e1ed5e" style="font-size:6.75px; font-family:Arial;" text-anchor="middle"><textPath startOffset="21.46611528233685" xlink:href="#id83">November</textPath></text><line stroke="#e1ed5e" stroke-width="0.3" x1="56.762969772571076" x2="54.21961505331055" y1="26.818313649435495" y2="22.513508569990535" /><path d="M 56.25429882871897 25.957352633546506 a86.0,86.0 0 0,1 42.265352541879196,-11.944610805530505" fill="none" id="id84" stroke="none" /><text fill="#e1ed5e" style="font-size:6.75px; font-family:Arial;" text-anchor="middle"><textPath startOffset="22.20632615414155" xlink:href="#id84">December</textPath></text></svg>