<?xml version="1.0" encoding="utf-8" ?>
<svg baseProfile="full" height="200mm" version="1.1" viewBox="0,0,200,200" width="200mm" xmlns="http://www.w3.org/2000/svg" xmlns:ev="http://www.w3.org/2001/xml-events" xmlns:xlink="http://www.w3.org/1999/xlink"><defs /><rect fill="#1a1a1a" height="200" width="200" x="0" y="0" /><text alignment-baseline="middle" fill="#e1ed5e" style="dominant-baseline: central; font-size:9.0px; font-family:Arial;" text-anchor="middle" x="100.0" y="100.0">2020</text><line stroke="#e1ed5e" stroke-width="0.3" x1="100.0" x2="100.0" y1="15.0" y2="10.0" /><path d="M 100.0 14.0 a86.0,86.0 0 0,1 42.35913384403234,11.155469271406648" fill="none" id="id13" stroke="none" /><text fill="#e1ed5e" style="font-size:6.75px; font-family:Arial;" text-anchor="middle"><textPath startOffset="22.145653131862478" xlink:href="#id13">January</textPath></text><path d="M 100.0 79.0 l 0.0 -61.57652803110852 a82.57652803110852,82.57652803110852 0 0,0 1.4175359101808456,0.01216784091629362 l -1.0570429853319907 61.56745458838667" fill="red" stroke="none" /><path d="M 101.80034050326958 79.07731436759882 l 3.1470563886319054 -36.57356559340018 a57.70871373567827,57.70871373567827 0 0,0 0.9862705979154397,0.09340085104426651 l -3.774426549932358 36.51415298685073" fill="red" stroke="none" /><line stroke="#e1ed5e" stroke-width="0.3" x1="143.13028292997686" x2="145.6673583964461" y1="26.7553504044142" y2="22.446841604673864" /><path d="M 143.63769802327073 25.89364864446614 a86.0,86.0 0 0,1 29.32050498858742,28.57503671076993" fill="none" id="id14" stroke="none" /><text fill="#e1ed5e" style="font-size:6.75px; font-family:Arial;" text-anchor="middle"><textPath startOffset="20.669276256404974" xlink:href="#id14">February</textPath></text><line stroke="#e1ed5e" stroke-width="0.3" x1="172.87174338648825" x2="177.1583165268699" y1="56.24261187166439" y2="53.66864786411523" /><path d="M 173.72905801456457 55.72781907015455 a86.0,86.0 0 0,1 12.242430191666344,42.057860355516425" fill="none" id="id15" stroke="none" /><text fill="#e1ed5e" style="font-size:6.75px; font-family:Arial;" text-anchor="middle"><textPath startOffset="22.145653131862474" xlink:href="#id15">March</textPath></text><line stroke="#e1ed5e" stroke-width="0.3" x1="184.99686870605535" x2="189.99668451229388" y1="99.2704041080226" y2="99.22748670261217" /><path d="M 185.99683186730306 99.26182062694052 a86.0,86.0 0 0,1 -10.086455211305974,41.156179273409016" fill="none" id="id16" stroke="none" /><text fill="#e1ed5e" style="font-size:6.75px; font-family:Arial;" text-anchor="middle"><textPath startOffset="21.40746469413373" xlink:href="#id16">April</textPath></text><path d="M 120.65975698304385 103.76489593502545 l 14.966823465330041 2.72745380650468 a36.21331025480552,36.21331025480552 0 0,0 -0.11669947493710449,0.6106209653752096 l -14.917797698110778 -2.9839773369132043" fill="red" stroke="none" /><path d="M 119.31412917781788 108.2440532568976 l 29.910722279359575 12.767108739570595 a53.521537061476614,53.521537061476614 0 0,0 -0.3679379301928799,0.8419139893001716 l -29.687150467149728 -13.278684798646612" fill="red" stroke="none" /><line stroke="#e1ed5e" stroke-width="0.3" x1="174.33088141563837" x2="178.70328620479359" y1="141.23008692659167" y2="143.65538615756765" /><path d="M 175.20536237346943 141.71514677278685 a86.0,86.0 0 0,1 -30.301960400862466,31.631185727798858" fill="none" id="id17" stroke="none" /><text fill="#e1ed5e" style="font-size:6.75px; font-family:Arial;" text-anchor="middle"><textPath startOffset="22.145653131862474" xlink:href="#id17">May</textPath></text><line stroke="#e1ed5e" stroke-width="0.3" x1="143.1302829299769" x2="145.66735839644613" y1="173.24464959558577" y2="177.55315839532614" /><path d="M 143.63769802327073 174.10635135553383 a86.0,86.0 0 0,1 -40.68552437913181,11.842963189579606" fill="none" id="id18" stroke="none" /><text fill="#e1ed5e" style="font-size:6.75px; font-family:Arial;" text-anchor="middle"><textPath startOffset="21.407464694133747" xlink:href="#id18">June</textPath></text><line stroke="#e1ed5e" stroke-width="0.3" x1="101.45913802915013" x2="101.54496967792366" y1="184.9874750549273" y2="189.98673829345242" /><path d="M 101.47630435890484 185.9873277026323 a86.0,86.0 0 0,1 -42.54439059252881,-10.42667462771756" fill="none" id="id19" stroke="none" /><text fill="#e1ed5e" style="font-size:6.75px; font-family:Arial;" text-anchor="middle"><textPath startOffset="22.145653131862474" xlink:href="#id19">July</textPath></text><line stroke="#e1ed5e" stroke-width="0.3" x1="58.13341422392154" x2="55.67067388415222" y1="173.97424548756322" y2="178.32567169271397" /><path d="M 57.64086615596768 174.84453072859336 a86.0,86.0 0 0,1 -31.369924170532247,-30.572349798747897" fill="none" id="id20" stroke="none" /><text fill="#e1ed5e" style="font-size:6.75px; font-family:Arial;" text-anchor="middle"><textPath startOffset="22.145653131862474" xlink:href="#id20">August</textPath></text><line stroke="#e1ed5e" stroke-width="0.3" x1="26.387840678322732" x2="22.057713659400548" y1="142.50000000000003" y2="145.00000000000006" /><path d="M 25.521815274538298 143.00000000000003 a86.0,86.0 0 0,1 -11.493303480769221,-40.785679425670985" fill="none" id="id21" stroke="none" /><text fill="#e1ed5e" style="font-size:6.75px; font-family:Arial;" text-anchor="middle"><textPath startOffset="21.40746469413373" xlink:href="#id21">September</textPath></text><line stroke="#e1ed5e" stroke-width="0.3" x1="15.003131293944662" x2="10.003315487706104" y1="100.72959589197737" y2="100.7725132973878" /><path d="M 14.003168132696942 100.73817937305945 a86.0,86.0 0 0,1 10.791469493833604,-42.45332614584628" fill="none" id="id22" stroke="none" /><text fill="#e1ed5e" style="font-size:6.75px; font-family:Arial;" text-anchor="middle"><textPath startOffset="22.145653131862435" xlink:href="#id22">October</textPath></text><path d="M 80.05021161711548 93.44210830539832 l -38.58080646506808 -12.68227739725641 a61.611806011011126,61.611806011011126 0 0,0 0.3389077046441514,-1.0019204088277658 l 38.357413338851565 13.342699480558338" fill="red" stroke="none" /><path d="M 80.68587082218212 91.75594674310238 l -15.331719303891964 -6.544199290447675 a37.669977839410265,37.669977839410265 0 0,0 0.2589651650086739,-0.592562976717131 l 15.217120256866313 6.8064243369406725" fill="red" stroke="none" /><path d="M 81.29705330413844 90.45014215332179 l -27.465276000532793 -14.023965623711497 a51.8384986275351,51.8384986275351 0 0,0 0.4114790208411311,-0.789065278005453 l 27.22048891071672 14.493377144821435" fill="red" stroke="none" /><line stroke="#e1ed5e" stroke-width="0.3" x1="26.387840678322718" x2="22.05771365940052" y1="57.49999999999999" y2="54.99999999999999" /><path d="M 25.521815274538284 56.99999999999999 a86.0,86.0 0 0,1 29.574782752854787,-30.34633250058573" fill="none" id="id23" stroke="none" /><text fill="#e1ed5e" style="font-size:6.75px; font-family:Arial;" text-anchor="middle"><textPath startOffset="21.40746469413373" xlink:href="#id23">November</textPath></text><path d="M 81.99639281039701 89.18935116829357 l -52.60200245786596 -31.585991097658876 a82.35670701886406,82.35670701886406 0 0,0 0.7381986001386478,-1.205791935547906 l 52.05203589327192 32.484320149331325" fill="red" stroke="none" /><path d="M 82.37810715431573 88.57770195909679 l -51.62014155570038 -33.459552099547885 a82.51569426522718,82.51569426522718 0 0,0 0.7806596121899806,-1.1820181518001183 l 51.03815750458967 34.340750129687066" fill="red" stroke="none" /><path d="M 82.78059297857968 87.97951657250589 l -26.724748964425412 -18.655950325769055 a53.59227960375156,53.59227960375156 0 0,0 0.5330770497420866,-0.7498396295301473 l 26.400556816153355 19.111967182008723" fill="red" stroke="none" /><path d="M 83.42222388311158 87.10902102172516 l -49.074711087778816 -38.16079216759317 a83.16569252575894,83.16569252575894 0 0,0 0.8860455827121165,-1.1194896489312274 l 48.41239907442514 38.99760176043908" fill="red" stroke="none" /><path d="M 83.8745106332314 86.54754324733833 l -47.63064999593353 -39.735182269377596 a83.02873147998258,83.02873147998258 0 0,0 0.922431163780377,-1.086621591513114 l 46.94152426864604 40.546970643340266" fill="red" stroke="none" /><path d="M 85.08716467003674 85.21462403516908 l -44.73850598988975 -44.35612789449276 a84.0,84.0 0 0,0 1.024032319480094,-1.0152799590853063 l 43.97048175027968 45.11758786380673" fill="red" stroke="none" /><path d="M 85.86807049272753 84.46653392183569 l -41.68760559402067 -45.821981141455126 a82.94764253698838,82.94764253698838 0 0,0 1.0614729758209738,-0.9491756803462889 l 40.894867591376304 46.530852351684814" fill="red" stroke="none" /><line stroke="#e1ed5e" stroke-width="0.3" x1="56.869717070023135" x2="54.33264160355391" y1="26.7553504044142" y2="22.446841604673864" /><path d="M 56.362301976729285 25.89364864446614 a86.0,86.0 0 0,1 42.16139366436587,-11.88097634709845" fill="none" id="id24" stroke="none" /><text fill="#e1ed5e" style="font-size:6.75px; font-family:Arial;" text-anchor="middle"><textPath startOffset="22.145653131862474" xlink:href="#id24">December</textPath></text></svg>