<?xml version="1.0" encoding="utf-8" ?>
<svg baseProfile="full" height="200mm" version="1.1" viewBox="0,0,200,200" width="200mm" xmlns="http://www.w3.org/2000/svg" xmlns:ev="http://www.w3.org/2001/xml-events" xmlns:xlink="http://www.w3.org/1999/xlink"><defs /><rect fill="#1a1a1a" height="200" width="200" x="0" y="0" /><text alignment-baseline="middle" fill="#e1ed5e" style="dominant-baseline: central; font-size:9.0px; font-family:Arial;" text-anchor="middle" x="100.0" y="100.0">2022</text><line stroke="#e1ed5e" stroke-width="0.3" x1="100.0" x2="100.0" y1="15.0" y2="10.0" /><path d="M 100.0 14.0 a86.0,86.0 0 0,1 42.46469731375804,11.215312516191453" fill="none" id="id37" stroke="none" /><text fill="#e1ed5e" style="font-size:6.75px; font-family:Arial;" text-anchor="middle"><textPath startOffset="22.20632615414155" xlink:href="#id37">January</textPath></text><line stroke="#e1ed5e" stroke-width="0.3" x1="143.23703022742887" x2="145.7803849466894" y1="26.81831364943548" y2="22.513508569990506" /><path d="M 143.74570117128098 25.957352633546492 a86.0,86.0 0 0,1 28.547481713284135,27.462654790039103" fill="none" id="id38" stroke="none" /><text fill="#e1ed5e" style="font-size:6.75px; font-family:Arial;" text-anchor="middle"><textPath startOffset="19.985693538727396" xlink:href="#id38">February</textPath></text><line stroke="#e1ed5e" stroke-width="0.3" x1="172.23445277983987" x2="176.4835382374775" y1="55.19839476539836" y2="52.563006222186495" /><path d="M 173.08426987136738 54.67131705675599 a86.0,86.0 0 0,1 12.851231095245387,41.99856678651699" fill="none" id="id39" stroke="none" /><text fill="#e1ed5e" style="font-size:6.75px; font-family:Arial;" text-anchor="middle"><textPath startOffset="22.20632615414155" xlink:href="#id39">March</textPath></text><line stroke="#e1ed5e" stroke-width="0.3" x1="184.98032266829074" x2="189.97916517819016" y1="98.17113171792111" y2="98.06355123074" /><path d="M 185.9800911702706 98.14961562048488 a86.0,86.0 0 0,1 -9.607161424134198,41.387399972396054" fill="none" id="id40" stroke="none" /><text fill="#e1ed5e" style="font-size:6.75px; font-family:Arial;" text-anchor="middle"><textPath startOffset="21.466115282336823" xlink:href="#id40">April</textPath></text><line stroke="#e1ed5e" stroke-width="0.3" x1="174.80103733775053" x2="179.2010983576182" y1="140.37084112569926" y2="142.7455964860345" /><path d="M 175.68104954172406 140.8457921977663 a86.0,86.0 0 0,1 -30.038265399797805,32.042727171017184" fill="none" id="id41" stroke="none" /><text fill="#e1ed5e" style="font-size:6.75px; font-family:Arial;" text-anchor="middle"><textPath startOffset="22.206326154141568" xlink:href="#id41">May</textPath></text><line stroke="#e1ed5e" stroke-width="0.3" x1="143.8653032363475" x2="146.44561519142675" y1="172.8068346515853" y2="177.08958963109032" /><path d="M 144.38136562736335 173.6633856474863 a86.0,86.0 0 0,1 -40.68145358897372,12.25698825130547" fill="none" id="id42" stroke="none" /><text fill="#e1ed5e" style="font-size:6.75px; font-family:Arial;" text-anchor="middle"><textPath startOffset="21.466115282336833" xlink:href="#id42">June</textPath></text><line stroke="#e1ed5e" stroke-width="0.3" x1="102.19456741930631" x2="102.32365962044197" y1="184.97166512339345" y2="189.96999836594603" /><path d="M 102.22038585953345 185.97133177190398 a86.0,86.0 0 0,1 -42.740103519485714,-10.115201625700543" fill="none" id="id43" stroke="none" /><text fill="#e1ed5e" style="font-size:6.75px; font-family:Arial;" text-anchor="middle"><textPath startOffset="22.20632615414155" xlink:href="#id43">July</textPath></text><line stroke="#e1ed5e" stroke-width="0.3" x1="58.666819895761336" x2="56.23545636021788" y1="174.27360380694188" y2="178.64263932499728" /><path d="M 58.180547188652646 175.14741091055294 a86.0,86.0 0 0,1 -31.652253787137756,-30.449443065178592" fill="none" id="id44" stroke="none" /><text fill="#e1ed5e" style="font-size:6.75px; font-family:Arial;" text-anchor="middle"><textPath startOffset="22.20632615414155" xlink:href="#id44">August</textPath></text><line stroke="#e1ed5e" stroke-width="0.3" x1="26.63291911575756" x2="22.317208475507996" y1="142.92168965132927" y2="145.44649492493687" /><path d="M 25.769776987707644 143.4266507060508 a86.0,86.0 0 0,1 -11.730757126820373,-40.83630448921669" fill="none" id="id45" stroke="none" /><text fill="#e1ed5e" style="font-size:6.75px; font-family:Arial;" text-anchor="middle"><textPath startOffset="21.46611528233685" xlink:href="#id45">September</textPath></text><path d="M 79.35854240842038 103.8639653848113 l -9.439809828116177 1.7670795898600615 a30.603779457479163,30.603779457479163 0 0,0 -0.09247231830685267,-0.5186338697910903 l 9.468828588762218 -1.6043269693357576" fill="#ff5808" stroke="none" /><line stroke="#e1ed5e" stroke-width="0.3" x1="15.007084014347285" x2="10.007500721073583" y1="101.09737516637583" y2="101.16192664675087" /><path d="M 14.007167355692545 101.11028546245083 a86.0,86.0 0 0,1 10.666146001902534,-42.60595125391555" fill="none" id="id46" stroke="none" /><text fill="#e1ed5e" style="font-size:6.75px; font-family:Arial;" text-anchor="middle"><textPath startOffset="22.20632615414155" xlink:href="#id46">October</textPath></text><path d="M 79.21141760316559 97.0276538004421 l -15.359632210598182 -2.1961162890419432 a36.51583798574349,36.51583798574349 0 0,0 0.09432233365961169,-0.6214663289452993 l 15.319553983499267 2.4601817303793343" fill="#ffab0f" stroke="none" /><path d="M 79.26566170972629 96.67025291283419 l -19.418625690279725 -3.118455550583116 a40.66742964192714,40.66742964192714 0 0,0 0.11694430346825159,-0.6902118989070949 l 19.36206952529125 3.4522532378060387" fill="#ffe215" stroke="none" /><path d="M 79.32604984820605 96.31383870115002 l -9.979276629903728 -1.7793030859406056 a31.13666027485288,31.13666027485288 0 0,0 0.09862059133554325,-0.5268351423931174 l 9.947170314658322 1.9508163057962955" fill="#ff6008" stroke="none" /><path d="M 79.46518482838121 95.60439243477599 l -17.1503823641658 -3.671148234662624 a38.53889804400367,38.53889804400367 0 0,0 0.14443940927710874,-0.6474935500672796 l 17.084648567886656 3.965819954279863" fill="#ffc612" stroke="none" /><path d="M 79.54389044137918 95.25157060432595 l -5.664595091665729 -1.3149093560911667 a26.81520628759286,26.81520628759286 0 0,0 0.10824047368703998,-0.4487266431219015 l 5.641121817717874 1.4122212308724649" fill="#ff2003" stroke="none" /><path d="M 79.71946130924805 94.55025226153421 l -36.118877567184086 -9.705796001732626 a58.40021113229821,58.40021113229821 0 0,0 0.26923395425353136,-0.968577781682224 l 35.94645684236419 10.326085086833793" fill="#4cff2c" stroke="none" /><path d="M 79.91906864156998 93.8553929516997 l -31.646048599709577 -9.68344195823357 a54.0944321621275,54.0944321621275 0 0,0 0.28011775506210806,-0.8880498326262413 l 31.474675360879267 10.226741957286226" fill="#7aff26" stroke="none" /><path d="M 80.02781315780177 93.51064311812611 l -25.845957368073673 -8.397860616883138 a48.17604782180217,48.17604782180217 0 0,0 0.2630474294584927,-0.7864783327721075 l 25.697572644843408 8.841512052577569" fill="#beff1e" stroke="none" /><path d="M 80.14247586403 93.16781622104843 l -10.435475301087335 -3.5904317471577847 a32.03586629542975,32.03586629542975 0 0,0 0.18389642788109123,-0.5198999653791518 l 10.372125792396435 3.769529338963548" fill="#ff6c0a" stroke="none" /><path d="M 80.2630227832202 92.82701384747504 l -15.84957237921583 -5.760191236523408 a37.86382956760778,37.86382956760778 0 0,0 0.22789591995723932,-0.6106477627625272 l 15.748071870756965 6.032162136315277" fill="#ffbd11" stroke="none" /><path d="M 80.52162464483688 92.15188598940014 l -11.896606783541868 -4.793311797011023 a33.825953802566865,33.825953802566865 0 0,0 0.22224990691159588,-0.5381957782909096 l 11.812335189744072 4.997382145755243" fill="#ff860c" stroke="none" /><path d="M 80.65960295795068 91.81776055985345 l -32.295333704366065 -13.663015945021053 a56.06660211355332,56.06660211355332 0 0,0 0.3836805519653145,-0.8855876133899246 l 32.05536244255807 14.216902702997576" fill="#65ff29" stroke="none" /><path d="M 80.803312248108 91.48605970444005 l -17.494599758641073 -7.759045714806051 a40.13802004177795,40.13802004177795 0 0,0 0.2855489140914372,-0.6291691812575791 l 17.358448527586283 8.059036904905701" fill="#ffdb14" stroke="none" /><path d="M 80.95270993114464 91.15688171328213 l -5.192175077866178 -2.4105800989504456 a26.72447189290598,26.72447189290598 0 0,0 0.1973052567095947,-0.4155751897442796 l 5.1499116273148315 2.4995977043352573" fill="#ff1f03" stroke="none" /><path d="M 81.10775173730289 90.83032412892265 l -56.676744788091334 -27.50902761323202 a84.0,84.0 0 0,0 0.6425599481863489,-1.295361646004154 l 56.19482482695157 28.480548847735136" fill="#4dd2ff" stroke="none" /><path d="M 81.6062741919709 89.86733742301443 l -35.55338553243916 -19.585507733970477 a61.591074585623765,61.591074585623765 0 0,0 0.5195422965443439,-0.9242077734650788 l 35.210985594602384 20.19459901737034" fill="#30ff35" stroke="none" /><line stroke="#e1ed5e" stroke-width="0.3" x1="26.266209847984243" x2="21.928928074336255" y1="57.711370442889674" y2="55.22380399835377" /><path d="M 25.398753493254645 57.213857153982495 a86.0,86.0 0 0,1 29.58750427330803,-30.492523968695096" fill="none" id="id47" stroke="none" /><text fill="#e1ed5e" style="font-size:6.75px; font-family:Arial;" text-anchor="middle"><textPath startOffset="21.46611528233685" xlink:href="#id47">November</textPath></text><path d="M 81.78341655067845 89.55222093294921 l -24.398302863139342 -13.99318805495145 a49.12625987476311,49.12625987476311 0 0,0 0.4270249271235557,-0.7299240226180481 l 24.15381826154546 14.41109148992339" fill="#b3ff20" stroke="none" /><path d="M 81.96595687620814 89.24020034530311 l -21.879275376566454 -13.0540122381774 a46.477635811003196,46.477635811003196 0 0,0 0.4158292143759177,-0.6835138935039399 l 21.65133036390432 13.428693904888416" fill="#d3ff1c" stroke="none" /><path d="M 82.34701348167596 88.62581576622439 l -16.18930271993181 -10.431102497117353 a40.25880115331584,40.25880115331584 0 0,0 0.3803562669178239,-0.5793086892593863 l 16.007349817656067 10.708229250354407" fill="#ffdd14" stroke="none" /><path d="M 82.95767976084542 87.72973835380427 l -14.062268832927955 -10.124661166895729 a38.327901444606134,38.327901444606134 0 0,0 0.39010026298119294,-0.5320963203028586 l 13.88590595743313 10.365219930870088" fill="#ffc312" stroke="none" /><path d="M 83.17141714833178 87.43820079747576 l -13.666862989006582 -10.201713959490784 a38.054562781600325,38.054562781600325 0 0,0 0.39635468878991204,-0.5215563102731353 l 13.489232359992561 10.435455045644945" fill="#ffbf11" stroke="none" /><path d="M 84.07557802195018 86.31012108654704 l -24.510678615184613 -21.07129682891832 a53.322947208279935,53.322947208279935 0 0,0 0.6043473949323684,-0.6908735444183177 l 24.1443393566744 21.490085929539582" fill="#83ff25" stroke="none" /><path d="M 86.37877921826538 84.01681056812374 l -16.97113919816815 -19.91399574425802 a47.1646095362787,47.1646095362787 0 0,0 0.6224436216783862,-0.5212786326353831 l 16.625838039530652 20.20317553428722" fill="#cbff1d" stroke="none" /><path d="M 86.65592168130627 83.78471172551755 l -36.82683656054498 -44.75076935286927 a78.95556270739502,78.95556270739502 0 0,0 1.0568638257845813,-0.8545770471652471 l 36.0510693361959 45.37805249729865" fill="#46fffb" stroke="none" /><path d="M 87.22198572758235 83.33499621200491 l -23.96539821903221 -31.255517765626784 a60.38588202128021,60.38588202128021 0 0,0 0.8303169377303214,-0.6253775032231016 l 23.423835127543498 31.66341185835574" fill="#37ff2e" stroke="none" /><path d="M 87.51073957382395 83.11751280151077 l -2.1969597367599447 -2.9697630897110128 a24.69406617346715,24.69406617346715 0 0,0 0.3438997767000055,-0.24985781314410185 l 2.1455146437061576 3.0071401376717826" fill="#ff0000" stroke="none" /><path d="M 88.09926311788651 82.69761687909137 l -9.283432848530293 -13.497106390438342 a37.38151416591222,37.38151416591222 0 0,0 0.5333012457182259,-0.3600873817144158 l 9.049726908405527 13.654905684451423" fill="#ffb610" stroke="none" /><line stroke="#e1ed5e" stroke-width="0.3" x1="56.762969772571076" x2="54.21961505331055" y1="26.818313649435495" y2="22.513508569990535" /><path d="M 56.25429882871897 25.957352633546506 a86.0,86.0 0 0,1 42.265352541879196,-11.944610805530505" fill="none" id="id48" stroke="none" /><text fill="#e1ed5e" style="font-size:6.75px; font-family:Arial;" text-anchor="middle"><textPath startOffset="22.20632615414155" xlink:href="#id48">December</textPath></text><path d="M 94.98787191387505 79.60689891045804 l -4.2278900349653865 -17.202231746071703 a38.71417035012695,38.71417035012695 0 0,0 0.6485108622891448,-0.1534815685582265 l 3.9311554857137074 17.2724592267708" fill="#ffc812" stroke="none" /></svg>