<?xml version="1.0" encoding="utf-8" ?>
<svg baseProfile="full" height="200mm" version="1.1" viewBox="0,0,200,200" width="200mm" xmlns="http://www.w3.org/2000/svg" xmlns:ev="http://www.w3.org/2001/xml-events" xmlns:xlink="http://www.w3.org/1999/xlink"><defs /><rect fill="#1a1a1a" height="200" width="200" x="0" y="0" /><text alignment-baseline="middle" fill="#e1ed5e" style="dominant-baseline: central; font-size:9.0px; font-family:Arial;" text-anchor="middle" x="100.0" y="100.0">2025</text><line stroke="#e1ed5e" stroke-width="0.3" x1="100.0" x2="100.0" y1="15.0" y2="10.0" /><path d="M 100.0 14.0 a86.0,86.0 0 0,1 42.46469731375804,11.215312516191453" fill="none" id="id73" stroke="none" /><text fill="#e1ed5e" style="font-size:6.75px; font-family:Arial;" text-anchor="middle"><textPath startOffset="22.20632615414155" xlink:href="#id73">January</textPath></text><path d="M 100.0 79.0 l 0.0 -34.986907426777286 a55.986907426777286,55.986907426777286 0 0,0 0.9637225776008634,0.008295064483486936 l -0.6022420983283351 34.98172373890236" fill="#5cff2a" stroke="none" /><path d="M 100.36148047927253 79.00311137660856 l 0.032400367746341724 -1.8820018007499726 a22.882280680944326,22.882280680944326 0 0,0 0.39376413162325347,0.010169765802481988 l -0.06479113456446299 1.8811652428051309" fill="#ff0000" stroke="none" /><path d="M 101.44485096284872 79.0497635885617 l 0.8421290839915554 -12.210811946850155 a33.23981657523686,33.23981657523686 0 0,0 0.5704740951196013,0.04427976921884677 l -1.0521933684734979 12.194506915442844" fill="#ff930d" stroke="none" /><path d="M 102.16513564639614 79.11191278185805 l 0.19254929055724923 -1.8576140398620165 a22.867566638807457,22.867566638807457 0 0,0 0.39118054030332544,0.04395369161061717 l -0.22449653437029995 1.8540243947807986" fill="#ff0000" stroke="none" /><path d="M 105.01212808612495 79.60689891045804 l 2.3845044115298957 -9.701954674183808 a30.99068495091916,30.99068495091916 0 0,0 0.5169410224699877,0.1317797767996018 l -2.5511543226849085 9.659471901215339" fill="#ff740a" stroke="none" /><path d="M 105.36241919743992 79.69619591428918 l 2.861618201964024 -10.834985703564538 a32.206505875171786,32.206505875171786 0 0,0 0.5347845990191123,0.1461768325171867 l -3.0477006902068475 10.784122330221058" fill="#ff850c" stroke="none" /><path d="M 106.0581310904928 79.89281104454417 l 2.3367494600798255 -7.755768608097663 a29.100144735838768,29.100144735838768 0 0,0 0.4783712199546064,0.14863226663167597 l -2.4699060527451504 7.714396206583466" fill="#ff5a08" stroke="none" /><path d="M 107.4271985657038 80.35727306442388 l 14.377551941729104 -38.024340442106556 a61.65174616045833,61.65174616045833 0 0,0 0.9894131601543618,0.38387693468418543 l -15.029948266883133 37.771220803531826" fill="#31ff3e" stroke="none" /><path d="M 107.76421540070413 80.48803036053334 l 15.042724470228627 -37.80332821927435 a61.68630216597964,61.68630216597964 0 0,0 0.9832095409713417,0.4010758586835625 l -15.691217880788356 37.53879147440721" fill="#31ff3e" stroke="none" /><path d="M 109.08828744355905 81.06846463323043 l 3.893879745862443 -8.111222557665302 a29.99745691043954,29.99745691043954 0 0,0 0.4635731754311481,0.22747334390786772 l -4.032924188304023 8.042994053622602" fill="#ff6609" stroke="none" /><path d="M 110.05341064243156 81.56283822128135 l 29.42007790189868 -53.95410126096462 a82.4539341835184,82.4539341835184 0 0,0 1.2402481699911114,0.6901967638118511 l -30.344450160961827 53.43968909959259" fill="#4be0ff" stroke="none" /><line stroke="#e1ed5e" stroke-width="0.3" x1="143.23703022742887" x2="145.7803849466894" y1="26.81831364943548" y2="22.513508569990506" /><path d="M 143.74570117128098 25.957352633546492 a86.0,86.0 0 0,1 28.547481713284135,27.462654790039103" fill="none" id="id74" stroke="none" /><text fill="#e1ed5e" style="font-size:6.75px; font-family:Arial;" text-anchor="middle"><textPath startOffset="19.985693538727396" xlink:href="#id74">February</textPath></text><path d="M 113.89432698308785 84.25364557470407 l 2.4799994084902286 -2.8105679179815035 a24.748291489158596,24.748291489158596 0 0,0 0.31700088030263507,0.2846065202808648 l -2.528011276388854 2.767462388931341" fill="#ff1c02" stroke="none" /><path d="M 114.16331599549186 84.49514656593476 l 2.5597800220334763 -2.8022402435778626 a24.795395123558155,24.795395123558155 0 0,0 0.31264881651951903,0.29057300125594687 l -2.607636722347842 2.7577626562472752" fill="#ff1c02" stroke="none" /><path d="M 114.42810811169701 84.74124197986012 l 1.4645324422846022 -1.5488479831495254 a23.131615666439533,23.131615666439533 0 0,0 0.28696064206785704,0.27605591031065974 l -1.4909763279648776 1.5234089860765638" fill="#ff0400" stroke="none" /><path d="M 115.68641384162765 86.03803664274999 l 1.6467125839273928 -1.4656849544351378 a23.204516890323674,23.204516890323674 0 0,0 0.26299351531629916,0.30064705103252476 l -1.6716979628215403 1.4371223471996653" fill="#ff0500" stroke="none" /><path d="M 116.15771136456269 86.58626213691792 l 2.044622997906621 -1.6973961413186003 a23.65737405423699,23.65737405423699 0 0,0 0.2574164592812187,0.3155621418140173 l -2.0735379492642485 1.661949829896482" fill="#ff0c01" stroke="none" /><path d="M 116.38621287248628 86.86637796730983 l 3.2117934006136815 -2.574266604431606 a25.116122617089708,25.116122617089708 0 0,0 0.2674818254577982,0.3396747551267427 l -3.2556293066654436 2.5185994553518247" fill="#ff2103" stroke="none" /><path d="M 117.2510076193507 88.02491185347247 l 1.8655885186589913 -1.2950308439393066 a23.271018583743075,23.271018583743075 0 0,0 0.22559095441039675,0.3310268891355637 l -1.8876039387381214 1.2627259315333363" fill="#ff0601" stroke="none" /><path d="M 117.45458315368197 88.32363383020206 l 19.177980251555688 -12.829244780164283 a44.07345765502935,44.07345765502935 0 0,0 0.41639629953180207,0.6342001314949892 l -19.395973186445417 12.49722658469162" fill="#e2ff1b" stroke="none" /><line stroke="#e1ed5e" stroke-width="0.3" x1="172.23445277983987" x2="176.4835382374775" y1="55.19839476539836" y2="52.563006222186495" /><path d="M 173.08426987136738 54.67131705675599 a86.0,86.0 0 0,1 12.851231095245387,41.99856678651699" fill="none" id="id75" stroke="none" /><text fill="#e1ed5e" style="font-size:6.75px; font-family:Arial;" text-anchor="middle"><textPath startOffset="22.20632615414155" xlink:href="#id75">March</textPath></text><path d="M 117.84615892207809 88.93136811851018 l 13.807530164919283 -8.563773821322762 a37.247649409004644,37.247649409004644 0 0,0 0.3332497559488305,0.547774976656421 l -13.952895719154338 8.32483107145926" fill="#ffc712" stroke="none" /><path d="M 119.196687751892 91.48605970444005 l 7.950703857322482 -3.5262238373518433 a29.69758278937033,29.69758278937033 0 0,0 0.20322945438326817,0.46908160071163435 l -8.010224021548431 3.388843092053606" fill="#ff6209" stroke="none" /><path d="M 119.7369772167798 92.82701384747503 l 3.7846993443676675 -1.3754687807786243 a25.0268925357096,25.0268925357096 0 0,0 0.14366260914684598,0.4061535418731369 l -3.807815034324323 1.310117612478873" fill="#ff2003" stroke="none" /><path d="M 120.28053869075195 94.5502522615342 l 11.989705376737504 -3.2218507978558897 a33.415045613472905,33.415045613472905 0 0,0 0.14448612916307102,0.5567639952667798 l -12.043387837770878 3.0149903770402595" fill="#ff950d" stroke="none" /><path d="M 120.37134235888165 94.90015583598534 l 14.711022907648768 -3.6828169199929466 a36.16500364179162,36.16500364179162 0 0,0 0.1459812422510449,0.6051864941341398 l -14.772236950160632 3.429045194199401" fill="#ffb911" stroke="none" /><path d="M 120.45610955862082 95.25157060432595 l 9.486962285530295 -2.202186611445796 a30.73920321580289,30.73920321580289 0 0,0 0.11520703962708113,0.5164505688178672 l -9.523463712159414 2.0385578730779645" fill="#ff710a" stroke="none" /><path d="M 120.53481517161879 95.60439243477599 l 9.527523748240046 -2.039426949578628 a30.74335522579084,30.74335522579084 0 0,0 0.10631448106820429,0.5184271665080156 l -9.561217525223247 1.8751241269072005" fill="#ff710a" stroke="none" /><path d="M 120.73433829027371 96.67025291283417 l 29.13602907979217 -4.678982594082881 a50.50933866853382,50.50933866853382 0 0,0 0.13046828328792567,0.8596229748868055 l -29.212253256519393 4.176760506803993" fill="#97ff23" stroke="none" /><path d="M 120.78858239683441 97.02765380044208 l 40.93799673895159 -5.853304313961597 a62.35433167626159,62.35433167626159 0 0,0 0.1427736068128265,1.0638292063057533 l -41.03268634482225 5.147756765591179" fill="#32ff46" stroke="none" /><path d="M 120.83666639777658 97.38593545837742 l 49.7957799994946 -6.247130915001237 a71.18611710849157,71.18611710849157 0 0,0 0.14206595424105056,1.2171343377211536 l -49.89593630673924 5.389052838955231" fill="#3dffac" stroke="none" /><path d="M 120.87857604477298 97.74499172005257 l 17.987950998836016 -1.9428038748753131 a39.09256388776218,39.09256388776218 0 0,0 0.06649994031057022,0.6696453237108677 l -18.018728064828814 1.6328830204600104" fill="#ffdf14" stroke="none" /><path d="M 120.91429891909075 98.10471618934814 l 6.864314137492639 -0.6220540074686908 a27.89244222075087,27.89244222075087 0 0,0 0.039216131147742264,0.4785361308201416 l -6.874004752459876 0.5038039594407804" fill="#ff4906" stroke="none" /><path d="M 120.96714384426684 98.82574320788733 l 12.6110058209905 -0.7062745098073847 a33.63076765284913,33.63076765284913 0 0,0 0.027395289851328164,0.578271270246967 l -12.621294719075324 0.4890921329374179" fill="#ff980e" stroke="none" /><path d="M 120.98425023603335 99.18683210126433 l 11.563243475504134 -0.4480912252656229 a32.571922287154756,32.571922287154756 0 0,0 0.01688824009664406,0.5604384703858102 l -11.569243410056423 0.2489826074548136" fill="#ff8a0c" stroke="none" /><line stroke="#e1ed5e" stroke-width="0.3" x1="184.98032266829074" x2="189.97916517819016" y1="98.17113171792111" y2="98.06355123074" /><path d="M 185.9800911702706 98.14961562048488 a86.0,86.0 0 0,1 -9.607161424134198,41.387399972396054" fill="none" id="id76" stroke="none" /><text fill="#e1ed5e" style="font-size:6.75px; font-family:Arial;" text-anchor="middle"><textPath startOffset="21.466115282336823" xlink:href="#id76">April</textPath></text><path d="M 120.99513854157772 99.54816195383933 l 56.60491598582608 -1.2181988983532765 a77.61802294604058,77.61802294604058 0 0,0 0.017249655267912497,1.3360048102868902 l -56.61749864821171 0.24365783000592353" fill="#45ffef" stroke="none" /><path d="M 120.99980553446 99.90962569577887 l 45.553374638379196 -0.1960425076847673 a66.55379647855213,66.55379647855213 0 0,0 -0.004930377217883255,1.1456460293598847 l -45.54999996387181 -0.5881129998788022" fill="#37ff78" stroke="none" /><path d="M 120.99824983174949 100.27111621757518 l 38.63616013044912 0.4988458409690143 a59.639380388390784,59.639380388390784 0 0,0 -0.02208911248409044,1.026394259634844 l -38.62184895528002 -1.1638299163939732" fill="#37ff2e" stroke="none" /><path d="M 120.9904718944345 100.63252640178507 l 14.563622110192918 0.4388598568267678 a35.57023290625219,35.57023290625219 0 0,0 -0.023709875936832315,0.6118465454642573 l -14.553910101404883 -0.6894836493050313" fill="#ffb210" stroke="none" /><path d="M 120.9764740272857 100.99374915477107 l 4.5761915292728546 0.2167946080151511 a25.581323915054803,25.581323915054803 0 0,0 -0.024623424069113,0.43966777783468186 l -4.571781754316212 -0.2955341021852563" fill="#ff2803" stroke="none" /><path d="M 120.95626037817324 101.35467743843564 l 28.253921808362506 1.8264208274954565 a49.31289300993757,49.31289300993757 0 0,0 -0.06204839693047038,0.8466010784353873 l -28.218296852767697 -2.312495042427614" fill="#a5ff21" stroke="none" /><path d="M 120.92983693683757 101.71520430193887 l 52.72890428310177 4.321144198869444 a73.90566731536359,73.90566731536359 0 0,0 -0.11481915397980451,1.2670197964413568 l -52.646710532844885 -5.228145383859371" fill="#40ffc9" stroke="none" /><path d="M 120.89721153311464 102.0752229133903 l 38.9509011471064 3.868066436978257 a60.14249146557398,60.14249146557398 0 0,0 -0.11117110003267672,1.0293063163685634 l -38.87854774557267 -4.5379690752316115" fill="#32ff2f" stroke="none" /><path d="M 120.8583938346157 102.4346265915055 l 51.635984144553255 6.02703837475041 a72.98653720096453,72.98653720096453 0 0,0 -0.1563944771115323,1.2466178604775502 l -51.524588158194874 -6.914973989515355" fill="#3fffbf" stroke="none" /><path d="M 120.81339534386255 102.79330883721812 l 56.29513071987515 7.555215453039762 a77.79985055710694,77.79985055710694 0 0,0 -0.18955729450099873,1.3257632762432472 l -56.15673937435755 -8.52312420126342" fill="#45fff1" stroke="none" /><path d="M 120.76222939487914 103.15116336523771 l 37.308544877964195 5.662461270116021 a58.73580512651919,58.73580512651919 0 0,0 -0.16031587171568196,0.9982870862070015 l -37.20554725188722 -6.303827586016227" fill="#40ff2d" stroke="none" /><path d="M 120.70491114924044 103.5080841355445 l 11.148423710010874 1.8889049110868577 a32.30731236771412,32.30731236771412 0 0,0 -0.09761970991383759,0.5475031755178212 l -11.114257557757847 -2.080526837337897" fill="#ff860c" stroke="none" /><path d="M 120.5718875245553 104.21870165774334 l 39.12191936020767 8.022778943449284 a60.9360683643501,60.9360683643501 0 0,0 -0.2195612471019811,1.025717050757587 l -38.978024074381246 -8.69500981362304" fill="#30ff35" stroke="none" /><path d="M 120.49622156327973 104.57218783832717 l 48.45816142813946 10.809788314660501 a70.64921884988115,70.64921884988115 0 0,0 -0.27499176982084783,1.1846573471849393 l -48.26490909238806 -11.642314319194007" fill="#3cffa6" stroke="none" /><path d="M 120.41448212921028 104.9243191809786 l 56.44873425777674 13.616391691356952 a79.06776835730432,79.06776835730432 0 0,0 -0.33053597455763434,1.320326912565815 l -56.205986968924044 -14.586046443320162" fill="#47fffd" stroke="none" /><path d="M 120.32669344350535 105.2749913415812 l 41.133916131853496 10.674685090514958 a63.49644641760084,63.49644641760084 0 0,0 -0.28365351351887635,1.05558024550083 l -40.94407454199284 -11.381156269191337" fill="#33ff54" stroke="none" /><path d="M 120.23288151984713 105.62410040840565 l 60.69864455954138 16.872301225216972 a84.0,84.0 0 0,0 -0.3992294524556024,1.389770097981672 l -60.399222470199675 -17.914628798703227" fill="#4dd2ff" stroke="none" /><path d="M 120.02730092923936 106.31721596034902 l 17.001244876036427 5.362706430395582 a38.826972474134834,38.826972474134834 0 0,0 -0.2065368426161782,0.6356550403399724 l -16.906415782404004 -5.654560370713349" fill="#ffdc14" stroke="none" /><path d="M 119.9155931802556 106.66101706037122 l 28.25927249151741 9.45166405418916 a50.79799381070954,50.79799381070954 0 0,0 -0.284490944848974,0.8268638529905378 l -28.09239071572521 -9.936700610269" fill="#94ff23" stroke="none" /><path d="M 119.79798401119884 107.00284435728193 l 33.37444288198504 11.805041810385042 a56.40074080902575,56.40074080902575 0 0,0 -0.3316249119641486,0.9124893304929858 l -33.16629370901567 -12.377778937884159" fill="#58ff2a" stroke="none" /><path d="M 119.67450827220406 107.3425965602758 l 48.5063952633546 18.102759473550282 a72.77432068122192,72.77432068122192 0 0,0 -0.4481017125132648,1.1698521715098986 l -48.18759927124783 -18.935035211893325" fill="#3fffbd" stroke="none" /><path d="M 119.54520255179757 107.68017299344265 l 36.821870305232075 14.468938509940502 a60.5626125828385,60.5626125828385 0 0,0 -0.3896119349373252,0.9669848706722154 l -36.56735575603736 -15.10062274845553" fill="#2fff31" stroke="none" /><line stroke="#e1ed5e" stroke-width="0.3" x1="174.80103733775053" x2="179.2010983576182" y1="140.37084112569926" y2="142.7455964860345" /><path d="M 175.68104954172406 140.8457921977663 a86.0,86.0 0 0,1 -30.038265399797805,32.042727171017184" fill="none" id="id77" stroke="none" /><text fill="#e1ed5e" style="font-size:6.75px; font-family:Arial;" text-anchor="middle"><textPath startOffset="22.206326154141568" xlink:href="#id77">May</textPath></text><path d="M 117.94076556474637 110.91462005526583 l 13.242295678176276 8.056212844717926 a36.50035355169824,36.50035355169824 0 0,0 -0.3311718102961702,0.5339544055974413 l -13.101659228212144 -8.282963581680642" fill="#ffbe11" stroke="none" /><path d="M 117.55443506779139 111.5257021239791 l 18.989350970664468 12.467823770480852 a43.7165595955647,43.7165595955647 0 0,0 -0.4184234628969357,0.6254863045899578 l -18.77192440235681 -12.792846989276615" fill="#e6ff1a" stroke="none" /><path d="M 117.35343817320211 111.8261652097733 l 41.597987848467746 28.348542333806954 a71.33917406446906,71.33917406446906 0 0,0 -0.7002758393072435,1.0087995755621544 l -41.103851101998366 -29.060383171556126" fill="#3dffad" stroke="none" /><path d="M 117.14729908036423 112.12312394758627 l 10.096451708647756 7.138181641382787 a33.36494942369076,33.36494942369076 0 0,0 -0.3355881687928321,0.4661026150825484 l -9.97208374747932 -7.310917861916466" fill="#ff940d" stroke="none" /><path d="M 116.93607887273984 112.41649034213515 l 38.95336398753282 28.558208271182377 a69.30047438281997,69.30047438281997 0 0,0 -0.7135927046652483,0.9559740415522666 l -38.45601001617248 -29.22449519224396" fill="#3aff97" stroke="none" /><path d="M 116.71984013943494 112.70617746262583 l 12.269721539261596 9.324327146355673 a36.41068276823857,36.41068276823857 0 0,0 -0.3835140385128534,0.49574359299051424 l -12.107400683530674 -9.534148733459439" fill="#ffbd11" stroke="none" /><path d="M 116.498646956653 112.99209946851258 l 38.310029234136444 30.167789622943527 a69.76221765521507,69.76221765521507 0 0,0 -0.751047039389274,0.9370466603996261 l -37.78506428269232 -30.822764116921405" fill="#3bff9c" stroke="none" /><path d="M 116.27256486870786 113.27417163493432 l 24.454882655925953 19.94881030163725 a52.55940934437488,52.55940934437488 0 0,0 -0.5779132314689921,0.6961337162803416 l -24.10787342456342 -20.36680527503136" fill="#81ff25" stroke="none" /><path d="M 116.0416608686014 113.55231037782055 l 17.914550297115582 15.134564176006982 a44.451783410767675,44.451783410767675 0 0,0 -0.4988283677945142,0.5802500864763382 l -17.65137941975029 -15.440691361644848" fill="#ddff1b" stroke="none" /><path d="M 115.80600337817218 113.82643327865902 l 22.9476470101919 20.07364560776961 a51.48845275330805,51.48845275330805 0 0,0 -0.5892759030741543,0.6620577239747703 l -22.59871225746941 -20.465677501485246" fill="#8dff24" stroke="none" /><path d="M 115.56566222782051 114.09645910891815 l 23.294374811198963 21.09567824277895 a52.42698742112387,52.42698742112387 0 0,0 -0.6115323279413044,0.6636975628786659 l -22.927796075261938 -21.49352706045895" fill="#82ff25" stroke="none" /><path d="M 115.32070863581623 114.36230785411682 l 15.660049490537672 14.680420934839132 a42.46513239815101,42.46513239815101 0 0,0 -0.5045129680077886,0.5289798299399008 l -15.405029971150919 -14.94780788136154" fill="#f5ff19" stroke="none" /><path d="M 115.07121518719521 114.62390073753431 l 9.047259039482432 8.778735921212318 a33.606311931008214,33.606311931008214 0 0,0 -0.4064113320089306,0.41169253364299374 l -8.894807082417966 -8.933168948835975" fill="#ff980e" stroke="none" /><path d="M 114.81725581225074 114.88116024355365 l 12.129702957533627 12.182016407419104 a38.191021423656835,38.191021423656835 0 0,0 -0.46984058112470506,0.4598378969644514 l -11.918212424033129 -12.389004407306127" fill="#ffd313" stroke="none" /><path d="M 114.55890576462653 115.13401014063108 l 21.464557413677166 22.312448120381198 a51.9608230848236,51.9608230848236 0 0,0 -0.6499164876162882,0.6145366047830059 l -21.077305091670073 -22.678619361910126" fill="#87ff25" stroke="none" /><path d="M 114.29624159901734 115.38237550388516 l 22.17257502761261 23.857100665271872 a53.5696843016328,53.5696843016328 0 0,0 -0.680846327382079,0.6219369773529166 l -21.758629150763667 -24.235230409211372" fill="#76ff27" stroke="none" /><path d="M 114.0293411484842 115.62618273729858 l 20.439530723477773 22.765990132344943 a51.59517483038819,51.59517483038819 0 0,0 -0.6659650805189652,0.5876367531257966 l -20.04462329005222 -23.114450027243027" fill="#8bff24" stroke="none" /><path d="M 113.75828350139079 115.86535959552629 l 19.866713915081988 22.909293896463144 a51.323622287224126,51.323622287224126 0 0,0 -0.6724238265873831,0.5730541729411445 l -19.469424611917557 -23.247872459627235" fill="#8eff24" stroke="none" /><path d="M 113.20401910651253 116.32954008644616 l 8.528903013315272 10.547778106489599 a34.5645792265842,34.5645792265842 0 0,0 -0.4658688174981978,0.37011436403531994 l -8.346076703099724 -10.693026384530045" fill="#ffa40f" stroke="none" /><path d="M 112.63410532772338 116.77436683061366 l 26.98357132449899 35.82622687211179 a65.85121685435467,65.85121685435467 0 0,0 -0.9113025397191343,0.6741598327174427 l -26.36288381436129 -36.285396653569" fill="#36ff70" stroke="none" /><path d="M 112.34349029814194 116.9893568818739 l 16.957367544806445 23.339814107456235 a49.84959681902449,49.84959681902449 0 0,0 -0.69854162198048,0.49839089985268314 l -16.55309859497708 -23.628249269153137" fill="#9fff22" stroke="none" /><path d="M 112.04921762599082 117.19931262002967 l 4.390816908990619 6.267546575982108 a28.652542924439103,28.652542924439103 0 0,0 -0.4063791737186431,0.27951130124682627 l -4.282280850649093 -6.342198666594029" fill="#ff5407" stroke="none" /><line stroke="#e1ed5e" stroke-width="0.3" x1="143.8653032363475" x2="146.44561519142675" y1="172.8068346515853" y2="177.08958963109032" /><path d="M 144.38136562736335 173.6633856474863 a86.0,86.0 0 0,1 -40.68145358897372,12.25698825130547" fill="none" id="id78" stroke="none" /><text fill="#e1ed5e" style="font-size:6.75px; font-family:Arial;" text-anchor="middle"><textPath startOffset="21.466115282336833" xlink:href="#id78">June</textPath></text><line stroke="#e1ed5e" stroke-width="0.3" x1="102.19456741930631" x2="102.32365962044197" y1="184.97166512339345" y2="189.96999836594603" /><path d="M 102.22038585953345 185.97133177190398 a86.0,86.0 0 0,1 -42.740103519485714,-10.115201625700543" fill="none" id="id79" stroke="none" /><text fill="#e1ed5e" style="font-size:6.75px; font-family:Arial;" text-anchor="middle"><textPath startOffset="22.20632615414155" xlink:href="#id79">July</textPath></text><line stroke="#e1ed5e" stroke-width="0.3" x1="58.666819895761336" x2="56.23545636021788" y1="174.27360380694188" y2="178.64263932499728" /><path d="M 58.180547188652646 175.14741091055294 a86.0,86.0 0 0,1 -31.652253787137756,-30.449443065178592" fill="none" id="id80" stroke="none" /><text fill="#e1ed5e" style="font-size:6.75px; font-family:Arial;" text-anchor="middle"><textPath startOffset="22.20632615414155" xlink:href="#id80">August</textPath></text><line stroke="#e1ed5e" stroke-width="0.3" x1="26.63291911575756" x2="22.317208475507996" y1="142.92168965132927" y2="145.44649492493687" /><path d="M 25.769776987707644 143.4266507060508 a86.0,86.0 0 0,1 -11.730757126820373,-40.83630448921669" fill="none" id="id81" stroke="none" /><text fill="#e1ed5e" style="font-size:6.75px; font-family:Arial;" text-anchor="middle"><textPath startOffset="21.46611528233685" xlink:href="#id81">September</textPath></text><line stroke="#e1ed5e" stroke-width="0.3" x1="15.007084014347285" x2="10.007500721073583" y1="101.09737516637583" y2="101.16192664675087" /><path d="M 14.007167355692545 101.11028546245083 a86.0,86.0 0 0,1 10.666146001902534,-42.60595125391555" fill="none" id="id82" stroke="none" /><text fill="#e1ed5e" style="font-size:6.75px; font-family:Arial;" text-anchor="middle"><textPath startOffset="22.20632615414155" xlink:href="#id82">October</textPath></text><line stroke="#e1ed5e" stroke-width="0.3" x1="26.266209847984243" x2="21.928928074336255" y1="57.711370442889674" y2="55.22380399835377" /><path d="M 25.398753493254645 57.213857153982495 a86.0,86.0 0 0,1 29.58750427330803,-30.492523968695096" fill="none" id="id83" stroke="none" /><text fill="#e1ed5e" style="font-size:6.75px; font-family:Arial;" text-anchor="middle"><textPath startOffset="21.46611528233685" xlink:href="#id83">November</textPath></text><line stroke="#e1ed5e" stroke-width="0.3" x1="56.762969772571076" x2="54.21961505331055" y1="26.818313649435495" y2="22.513508569990535" /><path d="M 56.25429882871897 25.957352633546506 a86.0,86.0 0 0,1 42.265352541879196,-11.944610805530505" fill="none" id="id84" stroke="none" /><text fill="#e1ed5e" style="font-size:6.75px; font-family:Arial;" text-anchor="middle"><textPath startOffset="22.20632615414155" xlink:href="#id84">December</textPath></text></svg>