<?xml version="1.0" encoding="utf-8" ?>
<svg baseProfile="full" height="200mm" version="1.1" viewBox="0,0,200,200" width="200mm" xmlns="http://www.w3.org/2000/svg" xmlns:ev="http://www.w3.org/2001/xml-events" xmlns:xlink="http://www.w3.org/1999/xlink"><defs /><rect fill="#1a1a1a" height="200" width="200" x="0" y="0" /><text alignment-baseline="middle" fill="#e1ed5e" style="dominant-baseline: central; font-size:9.0px; font-family:Arial;" text-anchor="middle" x="100.0" y="100.0">2025</text><line stroke="#e1ed5e" stroke-width="0.3" x1="100.0" x2="100.0" y1="15.0" y2="10.0" /><path d="M 100.0 14.0 a86.0,86.0 0 0,1 42.46469731375804,11.215312516191453" fill="none" id="id73" stroke="none" /><text fill="#e1ed5e" style="font-size:6.75px; font-family:Arial;" text-anchor="middle"><textPath startOffset="22.20632615414155" xlink:href="#id73">January</textPath></text><path d="M 100.0 79.0 l 0.0 -34.986907426777286 a55.986907426777286,55.986907426777286 0 0,0 0.9637225776008634,0.008295064483486936 l -0.6022420983283351 34.98172373890236" fill="#5cff2a" stroke="none" /><path d="M 100.36148047927253 79.00311137660856 l 0.032400367746341724 -1.8820018007499726 a22.882280680944326,22.882280680944326 0 0,0 0.39376413162325347,0.010169765802481988 l -0.06479113456446299 1.8811652428051309" fill="#ff0300" stroke="none" /><path d="M 101.44485096284872 79.0497635885617 l 0.8421290839915554 -12.210811946850155 a33.23981657523686,33.23981657523686 0 0,0 0.5704740951196013,0.04427976921884677 l -1.0521933684734979 12.194506915442844" fill="#ff950d" stroke="none" /><path d="M 102.16513564639614 79.11191278185805 l 0.19254929055724923 -1.8576140398620165 a22.867566638807457,22.867566638807457 0 0,0 0.39118054030332544,0.04395369161061717 l -0.22449653437029995 1.8540243947807986" fill="#ff0300" stroke="none" /><path d="M 105.01212808612495 79.60689891045804 l 2.3845044115298957 -9.701954674183808 a30.99068495091916,30.99068495091916 0 0,0 0.5169410224699877,0.1317797767996018 l -2.5511543226849085 9.659471901215339" fill="#ff760a" stroke="none" /><path d="M 105.36241919743992 79.69619591428918 l 2.861618201964024 -10.834985703564538 a32.206505875171786,32.206505875171786 0 0,0 0.5347845990191123,0.1461768325171867 l -3.0477006902068475 10.784122330221058" fill="#ff870c" stroke="none" /><path d="M 106.0581310904928 79.89281104454417 l 2.3367494600798255 -7.755768608097663 a29.100144735838768,29.100144735838768 0 0,0 0.4783712199546064,0.14863226663167597 l -2.4699060527451504 7.714396206583466" fill="#ff5c08" stroke="none" /><path d="M 107.4271985657038 80.35727306442388 l 14.377551941729104 -38.024340442106556 a61.65174616045833,61.65174616045833 0 0,0 0.9894131601543618,0.38387693468418543 l -15.029948266883133 37.771220803531826" fill="#31ff3f" stroke="none" /><path d="M 107.76421540070413 80.48803036053334 l 15.042724470228627 -37.80332821927435 a61.68630216597964,61.68630216597964 0 0,0 0.9832095409713417,0.4010758586835625 l -15.691217880788356 37.53879147440721" fill="#31ff3f" stroke="none" /><path d="M 109.08828744355905 81.06846463323043 l 3.893879745862443 -8.111222557665302 a29.99745691043954,29.99745691043954 0 0,0 0.4635731754311481,0.22747334390786772 l -4.032924188304023 8.042994053622602" fill="#ff6909" stroke="none" /><path d="M 110.05341064243156 81.56283822128135 l 29.42007790189868 -53.95410126096462 a82.4539341835184,82.4539341835184 0 0,0 1.2402481699911114,0.6901967638118511 l -30.344450160961827 53.43968909959259" fill="#4be0ff" stroke="none" /><line stroke="#e1ed5e" stroke-width="0.3" x1="143.23703022742887" x2="145.7803849466894" y1="26.81831364943548" y2="22.513508569990506" /><path d="M 143.74570117128098 25.957352633546492 a86.0,86.0 0 0,1 28.547481713284135,27.462654790039103" fill="none" id="id74" stroke="none" /><text fill="#e1ed5e" style="font-size:6.75px; font-family:Arial;" text-anchor="middle"><textPath startOffset="19.985693538727396" xlink:href="#id74">February</textPath></text><path d="M 113.89432698308785 84.25364557470407 l 2.4799994084902286 -2.8105679179815035 a24.748291489158596,24.748291489158596 0 0,0 0.31700088030263507,0.2846065202808648 l -2.528011276388854 2.767462388931341" fill="#ff1e03" stroke="none" /><path d="M 114.16331599549186 84.49514656593476 l 2.5597800220334763 -2.8022402435778626 a24.795395123558155,24.795395123558155 0 0,0 0.31264881651951903,0.29057300125594687 l -2.607636722347842 2.7577626562472752" fill="#ff1f03" stroke="none" /><path d="M 114.42810811169701 84.74124197986012 l 1.4645324422846022 -1.5488479831495254 a23.131615666439533,23.131615666439533 0 0,0 0.28696064206785704,0.27605591031065974 l -1.4909763279648776 1.5234089860765638" fill="#ff0701" stroke="none" /><path d="M 115.68641384162765 86.03803664274999 l 1.6467125839273928 -1.4656849544351378 a23.204516890323674,23.204516890323674 0 0,0 0.26299351531629916,0.30064705103252476 l -1.6716979628215403 1.4371223471996653" fill="#ff0801" stroke="none" /><path d="M 116.15771136456269 86.58626213691792 l 2.044622997906621 -1.6973961413186003 a23.65737405423699,23.65737405423699 0 0,0 0.2574164592812187,0.3155621418140173 l -2.0735379492642485 1.661949829896482" fill="#ff0e01" stroke="none" /><path d="M 116.38621287248628 86.86637796730983 l 3.2117934006136815 -2.574266604431606 a25.116122617089708,25.116122617089708 0 0,0 0.2674818254577982,0.3396747551267427 l -3.2556293066654436 2.5185994553518247" fill="#ff2403" stroke="none" /><path d="M 117.2510076193507 88.02491185347247 l 1.8655885186589913 -1.2950308439393066 a23.271018583743075,23.271018583743075 0 0,0 0.22559095441039675,0.3310268891355637 l -1.8876039387381214 1.2627259315333363" fill="#ff0901" stroke="none" /><path d="M 117.45458315368197 88.32363383020206 l 19.177980251555688 -12.829244780164283 a44.07345765502935,44.07345765502935 0 0,0 0.41639629953180207,0.6342001314949892 l -19.395973186445417 12.49722658469162" fill="#e0ff1b" stroke="none" /><line stroke="#e1ed5e" stroke-width="0.3" x1="172.23445277983987" x2="176.4835382374775" y1="55.19839476539836" y2="52.563006222186495" /><path d="M 173.08426987136738 54.67131705675599 a86.0,86.0 0 0,1 12.851231095245387,41.99856678651699" fill="none" id="id75" stroke="none" /><text fill="#e1ed5e" style="font-size:6.75px; font-family:Arial;" text-anchor="middle"><textPath startOffset="22.20632615414155" xlink:href="#id75">March</textPath></text><path d="M 117.84615892207809 88.93136811851018 l 13.807530164919283 -8.563773821322762 a37.247649409004644,37.247649409004644 0 0,0 0.3332497559488305,0.547774976656421 l -13.952895719154338 8.32483107145926" fill="#ffc912" stroke="none" /><path d="M 119.196687751892 91.48605970444005 l 7.950703857322482 -3.5262238373518433 a29.69758278937033,29.69758278937033 0 0,0 0.20322945438326817,0.46908160071163435 l -8.010224021548431 3.388843092053606" fill="#ff6409" stroke="none" /><path d="M 119.7369772167798 92.82701384747503 l 3.7846993443676675 -1.3754687807786243 a25.0268925357096,25.0268925357096 0 0,0 0.14366260914684598,0.4061535418731369 l -3.807815034324323 1.310117612478873" fill="#ff2203" stroke="none" /><path d="M 120.28053869075195 94.5502522615342 l 11.989705376737504 -3.2218507978558897 a33.415045613472905,33.415045613472905 0 0,0 0.14448612916307102,0.5567639952667798 l -12.043387837770878 3.0149903770402595" fill="#ff970d" stroke="none" /><path d="M 120.37134235888165 94.90015583598534 l 14.711022907648768 -3.6828169199929466 a36.16500364179162,36.16500364179162 0 0,0 0.1459812422510449,0.6051864941341398 l -14.772236950160632 3.429045194199401" fill="#ffbb11" stroke="none" /><path d="M 120.45610955862082 95.25157060432595 l 9.486962285530295 -2.202186611445796 a30.73920321580289,30.73920321580289 0 0,0 0.11520703962708113,0.5164505688178672 l -9.523463712159414 2.0385578730779645" fill="#ff730a" stroke="none" /><path d="M 120.53481517161879 95.60439243477599 l 9.527523748240046 -2.039426949578628 a30.74335522579084,30.74335522579084 0 0,0 0.10631448106820429,0.5184271665080156 l -9.561217525223247 1.8751241269072005" fill="#ff730a" stroke="none" /><path d="M 120.73433829027371 96.67025291283417 l 29.13602907979217 -4.678982594082881 a50.50933866853382,50.50933866853382 0 0,0 0.13046828328792567,0.8596229748868055 l -29.212253256519393 4.176760506803993" fill="#96ff23" stroke="none" /><path d="M 120.78858239683441 97.02765380044208 l 40.93799673895159 -5.853304313961597 a62.35433167626159,62.35433167626159 0 0,0 0.1427736068128265,1.0638292063057533 l -41.03268634482225 5.147756765591179" fill="#32ff47" stroke="none" /><path d="M 120.83666639777658 97.38593545837742 l 49.7957799994946 -6.247130915001237 a71.18611710849157,71.18611710849157 0 0,0 0.14206595424105056,1.2171343377211536 l -49.89593630673924 5.389052838955231" fill="#3dffac" stroke="none" /><path d="M 120.87857604477298 97.74499172005257 l 17.987950998836016 -1.9428038748753131 a39.09256388776218,39.09256388776218 0 0,0 0.06649994031057022,0.6696453237108677 l -18.018728064828814 1.6328830204600104" fill="#ffe115" stroke="none" /><path d="M 120.91429891909075 98.10471618934814 l 6.864314137492639 -0.6220540074686908 a27.89244222075087,27.89244222075087 0 0,0 0.039216131147742264,0.4785361308201416 l -6.874004752459876 0.5038039594407804" fill="#ff4b07" stroke="none" /><path d="M 120.96714384426684 98.82574320788733 l 12.6110058209905 -0.7062745098073847 a33.63076765284913,33.63076765284913 0 0,0 0.027395289851328164,0.578271270246967 l -12.621294719075324 0.4890921329374179" fill="#ff9a0e" stroke="none" /><path d="M 120.98425023603335 99.18683210126433 l 11.563243475504134 -0.4480912252656229 a32.571922287154756,32.571922287154756 0 0,0 0.01688824009664406,0.5604384703858102 l -11.569243410056423 0.2489826074548136" fill="#ff8c0c" stroke="none" /><line stroke="#e1ed5e" stroke-width="0.3" x1="184.98032266829074" x2="189.97916517819016" y1="98.17113171792111" y2="98.06355123074" /><path d="M 185.9800911702706 98.14961562048488 a86.0,86.0 0 0,1 -9.607161424134198,41.387399972396054" fill="none" id="id76" stroke="none" /><text fill="#e1ed5e" style="font-size:6.75px; font-family:Arial;" text-anchor="middle"><textPath startOffset="21.466115282336823" xlink:href="#id76">April</textPath></text><path d="M 120.99513854157772 99.54816195383933 l 56.60491598582608 -1.2181988983532765 a77.61802294604058,77.61802294604058 0 0,0 0.017249655267912497,1.3360048102868902 l -56.61749864821171 0.24365783000592353" fill="#45ffef" stroke="none" /><path d="M 120.99980553446 99.90962569577887 l 45.553374638379196 -0.1960425076847673 a66.55379647855213,66.55379647855213 0 0,0 -0.004930377217883255,1.1456460293598847 l -45.54999996387181 -0.5881129998788022" fill="#37ff79" stroke="none" /><path d="M 120.99824983174949 100.27111621757518 l 38.63616013044912 0.4988458409690143 a59.639380388390784,59.639380388390784 0 0,0 -0.02208911248409044,1.026394259634844 l -38.62184895528002 -1.1638299163939732" fill="#37ff2e" stroke="none" /><path d="M 120.9904718944345 100.63252640178507 l 14.563622110192918 0.4388598568267678 a35.57023290625219,35.57023290625219 0 0,0 -0.023709875936832315,0.6118465454642573 l -14.553910101404883 -0.6894836493050313" fill="#ffb310" stroke="none" /><path d="M 120.9764740272857 100.99374915477107 l 4.5761915292728546 0.2167946080151511 a25.581323915054803,25.581323915054803 0 0,0 -0.024623424069113,0.43966777783468186 l -4.571781754316212 -0.2955341021852563" fill="#ff2a04" stroke="none" /><path d="M 120.95626037817324 101.35467743843564 l 28.253921808362506 1.8264208274954565 a49.31289300993757,49.31289300993757 0 0,0 -0.06204839693047038,0.8466010784353873 l -28.218296852767697 -2.312495042427614" fill="#a4ff21" stroke="none" /><path d="M 120.92983693683757 101.71520430193887 l 52.72890428310177 4.321144198869444 a73.90566731536359,73.90566731536359 0 0,0 -0.11481915397980451,1.2670197964413568 l -52.646710532844885 -5.228145383859371" fill="#40ffc9" stroke="none" /><path d="M 120.89721153311464 102.0752229133903 l 38.9509011471064 3.868066436978257 a60.14249146557398,60.14249146557398 0 0,0 -0.11117110003267672,1.0293063163685634 l -38.87854774557267 -4.5379690752316115" fill="#32ff2f" stroke="none" /><path d="M 120.8583938346157 102.4346265915055 l 51.635984144553255 6.02703837475041 a72.98653720096453,72.98653720096453 0 0,0 -0.1563944771115323,1.2466178604775502 l -51.524588158194874 -6.914973989515355" fill="#3fffbf" stroke="none" /><path d="M 120.81339534386255 102.79330883721812 l 56.29513071987515 7.555215453039762 a77.79985055710694,77.79985055710694 0 0,0 -0.18955729450099873,1.3257632762432472 l -56.15673937435755 -8.52312420126342" fill="#45fff1" stroke="none" /><path d="M 120.76222939487914 103.15116336523771 l 37.308544877964195 5.662461270116021 a58.73580512651919,58.73580512651919 0 0,0 -0.16031587171568196,0.9982870862070015 l -37.20554725188722 -6.303827586016227" fill="#40ff2d" stroke="none" /><path d="M 120.70491114924044 103.5080841355445 l 11.148423710010874 1.8889049110868577 a32.30731236771412,32.30731236771412 0 0,0 -0.09761970991383759,0.5475031755178212 l -11.114257557757847 -2.080526837337897" fill="#ff880c" stroke="none" /><path d="M 120.5718875245553 104.21870165774334 l 39.12191936020767 8.022778943449284 a60.9360683643501,60.9360683643501 0 0,0 -0.2195612471019811,1.025717050757587 l -38.978024074381246 -8.69500981362304" fill="#30ff36" stroke="none" /><path d="M 120.49622156327973 104.57218783832717 l 48.45816142813946 10.809788314660501 a70.64921884988115,70.64921884988115 0 0,0 -0.27499176982084783,1.1846573471849393 l -48.26490909238806 -11.642314319194007" fill="#3cffa6" stroke="none" /><path d="M 120.41448212921028 104.9243191809786 l 56.44873425777674 13.616391691356952 a79.06776835730432,79.06776835730432 0 0,0 -0.33053597455763434,1.320326912565815 l -56.205986968924044 -14.586046443320162" fill="#47fffd" stroke="none" /><path d="M 120.32669344350535 105.2749913415812 l 41.133916131853496 10.674685090514958 a63.49644641760084,63.49644641760084 0 0,0 -0.28365351351887635,1.05558024550083 l -40.94407454199284 -11.381156269191337" fill="#33ff55" stroke="none" /><path d="M 120.23288151984713 105.62410040840565 l 60.69864455954138 16.872301225216972 a84.0,84.0 0 0,0 -0.3992294524556024,1.389770097981672 l -60.399222470199675 -17.914628798703227" fill="#4dd2ff" stroke="none" /><path d="M 120.02730092923936 106.31721596034902 l 17.001244876036427 5.362706430395582 a38.826972474134834,38.826972474134834 0 0,0 -0.2065368426161782,0.6356550403399724 l -16.906415782404004 -5.654560370713349" fill="#ffdd14" stroke="none" /><path d="M 119.9155931802556 106.66101706037122 l 28.25927249151741 9.45166405418916 a50.79799381070954,50.79799381070954 0 0,0 -0.284490944848974,0.8268638529905378 l -28.09239071572521 -9.936700610269" fill="#93ff23" stroke="none" /><path d="M 119.79798401119884 107.00284435728193 l 33.37444288198504 11.805041810385042 a56.40074080902575,56.40074080902575 0 0,0 -0.3316249119641486,0.9124893304929858 l -33.16629370901567 -12.377778937884159" fill="#57ff2a" stroke="none" /><path d="M 119.67450827220406 107.3425965602758 l 48.5063952633546 18.102759473550282 a72.77432068122192,72.77432068122192 0 0,0 -0.4481017125132648,1.1698521715098986 l -48.18759927124783 -18.935035211893325" fill="#3fffbd" stroke="none" /><path d="M 119.54520255179757 107.68017299344265 l 36.821870305232075 14.468938509940502 a60.5626125828385,60.5626125828385 0 0,0 -0.3896119349373252,0.9669848706722154 l -36.56735575603736 -15.10062274845553" fill="#30ff32" stroke="none" /><line stroke="#e1ed5e" stroke-width="0.3" x1="174.80103733775053" x2="179.2010983576182" y1="140.37084112569926" y2="142.7455964860345" /><path d="M 175.68104954172406 140.8457921977663 a86.0,86.0 0 0,1 -30.038265399797805,32.042727171017184" fill="none" id="id77" stroke="none" /><text fill="#e1ed5e" style="font-size:6.75px; font-family:Arial;" text-anchor="middle"><textPath startOffset="22.206326154141568" xlink:href="#id77">May</textPath></text><path d="M 117.94076556474637 110.91462005526583 l 13.242295678176276 8.056212844717926 a36.50035355169824,36.50035355169824 0 0,0 -0.3311718102961702,0.5339544055974413 l -13.101659228212144 -8.282963581680642" fill="#ffc011" stroke="none" /><path d="M 117.55443506779139 111.5257021239791 l 18.989350970664468 12.467823770480852 a43.7165595955647,43.7165595955647 0 0,0 -0.4184234628969357,0.6254863045899578 l -18.77192440235681 -12.792846989276615" fill="#e5ff1a" stroke="none" /><path d="M 117.35343817320211 111.8261652097733 l 41.597987848467746 28.348542333806954 a71.33917406446906,71.33917406446906 0 0,0 -0.7002758393072435,1.0087995755621544 l -41.103851101998366 -29.060383171556126" fill="#3dffae" stroke="none" /><path d="M 117.14729908036423 112.12312394758627 l 10.096451708647756 7.138181641382787 a33.36494942369076,33.36494942369076 0 0,0 -0.3355881687928321,0.4661026150825484 l -9.97208374747932 -7.310917861916466" fill="#ff960d" stroke="none" /><path d="M 116.93607887273984 112.41649034213515 l 38.95336398753282 28.558208271182377 a69.30047438281997,69.30047438281997 0 0,0 -0.7135927046652483,0.9559740415522666 l -38.45601001617248 -29.22449519224396" fill="#3bff97" stroke="none" /><path d="M 116.71984013943494 112.70617746262583 l 12.269721539261596 9.324327146355673 a36.41068276823857,36.41068276823857 0 0,0 -0.3835140385128534,0.49574359299051424 l -12.107400683530674 -9.534148733459439" fill="#ffbe11" stroke="none" /><path d="M 116.498646956653 112.99209946851258 l 38.310029234136444 30.167789622943527 a69.76221765521507,69.76221765521507 0 0,0 -0.751047039389274,0.9370466603996261 l -37.78506428269232 -30.822764116921405" fill="#3bff9d" stroke="none" /><path d="M 116.27256486870786 113.27417163493432 l 24.454882655925953 19.94881030163725 a52.55940934437488,52.55940934437488 0 0,0 -0.5779132314689921,0.6961337162803416 l -24.10787342456342 -20.36680527503136" fill="#80ff26" stroke="none" /><path d="M 116.0416608686014 113.55231037782055 l 17.914550297115582 15.134564176006982 a44.451783410767675,44.451783410767675 0 0,0 -0.4988283677945142,0.5802500864763382 l -17.65137941975029 -15.440691361644848" fill="#dcff1b" stroke="none" /><path d="M 115.80600337817218 113.82643327865902 l 22.9476470101919 20.07364560776961 a51.48845275330805,51.48845275330805 0 0,0 -0.5892759030741543,0.6620577239747703 l -22.59871225746941 -20.465677501485246" fill="#8bff24" stroke="none" /><path d="M 115.56566222782051 114.09645910891815 l 23.294374811198963 21.09567824277895 a52.42698742112387,52.42698742112387 0 0,0 -0.6115323279413044,0.6636975628786659 l -22.927796075261938 -21.49352706045895" fill="#81ff25" stroke="none" /><path d="M 115.32070863581623 114.36230785411682 l 15.660049490537672 14.680420934839132 a42.46513239815101,42.46513239815101 0 0,0 -0.5045129680077886,0.5289798299399008 l -15.405029971150919 -14.94780788136154" fill="#f4ff19" stroke="none" /><path d="M 115.07121518719521 114.62390073753431 l 9.047259039482432 8.778735921212318 a33.606311931008214,33.606311931008214 0 0,0 -0.4064113320089306,0.41169253364299374 l -8.894807082417966 -8.933168948835975" fill="#ff990e" stroke="none" /><path d="M 114.81725581225074 114.88116024355365 l 12.129702957533627 12.182016407419104 a38.191021423656835,38.191021423656835 0 0,0 -0.46984058112470506,0.4598378969644514 l -11.918212424033129 -12.389004407306127" fill="#ffd513" stroke="none" /><path d="M 114.55890576462653 115.13401014063108 l 21.464557413677166 22.312448120381198 a51.9608230848236,51.9608230848236 0 0,0 -0.6499164876162882,0.6145366047830059 l -21.077305091670073 -22.678619361910126" fill="#86ff25" stroke="none" /><path d="M 114.29624159901734 115.38237550388516 l 22.17257502761261 23.857100665271872 a53.5696843016328,53.5696843016328 0 0,0 -0.680846327382079,0.6219369773529166 l -21.758629150763667 -24.235230409211372" fill="#75ff27" stroke="none" /><path d="M 114.0293411484842 115.62618273729858 l 20.439530723477773 22.765990132344943 a51.59517483038819,51.59517483038819 0 0,0 -0.6659650805189652,0.5876367531257966 l -20.04462329005222 -23.114450027243027" fill="#8aff24" stroke="none" /><path d="M 113.75828350139079 115.86535959552629 l 19.866713915081988 22.909293896463144 a51.323622287224126,51.323622287224126 0 0,0 -0.6724238265873831,0.5730541729411445 l -19.469424611917557 -23.247872459627235" fill="#8dff24" stroke="none" /><path d="M 113.20401910651253 116.32954008644616 l 8.528903013315272 10.547778106489599 a34.5645792265842,34.5645792265842 0 0,0 -0.4658688174981978,0.37011436403531994 l -8.346076703099724 -10.693026384530045" fill="#ffa60f" stroke="none" /><path d="M 112.63410532772338 116.77436683061366 l 26.98357132449899 35.82622687211179 a65.85121685435467,65.85121685435467 0 0,0 -0.9113025397191343,0.6741598327174427 l -26.36288381436129 -36.285396653569" fill="#36ff70" stroke="none" /><path d="M 112.34349029814194 116.9893568818739 l 16.957367544806445 23.339814107456235 a49.84959681902449,49.84959681902449 0 0,0 -0.69854162198048,0.49839089985268314 l -16.55309859497708 -23.628249269153137" fill="#9eff22" stroke="none" /><path d="M 112.04921762599082 117.19931262002967 l 16.67259403338471 23.79881963028655 a50.05785965271647,50.05785965271647 0 0,0 -0.709970898479788,0.4883244578346857 l -16.26046625028204 -24.08228487748633" fill="#9bff22" stroke="none" /><path d="M 111.7513745106137 117.40417183066458 l 17.28487080259612 25.599461684036612 a51.88849619477935,51.88849619477935 0 0,0 -0.7445388927534339,0.49343977965204905 l -16.84165721110272 -25.89319948477998" fill="#87ff25" stroke="none" /><path d="M 111.45004920935366 117.60387380957326 l 5.177415959260751 7.960016200807381 a30.495656582476215,30.495656582476215 0 0,0 -0.4425038818670388,0.28242691375408857 l -5.039630275346782 -8.047957543385278" fill="#ff6f0a" stroke="none" /><path d="M 111.1453310114006 117.79835938074945 l 1.7021321560128153 2.7181929182055655 a24.20715241563536,24.20715241563536 0 0,0 -0.35506221211545475,0.21810821058483315 l -1.655090743965052 -2.747089595618777" fill="#ff1602" stroke="none" /><line stroke="#e1ed5e" stroke-width="0.3" x1="143.8653032363475" x2="146.44561519142675" y1="172.8068346515853" y2="177.08958963109032" /><path d="M 144.38136562736335 173.6633856474863 a86.0,86.0 0 0,1 -40.68145358897372,12.25698825130547" fill="none" id="id78" stroke="none" /><text fill="#e1ed5e" style="font-size:6.75px; font-family:Arial;" text-anchor="middle"><textPath startOffset="21.466115282336833" xlink:href="#id78">June</textPath></text><path d="M 110.5260780823613 118.17145234162733 l 7.076681079972816 12.216665312136342 a35.1182975764219,35.1182975764219 0 0,0 -0.5256895307988805,0.29850023524159436 l -6.8653427822527355 -12.336668713172564" fill="#ffad10" stroke="none" /><path d="M 110.21172684928248 118.3499491758327 l 15.017818759979358 26.98624973472052 a51.88353210130427,51.88353210130427 0 0,0 -0.7841261680302214,0.42756810713584487 l -14.551069780080487 -27.240758493616134" fill="#87ff25" stroke="none" /><path d="M 109.89434966115114 118.52300852407294 l 15.85451184995332 29.68090558743542 a54.64998814993202,54.64998814993202 0 0,0 -0.833566113392497,0.43608239375945007 l -15.341254834034329 -29.949417400139588" fill="#6aff28" stroke="none" /><path d="M 109.57404056367764 118.69057910512821 l 13.968817798384345 27.270126163486395 a51.63964183303918,51.63964183303918 0 0,0 -0.7946261174765934,0.3984420314703649 l -13.497337773224992 -27.506536035866063" fill="#8aff24" stroke="none" /><path d="M 109.2508944713604 118.85261126421891 l 9.50505683095472 19.37057460044144 a42.576961456862875,42.576961456862875 0 0,0 -0.660728208277808,0.31718969236044087 l -9.17021595467668 -19.53131856930144" fill="#f2ff19" stroke="none" /><path d="M 108.59647513512805 119.15986991738527 l 4.047602156510201 9.021317409406826 a30.887732349667072,30.887732349667072 0 0,0 -0.486966170841888,0.21347165868048845 l -3.8917153110105587 -9.08965362138177" fill="#ff750a" stroke="none" /><path d="M 108.2653958097858 119.30500536409082 l 9.801409076679235 22.892582418971248 a45.90256913850058,45.90256913850058 0 0,0 -0.7290388995276659,0.3047383191293698 l -9.405898717654107 -23.057905781120592" fill="#cbff1d" stroke="none" /><path d="M 107.93186726928326 119.44442032107085 l 8.000508559042636 19.612689663477816 a42.18173111526072,42.18173111526072 0 0,0 -0.6746644979850047,0.26846292723663356 l -7.661722985015764 -19.747499435120517" fill="#f7ff18" stroke="none" /><path d="M 107.59598834532513 119.57807347666477 l 3.49354238256954 9.004335755976125 a30.65830734575991,30.65830734575991 0 0,0 -0.4936422235564497,0.18665324966305413 l -3.3380299382528156 -9.063137255745811" fill="#ff720a" stroke="none" /><path d="M 107.2578585660854 119.70592522655815 l 9.694383222940022 26.32137140306571 a49.04987804984803,49.04987804984803 0 0,0 -0.7947959073266769,0.28498553488343065 l -9.239867754983612 -26.484344478989104" fill="#a7ff21" stroke="none" /><path d="M 106.91757812671514 119.82793768551818 l 7.670624835380715 21.986404556465676 a44.286057431126764,44.286057431126764 0 0,0 -0.7219265651216633,0.24491668724329738 l -7.291028537321824 -22.115184230607095" fill="#deff1b" stroke="none" /><path d="M 105.88484417918355 120.15858648285463 l 8.013914416942818 27.451735665590768 a49.597563101347504,49.597563101347504 0 0,0 -0.8215926829011364,0.2321902988553532 l -7.540190565937076 -27.58561475778464" fill="#a0ff22" stroke="none" /><path d="M 105.53697534728816 120.25689768951611 l 5.283768783796645 19.330547267263707 a41.039667417712806,41.039667417712806 0 0,0 -0.6830359993489629,0.18039601544565417 l -4.9502423416361845 -19.418634632012946" fill="#fff917" stroke="none" /><path d="M 105.18746579009965 120.34920634021253 l 8.090998576835341 31.739081509244098 a53.75413795264336,53.75413795264336 0 0,0 -0.8985815980826544,0.22084949442705312 l -7.543463694009477 -31.873652261985182" fill="#73ff27" stroke="none" /><path d="M 104.83641907484287 120.43548508189849 l 7.021961153016171 29.670129938604408 a51.48974498102826,51.48974498102826 0 0,0 -0.8642427437482129,0.19669883474429128 l -6.5101982598750965 -29.786605506926385" fill="#8bff24" stroke="none" /><path d="M 104.48393922423573 120.51570834832081 l 2.0731596065542477 9.485484909719302 a30.709398268006147,30.709398268006147 0 0,0 -0.5173927295993545,0.10842467700282717 l -1.9095754155255154 -9.51976556744867" fill="#ff720a" stroke="none" /><path d="M 103.41894727170886 120.7198165907248 l 3.456342243256159 20.94644101347822 a42.22968894811319,42.22968894811319 0 0,0 -0.7182347801539903,0.11217350141576068 l -3.095271599493652 -21.002832822241086" fill="#f7ff19" stroke="none" /><path d="M 103.06178313531738 120.77559828337769 l 3.1891671212543984 21.639956862218927 a42.87369470222134,42.87369470222134 0 0,0 -0.7310402030023866,0.10131551088263034 l -2.8161983270651816 -21.691646938594157" fill="#efff19" stroke="none" /><path d="M 102.70371172650421 120.8252237178851 l 2.7669367213209797 21.312211531235963 a42.49107487241952,42.49107487241952 0 0,0 -0.7261372160372349,0.08792510440345319 l -2.3996720822323643 -21.356682164364766" fill="#f3ff19" stroke="none" /><path d="M 102.34483914955558 120.86867818915974 l 3.291970460702012 29.297989231214682 a50.4823547652915,50.4823547652915 0 0,0 -0.8643718676281259,0.08959567828299372 l -2.7871659964682833 -29.350314277953434" fill="#97ff23" stroke="none" /><path d="M 101.98527174616119 120.90594882070398 l 0.9152251108728043 9.637798636044483 a30.68115693254236,30.68115693254236 0 0,0 -0.5261901432151724,0.04540189964925827 l -0.7491906499160902 -9.652124787972404" fill="#ff720a" stroke="none" /><path d="M 100.90346689309514 120.98055641714683 l 1.209927833938746 28.097276584937216 a49.123315538069136,49.123315538069136 0 0,0 -0.8451073410556527,0.02910720558184731 l -0.726100141208441 -28.11394058894516" fill="#a6ff21" stroke="none" /><line stroke="#e1ed5e" stroke-width="0.3" x1="102.19456741930631" x2="102.32365962044197" y1="184.97166512339345" y2="189.96999836594603" /><path d="M 102.22038585953345 185.97133177190398 a86.0,86.0 0 0,1 -42.740103519485714,-10.115201625700543" fill="none" id="id79" stroke="none" /><text fill="#e1ed5e" style="font-size:6.75px; font-family:Arial;" text-anchor="middle"><textPath startOffset="22.20632615414155" xlink:href="#id79">July</textPath></text><path d="M 100.54218724476979 120.99299961872073 l 0.5808298390250684 22.48920590961527 a43.49670521980888,43.49670521980888 0 0,0 -0.7486410772997586,0.012888535071997874 l -0.19362907183264183 -22.495871921966426" fill="#e7ff1a" stroke="none" /><path d="M 100.18074693466247 120.99922214144158 l 0.19977037578767218 23.20937008574236 a44.21022981316632,44.21022981316632 0 0,0 -0.7610346209002393,0.0 l 0.1997703757876562 -23.20937008574236" fill="#dfff1b" stroke="none" /><path d="M 99.81925306533755 120.99922214144158 l -0.18449953078031345 21.435199656818693 a42.43599366496777,42.43599366496777 0 0,0 -0.7303847004751776,-0.012574234988652318 l 0.5534439211481589 -21.428847944550878" fill="#f4ff19" stroke="none" /><path d="M 98.37488393609728 120.93702456842531 l -0.5188061927147124 6.683989066622976 a27.704093503847826,27.704093503847826 0 0,0 -0.475132699868116,-0.040996448598756896 l 0.6337832103243701 -6.674068365745556" fill="#ff4906" stroke="none" /><path d="M 98.01472825383883 120.90594882070398 l -0.7960632703191775 8.382962191204138 a29.420675259711025,29.420675259711025 0 0,0 -0.5037483718687787,-0.05221557844701931 l 0.9402442387935496 -8.368017244301358" fill="#ff6108" stroke="none" /><path d="M 97.65516085044442 120.86867818915974 l -4.762411000884962 42.38466531950342 a63.65138230805264,63.65138230805264 0 0,0 -1.0877493140586694,-0.13171129352843466 l 5.4912877379950205 -42.29640849724964" fill="#33ff57" stroke="none" /><path d="M 97.2962882734958 120.8252237178851 l -2.24566815637174 17.297162746355202 a38.44232967646353,38.44232967646353 0 0,0 -0.6554809116815042,-0.09084368160338246 l 2.5430776592400757 -17.255944499259215" fill="#ffd814" stroke="none" /><path d="M 95.86986931433489 120.58985236759428 l -5.686736138090343 28.34996431060578 a49.91469253367367,49.91469253367367 0 0,0 -0.8409640199305038,-0.17623218691645104 l 6.1738916194502345 -28.247876142962788" fill="#9dff22" stroke="none" /><path d="M 92.7421414339146 119.70592522655815 l -2.3454736052337197 6.368232043205897 a27.786429531717133,27.786429531717133 0 0,0 -0.44740091825806994,-0.16916874471041712 l 2.4547447442520727 -6.326915048388847" fill="#ff4a06" stroke="none" /><path d="M 92.06813273071674 119.44442032107085 l -2.944040366324221 7.217109966866649 a28.794488434297172,28.794488434297172 0 0,0 -0.45732303342896846,-0.1911610650633057 l 3.067834859250652 -7.16536385878337" fill="#ff5808" stroke="none" /><path d="M 91.07499286063937 119.00905698771935 l -3.237071292826691 6.894523636544793 a28.616632243302647,28.616632243302647 0 0,0 -0.4440856158375308,-0.21318808264044922 l 3.355269576664464 -6.837781277404782" fill="#ff5507" stroke="none" /><line stroke="#e1ed5e" stroke-width="0.3" x1="58.666819895761336" x2="56.23545636021788" y1="174.27360380694188" y2="178.64263932499728" /><path d="M 58.180547188652646 175.14741091055294 a86.0,86.0 0 0,1 -31.652253787137756,-30.449443065178592" fill="none" id="id80" stroke="none" /><text fill="#e1ed5e" style="font-size:6.75px; font-family:Arial;" text-anchor="middle"><textPath startOffset="22.20632615414155" xlink:href="#id80">August</textPath></text><path d="M 86.79598089348748 116.32954008644616 l -4.804873948876342 5.942234794237623 a28.641790890520284,28.641790890520284 0 0,0 -0.38070378140575384,-0.3132932939154498 l 4.906447858826785 -5.858646381464993" fill="#ff5607" stroke="none" /><path d="M 84.9287848128048 114.62390073753433 l -4.602370827738217 4.465772222491437 a27.41287289591739,27.41287289591739 0 0,0 -0.32568248549584444,-0.34147678398097425 l 4.678559864613019 -4.385888321927963" fill="#ff4406" stroke="none" /><line stroke="#e1ed5e" stroke-width="0.3" x1="26.63291911575756" x2="22.317208475507996" y1="142.92168965132927" y2="145.44649492493687" /><path d="M 25.769776987707644 143.4266507060508 a86.0,86.0 0 0,1 -11.730757126820373,-40.83630448921669" fill="none" id="id81" stroke="none" /><text fill="#e1ed5e" style="font-size:6.75px; font-family:Arial;" text-anchor="middle"><textPath startOffset="21.46611528233685" xlink:href="#id81">September</textPath></text><path d="M 81.87401531095188 110.60418214915194 l -26.79748066875936 15.677237459082553 a52.04642885326737,52.04642885326737 0 0,0 -0.44573553984083125,-0.7771774848729639 l 27.063368204752567 -15.213640128351281" fill="#85ff25" stroke="none" /><path d="M 81.69416730710424 110.29060199501025 l -27.936146996906505 15.704271684446924 a53.04765916836501,53.04765916836501 0 0,0 -0.44060777058754297,-0.7998310867946862 l 28.202331176945563 -15.221070079254416" fill="#7bff26" stroke="none" /><path d="M 81.51974371655577 109.97397251340807 l -28.29345896621106 15.270252625827426 a53.15121203826161,53.15121203826161 0 0,0 -0.4276078075557876,-0.8088728236858069 l 28.552119281991732 -14.780964787055494" fill="#79ff26" stroke="none" /><path d="M 81.35079622478065 109.6543875284942 l -28.98657385164867 15.005874806247128 a53.6404310994485,53.6404310994485 0 0,0 -0.4174281239766658,-0.8236252900223563 l 29.240580645411605 -14.504695304522087" fill="#74ff27" stroke="none" /><path d="M 80.45479744820244 107.68017299344265 l -9.758494694926267 3.834543398258785 a31.48484343154604,31.48484343154604 0 0,0 -0.19386525532388732,-0.50612100687799 l 9.823054229843663 -3.665998824547637" fill="#ff7d0b" stroke="none" /><path d="M 80.32549172779594 107.34259656027581 l -1.7760217010594024 0.6628176243468105 a22.895674097986962,22.895674097986962 0 0,0 -0.13462191804916582,-0.37042170065814534 l 1.7871678801137927 -0.6321481266825479" fill="#ff0300" stroke="none" /><path d="M 80.20201598880116 107.00284435728193 l -10.063647502503352 3.5596633014106835 a31.674652400619514,31.674652400619514 0 0,0 -0.17739188328566358,-0.5155838481280897 l 10.123430216732244 -3.385906750193297" fill="#ff800b" stroke="none" /><path d="M 79.58551787078972 104.9243191809786 l -10.417896846491974 2.512973336376349 a31.716697704679643,31.716697704679643 0 0,0 -0.12345261528248448,-0.5318306355818208 l 10.459610027705015 -2.3332740434459542" fill="#ff800b" stroke="none" /><path d="M 79.50377843672027 104.57218783832718 l -10.57463877351712 2.358934042828591 a31.83455375217583,31.83455375217583 0 0,0 -0.11470438625889741,-0.5358607055451174 l 10.61367719850046 -2.1765595178673096" fill="#ff820b" stroke="none" /><path d="M 79.29508885075956 103.50808413554451 l -1.6663423795153058 0.28233249704998525 a22.690091288853715,22.690091288853715 0 0,0 -0.061931248859964476,-0.3856459457689986 l 1.670955382736561 -0.253607321587773" fill="#ff0000" stroke="none" /><path d="M 79.23777060512086 103.15116336523772 l -10.646414877760119 1.6158473107995839 a31.76833841784378,31.76833841784378 0 0,0 -0.07740272298927678,-0.5413544643087806 l 10.672651651765994 -1.4323473745104027" fill="#ff810b" stroke="none" /><path d="M 79.18660465613746 102.79330883721812 l -10.52271698573711 1.412225053250247 a31.617059497005183,31.617059497005183 0 0,0 -0.06774856949608764,-0.5400227572959254 l 10.545467064480045 -1.2308845416669127" fill="#ff7f0b" stroke="none" /><path d="M 79.1416061653843 102.43462659150553 l -10.668791704228871 1.2452791997456212 a31.74122137903981,31.74122137903981 0 0,0 -0.058672436260949215,-0.5432338910236332 l 10.688646441990873 -1.061448986837206" fill="#ff800b" stroke="none" /><path d="M 79.10278846688536 102.07522291339032 l -11.174354969803796 1.1096828607466127 a32.2293189928247,32.2293189928247 0 0,0 -0.0500711687550395,-0.5525311748486701 l 11.19180073483591 -0.9171702973493765" fill="#ff870c" stroke="none" /><path d="M 79.04373962182676 101.35467743843564 l -1.7903603611806245 0.1157344270491593 a22.794097176992153,22.794097176992153 0 0,0 -0.02194056581767739,-0.3917635415130964 l 1.7920872778858334 -0.08489916920062528" fill="#ff0200" stroke="none" /><path d="M 79.0235259727143 100.99374915477108 l -12.621706673918872 0.5979465530126736 a33.635862433672976,33.635862433672976 0 0,0 -0.022420492084849426,-0.5785732774928495 l 12.630129298854921 -0.3805960285058274" fill="#ff9a0e" stroke="none" /><path d="M 79.0095281055655 100.63252640178507 l -12.226820164822861 0.36844272025057123 a33.232370227434444,33.232370227434444 0 0,0 -0.012308537736076649,-0.5719293831251295 l 12.231350765243945 -0.1579235213353128" fill="#ff950d" stroke="none" /><line stroke="#e1ed5e" stroke-width="0.3" x1="15.007084014347285" x2="10.007500721073583" y1="101.09737516637583" y2="101.16192664675087" /><path d="M 14.007167355692545 101.11028546245083 a86.0,86.0 0 0,1 10.666146001902534,-42.60595125391555" fill="none" id="id82" stroke="none" /><text fill="#e1ed5e" style="font-size:6.75px; font-family:Arial;" text-anchor="middle"><textPath startOffset="22.20632615414155" xlink:href="#id82">October</textPath></text><path d="M 79.16333360222342 97.38593545837743 l -1.6856755313943579 -0.21147646898877082 a22.698889135310957,22.698889135310957 0 0,0 0.05197397174135318,-0.3872664586995095 l 1.681785560595171 0.24046126975293972" fill="#ff0000" stroke="none" /><path d="M 79.21141760316559 97.0276538004421 l -10.018158789067773 -1.4323937839930616 a31.12004236529659,31.12004236529659 0 0,0 0.08038470924936084,-0.5296347982739381 l 9.99201818637911 1.6046276946590918" fill="#ff780b" stroke="none" /><path d="M 79.3925641242962 95.95851677861259 l -11.996230018258228 -2.3526732113166795 a33.22475381716159,33.22475381716159 0 0,0 0.11489547691682125,-0.5602711497445161 l 11.95395524542641 2.558820017224598" fill="#ff940d" stroke="none" /><path d="M 79.46518482838121 95.60439243477599 l -12.865091671740121 -2.7538545541797212 a34.15653064557117,34.15653064557117 0 0,0 0.12801479439730323,-0.5738652221044445 l 12.81578249034078 2.974897945834125" fill="#ffa10e" stroke="none" /><path d="M 79.54389044137918 95.25157060432595 l -10.40819359276676 -2.4160299039331155 a31.684928374173133,31.684928374173133 0 0,0 0.12789726915311006,-0.5302167506904122 l 10.365063523352836 2.5948318862829245" fill="#ff800b" stroke="none" /><path d="M 79.62865764111835 94.90015583598534 l -10.331651243900215 -2.586467321230166 a31.65048499503081,31.65048499503081 0 0,0 0.13685619693488546,-0.5273627539463491 l 10.285598715095022 2.763926500725379" fill="#ff7f0b" stroke="none" /><path d="M 80.02781315780177 93.51064311812611 l -10.24281968702861 -3.328093861277767 a31.769937970594615,31.769937970594615 0 0,0 0.17346795544815732,-0.518647107371869 l 10.184014437808681 3.5039140715719577" fill="#ff810b" stroke="none" /><path d="M 80.14247586403 93.16781622104843 l -10.365647856932036 -3.566406902569062 a31.96202142346985,31.96202142346985 0 0,0 0.18347253398524552,-0.5187015602534301 l 10.30272224213698 3.744306089249103" fill="#ff830c" stroke="none" /><path d="M 80.2630227832202 92.82701384747504 l -10.27676975848942 -3.7348742089878586 a31.93440816989952,31.93440816989952 0 0,0 0.19220774579006836,-0.5150211990383876 l 10.210957424197725 3.9112185450555876" fill="#ff830c" stroke="none" /><path d="M 80.52162464483688 92.15188598940014 l -9.753566949412928 -3.929850618096902 a31.5155025613252,31.5155025613252 0 0,0 0.2070693276354906,-0.5014348014610739 l 9.684475934891239 4.097159990011288" fill="#ff7d0b" stroke="none" /><line stroke="#e1ed5e" stroke-width="0.3" x1="26.266209847984243" x2="21.928928074336255" y1="57.711370442889674" y2="55.22380399835377" /><path d="M 25.398753493254645 57.213857153982495 a86.0,86.0 0 0,1 29.58750427330803,-30.492523968695096" fill="none" id="id83" stroke="none" /><text fill="#e1ed5e" style="font-size:6.75px; font-family:Arial;" text-anchor="middle"><textPath startOffset="21.46611528233685" xlink:href="#id83">November</textPath></text><path d="M 82.15384107792192 88.93136811851018 l -9.16123592953844 -5.682026509250176 a31.780244385378644,31.780244385378644 0 0,0 0.29233648570544485,-0.4624061156271209 l 9.062071847587033 5.838880272591512" fill="#ff810b" stroke="none" /><path d="M 82.34701348167596 88.62581576622439 l -8.914588960061847 -5.7438539985783645 a31.604798681910054,31.604798681910054 0 0,0 0.29859516177745343,-0.4547809168236028 l 8.814397162926474 5.896452979379634" fill="#ff7f0b" stroke="none" /><path d="M 82.54541684631803 88.32363383020206 l -11.784151625579417 -7.883091115336066 a35.17777680270558,35.17777680270558 0 0,0 0.3410159385331704,-0.5003988106407773 l 11.646711221377506 8.08476794924726" fill="#ffae10" stroke="none" /><path d="M 82.7489923806493 88.02491185347247 l -8.61064359098139 -5.977228592993653 a31.48191035564652,31.48191035564652 0 0,0 0.3128513045566204,-0.4425059836151031 l 8.50647966662089 6.124561076940542" fill="#ff7d0b" stroke="none" /><path d="M 82.95767976084542 87.72973835380427 l -1.7327248168011629 -1.2475406261971247 a23.13510957675969,23.13510957675969 0 0,0 0.23546847048321126,-0.3211787291143134 l 1.7109937338043182 1.2771817989829388" fill="#ff0701" stroke="none" /><path d="M 83.17141714833178 87.43820079747576 l -1.351267093992324 -1.0086616355831381 a22.68621500835561,22.68621500835561 0 0,0 0.23628671655125197,-0.31092562176386135 l 1.333704437216963 1.031772033228026" fill="#ff0000" stroke="none" /><path d="M 83.39014120810768 87.1503855733568 l -2.8231694356429156 -2.184042571560143 a24.569359552739872,24.569359552739872 0 0,0 0.2616589050661814,-0.33228023755621283 l 2.785156449982763 2.232315203069404" fill="#ff1c02" stroke="none" /><path d="M 83.6137871275137 86.86637796730984 l -9.502060304707118 -7.615943326562954 a33.17750971207617,33.17750971207617 0 0,0 0.36100528563616846,-0.4425497944444826 l 9.369556526994558 7.778377290615519" fill="#ff940d" stroke="none" /><path d="M 83.84228863543731 86.58626213691792 l -8.107922833628958 -6.730999771596676 a31.53777825736129,31.53777825736129 0 0,0 0.35035375912566324,-0.4147083435405608 l 7.99085846101617 6.869567064766353" fill="#ff7e0b" stroke="none" /><path d="M 84.07557802195018 86.31012108654704 l -8.339482081920506 -7.1692712024191 a31.997518400462397,31.997518400462397 0 0,0 0.36265093926798647,-0.4145727141369478 l 8.214839279074676 7.311759472758991" fill="#ff840c" stroke="none" /><path d="M 84.31358615837235 86.03803664274999 l -8.203469472391479 -7.301639580099488 a31.982297206966052,31.982297206966052 0 0,0 0.36955751452276264,-0.408074637777296 l 8.07656831725267 7.44176700514634" fill="#ff840c" stroke="none" /><path d="M 85.05521093208273 85.24692304244772 l -11.563743773013224 -11.415403792276827 a37.24904962724375,37.24904962724375 0 0,0 0.45437490439480643,-0.4524236741554661 l 11.365533068451104 11.612763317082402" fill="#ffc912" stroke="none" /><path d="M 85.31137513191541 84.99185889309783 l -1.3391245688948126 -1.3682540517023678 a22.914516586770056,22.914516586770056 0 0,0 0.28426740644640774,-0.27346501977667037 l 1.3153739188359774 1.3911021582413516" fill="#ff0300" stroke="none" /><path d="M 85.57189188830299 84.74124197986013 l -1.4038906532050492 -1.4847149465580456 a23.043352010469405,23.043352010469405 0 0,0 0.29055704491963097,-0.2700411072020987 l 1.3781257244905623 1.508660639834792" fill="#ff0500" stroke="none" /><path d="M 85.83668400450813 84.49514656593479 l -1.2850205139735187 -1.4067365816923318 a22.905304577122564,22.905304577122564 0 0,0 0.29339405985779404,-0.26341208380079406 l 1.260615466519753 1.4286476742624046" fill="#ff0300" stroke="none" /><path d="M 86.10567301691215 84.25364557470407 l -7.294250744835324 -8.266529039870786 a32.02459052734194,32.02459052734194 0 0,0 0.41648163184832754,-0.3611687670607173 l 7.150875314340222 8.390862800351183" fill="#ff840c" stroke="none" /><path d="M 87.22198572758235 83.33499621200491 l -1.2432535356891339 -1.6214432414918265 a23.043222342130942,23.043222342130942 0 0,0 0.3168485276709958,-0.2386437420829301 l 1.215158854259748 1.642603573080611" fill="#ff0500" stroke="none" /><path d="M 87.51073957382395 83.11751280151077 l -6.244341013623185 -8.440852670871253 a31.499513727109985,31.499513727109985 0 0,0 0.4386752534319839,-0.31871622760186685 l 6.098120443837419 8.547088133289789" fill="#ff7d0b" stroke="none" /><path d="M 88.09926311788651 82.69761687909137 l -6.12991678631801 -8.91223541758763 a31.81683040200255,31.81683040200255 0 0,0 0.45391300130015516,-0.3064840847018466 l 5.975599090611316 9.01643141458814" fill="#ff810b" stroke="none" /><path d="M 88.39885842347998 82.49532879139004 l -6.08239730856963 -9.17757656385599 a32.0101529782621,32.0101529782621 0 0,0 0.4619110410525106,-0.30043978999206306 l 5.923519241732832 9.280915278007587" fill="#ff840c" stroke="none" /><line stroke="#e1ed5e" stroke-width="0.3" x1="56.762969772571076" x2="54.21961505331055" y1="26.818313649435495" y2="22.513508569990535" /><path d="M 56.25429882871897 25.957352633546506 a86.0,86.0 0 0,1 42.265352541879196,-11.944610805530505" fill="none" id="id84" stroke="none" /><text fill="#e1ed5e" style="font-size:6.75px; font-family:Arial;" text-anchor="middle"><textPath startOffset="22.20632615414155" xlink:href="#id84">December</textPath></text><path d="M 89.3179101791058 81.91981866633112 l -2.172436310250175 -3.6769998271631943 a25.27080873501162,25.27080873501162 0 0,0 0.37641864502645545,-0.21804597534168504 l 2.1088209327583995 3.7138499598949264" fill="#ff2603" stroke="none" /><path d="M 89.63071344664047 81.73862282372117 l -6.2543812125617375 -11.014606813987427 a33.666445737411244,33.666445737411244 0 0,0 0.5064009150005393,-0.2818115609291645 l 6.0638562084891525 11.120633772476776" fill="#ff9a0e" stroke="none" /><path d="M 89.94658935756843 81.56283822128135 l -5.2850399746502355 -9.692346257931613 a32.03962062379373,32.03962062379373 0 0,0 0.48647579729764284,-0.25985852319263625 l 5.117419130824287 9.781883507625997" fill="#ff840c" stroke="none" /><path d="M 90.26544431104013 81.39251694778311 l -5.0806395187487405 -9.711579733090195 a31.960277315453276,31.960277315453276 0 0,0 0.489661144761992,-0.25082345688913715 l 4.912717886397985 9.797595715291838" fill="#ff830c" stroke="none" /><path d="M 90.58718382345135 81.22770947309562 l -5.508719225945698 -10.986220892981882 a33.28995675418329,33.28995675418329 0 0,0 0.5144546422244197,-0.2524406586875411 l 5.318793316710852 11.079416711804253" fill="#ff950d" stroke="none" /><path d="M 91.56875222667455 80.76684994638697 l -4.380578077776955 -9.992864372697841 a31.910857100458877,31.910857100458877 0 0,0 0.5049760055864264,-0.21620437196977932 l 4.207918314400221 10.066788272630408" fill="#ff830c" stroke="none" /><path d="M 91.90106846888425 80.62456947434976 l -4.196247370071758 -10.038867358601674 a31.8805951047924,31.8805951047924 0 0,0 0.508140448985511,-0.2072832477880261 l 4.022823051497866 10.109611492573277" fill="#ff820c" stroke="none" /><path d="M 92.23578459929587 80.48803036053334 l -4.062635717679954 -10.20966326776497 a31.98827707221283,31.98827707221283 0 0,0 0.5133613283805042,-0.19917621986487696 l 3.8862912242997734 10.278082191520399" fill="#ff840c" stroke="none" /><path d="M 92.57280143429618 80.3572730644239 l -3.9084734931413565 -10.336747682393197 a32.050996230930934,32.050996230930934 0 0,0 0.5177268761013588,-0.1906831777449709 l 3.7299642912674282 10.40249412794449" fill="#ff850c" stroke="none" /><path d="M 92.91201910852362 80.23233633223022 l -3.6807046218160977 -10.26511387918135 a31.905051557219707,31.905051557219707 0 0,0 0.5185603932270375,-0.18091553899668483 l 3.503462224525775 10.326950271350244" fill="#ff830c" stroke="none" /><path d="M 93.25333710446033 80.11325718540243 l -0.6022455003253265 -1.7752037654254829 a22.874579433217733,22.874579433217733 0 0,0 0.37396362159067337,-0.12328992643724951 l 0.5715990564922439 1.7853074161219662" fill="#ff0300" stroke="none" /><path d="M 93.94186890950719 79.89281104454417 l -4.174118390685548 -13.854072477182083 a35.46922902377571,35.46922902377571 0 0,0 0.5861033067170721,-0.17109962724161276 l 3.9350248662450547 13.923870433342394" fill="#ffb210" stroke="none" /><path d="M 94.28887869178378 79.79150937346287 l -2.9975575379046697 -10.60669352620915 a32.02212768715624,32.02212768715624 0 0,0 0.5317230245742314,-0.14533998856975736 l 2.8145366241067156 10.656720055605204" fill="#ff840c" stroke="none" /></svg>