<?xml version="1.0" encoding="utf-8" ?>
<svg baseProfile="full" height="200mm" version="1.1" viewBox="0,0,200,200" width="200mm" xmlns="http://www.w3.org/2000/svg" xmlns:ev="http://www.w3.org/2001/xml-events" xmlns:xlink="http://www.w3.org/1999/xlink"><defs /><rect fill="#1a1a1a" height="200" width="200" x="0" y="0" /><text alignment-baseline="middle" fill="#e1ed5e" style="dominant-baseline: central; font-size:9.0px; font-family:Arial;" text-anchor="middle" x="100.0" y="100.0">2023</text><line stroke="#e1ed5e" stroke-width="0.3" x1="100.0" x2="100.0" y1="15.0" y2="10.0" /><path d="M 100.0 14.0 a86.0,86.0 0 0,1 42.46469731375804,11.215312516191453" fill="none" id="id49" stroke="none" /><text fill="#e1ed5e" style="font-size:6.75px; font-family:Arial;" text-anchor="middle"><textPath startOffset="22.20632615414155" xlink:href="#id49">January</textPath></text><path d="M 105.71112130821622 79.79150937346287 l 6.010929753438027 -21.26934642490817 a43.10240651701802,43.10240651701802 0 0,0 0.7122360333841313,0.20792122894282333 l -6.376156004545585 21.162726867046644" fill="#f1ff19" stroke="none" /><path d="M 106.0581310904928 79.89281104454417 l 18.174393271478365 -60.321566866367476 a84.0,84.0 0 0,0 1.380858509157127,0.4290394604699177 l -19.21003715334621 59.99978727101504" fill="#4dd2ff" stroke="none" /><path d="M 110.36928655335952 81.73862282372117 l 9.10701692864392 -16.038390898826275 a39.443636842069964,39.443636842069964 0 0,0 0.5875284994119259,0.34033442919998824 l -9.381742160521176 15.87925231223624" fill="#ffe015" stroke="none" /><line stroke="#e1ed5e" stroke-width="0.3" x1="143.23703022742887" x2="145.7803849466894" y1="26.81831364943548" y2="22.513508569990506" /><path d="M 143.74570117128098 25.957352633546492 a86.0,86.0 0 0,1 28.547481713284135,27.462654790039103" fill="none" id="id50" stroke="none" /><text fill="#e1ed5e" style="font-size:6.75px; font-family:Arial;" text-anchor="middle"><textPath startOffset="19.985693538727396" xlink:href="#id50">February</textPath></text><path d="M 112.48926042617603 83.11751280151076 l 14.105675394021803 -19.06749288104415 a44.7179122835502,44.7179122835502 0 0,0 0.6148794841795415,0.4631144796954695 l -14.431801031959727 18.821861811842833" fill="#ddff1b" stroke="none" /><path d="M 115.68641384162765 86.03803664274999 l 17.66871137984918 -15.726341491809292 a44.653777257372965,44.653777257372965 0 0,0 0.5060934432970097,0.5785522927861801 l -17.93679668672404 15.419873642820164" fill="#deff1b" stroke="none" /><line stroke="#e1ed5e" stroke-width="0.3" x1="172.23445277983987" x2="176.4835382374775" y1="55.19839476539836" y2="52.563006222186495" /><path d="M 173.08426987136738 54.67131705675599 a86.0,86.0 0 0,1 12.851231095245387,41.99856678651699" fill="none" id="id51" stroke="none" /><text fill="#e1ed5e" style="font-size:6.75px; font-family:Arial;" text-anchor="middle"><textPath startOffset="22.20632615414155" xlink:href="#id51">March</textPath></text><line stroke="#e1ed5e" stroke-width="0.3" x1="184.98032266829074" x2="189.97916517819016" y1="98.17113171792111" y2="98.06355123074" /><path d="M 185.9800911702706 98.14961562048488 a86.0,86.0 0 0,1 -9.607161424134198,41.387399972396054" fill="none" id="id52" stroke="none" /><text fill="#e1ed5e" style="font-size:6.75px; font-family:Arial;" text-anchor="middle"><textPath startOffset="21.466115282336823" xlink:href="#id52">April</textPath></text><line stroke="#e1ed5e" stroke-width="0.3" x1="174.80103733775053" x2="179.2010983576182" y1="140.37084112569926" y2="142.7455964860345" /><path d="M 175.68104954172406 140.8457921977663 a86.0,86.0 0 0,1 -30.038265399797805,32.042727171017184" fill="none" id="id53" stroke="none" /><text fill="#e1ed5e" style="font-size:6.75px; font-family:Arial;" text-anchor="middle"><textPath startOffset="22.206326154141568" xlink:href="#id53">May</textPath></text><line stroke="#e1ed5e" stroke-width="0.3" x1="143.8653032363475" x2="146.44561519142675" y1="172.8068346515853" y2="177.08958963109032" /><path d="M 144.38136562736335 173.6633856474863 a86.0,86.0 0 0,1 -40.68145358897372,12.25698825130547" fill="none" id="id54" stroke="none" /><text fill="#e1ed5e" style="font-size:6.75px; font-family:Arial;" text-anchor="middle"><textPath startOffset="21.466115282336833" xlink:href="#id54">June</textPath></text><line stroke="#e1ed5e" stroke-width="0.3" x1="102.19456741930631" x2="102.32365962044197" y1="184.97166512339345" y2="189.96999836594603" /><path d="M 102.22038585953345 185.97133177190398 a86.0,86.0 0 0,1 -42.740103519485714,-10.115201625700543" fill="none" id="id55" stroke="none" /><text fill="#e1ed5e" style="font-size:6.75px; font-family:Arial;" text-anchor="middle"><textPath startOffset="22.20632615414155" xlink:href="#id55">July</textPath></text><line stroke="#e1ed5e" stroke-width="0.3" x1="58.666819895761336" x2="56.23545636021788" y1="174.27360380694188" y2="178.64263932499728" /><path d="M 58.180547188652646 175.14741091055294 a86.0,86.0 0 0,1 -31.652253787137756,-30.449443065178592" fill="none" id="id56" stroke="none" /><text fill="#e1ed5e" style="font-size:6.75px; font-family:Arial;" text-anchor="middle"><textPath startOffset="22.20632615414155" xlink:href="#id56">August</textPath></text><line stroke="#e1ed5e" stroke-width="0.3" x1="26.63291911575756" x2="22.317208475507996" y1="142.92168965132927" y2="145.44649492493687" /><path d="M 25.769776987707644 143.4266507060508 a86.0,86.0 0 0,1 -11.730757126820373,-40.83630448921669" fill="none" id="id57" stroke="none" /><text fill="#e1ed5e" style="font-size:6.75px; font-family:Arial;" text-anchor="middle"><textPath startOffset="21.46611528233685" xlink:href="#id57">September</textPath></text><line stroke="#e1ed5e" stroke-width="0.3" x1="15.007084014347285" x2="10.007500721073583" y1="101.09737516637583" y2="101.16192664675087" /><path d="M 14.007167355692545 101.11028546245083 a86.0,86.0 0 0,1 10.666146001902534,-42.60595125391555" fill="none" id="id58" stroke="none" /><text fill="#e1ed5e" style="font-size:6.75px; font-family:Arial;" text-anchor="middle"><textPath startOffset="22.20632615414155" xlink:href="#id58">October</textPath></text><line stroke="#e1ed5e" stroke-width="0.3" x1="26.266209847984243" x2="21.928928074336255" y1="57.711370442889674" y2="55.22380399835377" /><path d="M 25.398753493254645 57.213857153982495 a86.0,86.0 0 0,1 29.58750427330803,-30.492523968695096" fill="none" id="id59" stroke="none" /><text fill="#e1ed5e" style="font-size:6.75px; font-family:Arial;" text-anchor="middle"><textPath startOffset="21.46611528233685" xlink:href="#id59">November</textPath></text><line stroke="#e1ed5e" stroke-width="0.3" x1="56.762969772571076" x2="54.21961505331055" y1="26.818313649435495" y2="22.513508569990535" /><path d="M 56.25429882871897 25.957352633546506 a86.0,86.0 0 0,1 42.265352541879196,-11.944610805530505" fill="none" id="id60" stroke="none" /><text fill="#e1ed5e" style="font-size:6.75px; font-family:Arial;" text-anchor="middle"><textPath startOffset="22.20632615414155" xlink:href="#id60">December</textPath></text><path d="M 89.63071344664047 81.73862282372117 l -18.398397207342956 -32.40146456685888 a58.26064848974822,58.26064848974822 0 0,0 0.87633978156917,-0.48768213965029633 l 17.83793333670174 32.713362104069354" fill="#47ff2c" stroke="none" /><path d="M 89.94658935756843 81.56283822128135 l -1.0872291927788964 -1.9938925436116375 a23.271051473018773,23.271051473018773 0 0,0 0.3533376206984197,-0.18874072012037604 l 1.0527465255521713 2.012311990233763" fill="#ff0000" stroke="none" /><path d="M 90.58718382345135 81.22770947309562 l -6.003752797420148 -11.973482712398065 a34.394377026074245,34.394377026074245 0 0,0 0.5315220761065518,-0.2608155743704518 l 5.796759454303171 12.075053446903345" fill="#ff9e0e" stroke="none" /><path d="M 91.90106846888425 80.62456947434976 l -16.07108027266292 -38.44755300113401 a62.671260514956636,62.671260514956636 0 0,0 0.9989086575040383,-0.4074799224985887 l 15.4068877455705 38.718493809816174" fill="#32ff49" stroke="none" /><path d="M 93.25333710446033 80.11325718540243 l -2.728537382288212 -8.042749730011606 a29.492981777099605,29.492981777099605 0 0,0 0.4821641555890423,-0.15896194132572314 l 2.5896904044567606 8.088525395596562" fill="#ff5a08" stroke="none" /><path d="M 93.59665428221793 80.00007090966166 l -5.831652964235744 -18.214329024948263 a40.125113283961284,40.125113283961284 0 0,0 0.6596083822505944,-0.20494353517433725 l 5.51725920927442 18.312012695005127" fill="#ffe815" stroke="none" /><path d="M 94.28887869178378 79.79150937346287 l -8.561418119070142 -30.294110118128764 a52.4806446576123,52.4806446576123 0 0,0 0.8714338841432944,-0.23819579914204758 l 8.038686345703125 30.43699245809711" fill="#84ff25" stroke="none" /><path d="M 94.63758080256005 79.69619591428918 l -3.728754815627477 -14.118237398578325 a35.60233678962654,35.60233678962654 0 0,0 0.5938658152118672,-0.1513896192714621 l 3.4851801117306103 14.18033001401865" fill="#ffae10" stroke="none" /><path d="M 97.47563105711357 79.15227682838746 l -1.6436501866018625 -13.574229780399655 a34.673379248269434,34.673379248269434 0 0,0 0.5931348727530269,-0.06664561396708249 l 1.4097486103391175 13.600511347837335" fill="#ffa10e" stroke="none" /><path d="M 99.27714615592234 79.0124445844662 l -0.25229391638468535 -7.3251772740891 a28.32952074265952,28.32952074265952 0 0,0 0.48750163019482573,-0.012590728838027396 l 0.12616565099498062 7.328434795069487" fill="#ff4a06" stroke="none" /></svg>