<?xml version="1.0" encoding="utf-8" ?>
<svg baseProfile="full" height="200mm" version="1.1" viewBox="0,0,200,200" width="200mm" xmlns="http://www.w3.org/2000/svg" xmlns:ev="http://www.w3.org/2001/xml-events" xmlns:xlink="http://www.w3.org/1999/xlink"><defs /><rect fill="#1a1a1a" height="200" width="200" x="0" y="0" /><text alignment-baseline="middle" fill="#e1ed5e" style="dominant-baseline: central; font-size:9.0px; font-family:Arial;" text-anchor="middle" x="100.0" y="100.0">2026</text><line stroke="#e1ed5e" stroke-width="0.3" x1="100.0" x2="100.0" y1="15.0" y2="10.0" /><path d="M 100.0 14.0 a86.0,86.0 0 0,1 42.46469731375804,11.215312516191453" fill="none" id="id85" stroke="none" /><text fill="#e1ed5e" style="font-size:6.75px; font-family:Arial;" text-anchor="middle"><textPath startOffset="22.20632615414155" xlink:href="#id85">January</textPath></text><path d="M 100.72285384407766 79.0124445844662 l 0.737594814106461 -21.4155491626694 a42.42824752630291,42.42824752630291 0 0,0 0.7296833599894744,0.03142170041086761 l -1.1061190064852668 21.39967973573434" fill="red" stroke="none" /><path d="M 101.08401301168833 79.027996857942 l 2.6547339203898837 -51.360165901543674 a72.42872984647937,72.42872984647937 0 0,0 1.2445254515691841,0.07507317389024029 l -3.53842142079868 51.30685945827313" fill="red" stroke="none" /><path d="M 101.80526077348638 79.07773832637324 l 2.95569412011595 -34.25533126100057 a55.382609667280505,55.382609667280505 0 0,0 0.9490861721630088,0.09012716803370183 l -3.544905419369203 34.19937854845169" fill="red" stroke="none" /><path d="M 102.16513564639614 79.11191278185805 l 3.1790730969466954 -30.670021175071362 a51.834342941516624,51.834342941516624 0 0,0 0.8866962802994486,0.09963065858629576 l -3.706536080755869 30.610754563014467" fill="red" stroke="none" /><path d="M 102.52436894288641 79.15227682838746 l 7.57310682865922 -62.54316951483763 a84.0,84.0 0 0,0 1.4339410859686157,0.1861667073434532 l -8.648562643135682 62.40354448433004" fill="red" stroke="none" /><path d="M 102.88285421437855 79.19881850522331 l 6.79059174340003 -48.99738967266679 a70.46570863700111,70.46570863700111 0 0,0 1.200034439269904,0.1768538820321909 l -7.632995163098589 48.87324130647363" fill="red" stroke="none" /><path d="M 103.2404852339499 79.25152402106235 l 3.747983196441987 -23.997930466126203 a45.28884609646658,45.28884609646658 0 0,0 0.7692004138229066,0.12692465904425 l -4.160512816403768 23.929859544142328" fill="red" stroke="none" /><path d="M 103.95276090670814 79.375362276772 l 11.047821422588761 -57.645104232112786 a79.6942279965974,79.6942279965974 0 0,0 1.3450624463609315,0.2698068730494792 l -12.038450278416818 57.446393402986104" fill="red" stroke="none" /><path d="M 104.307194497241 79.44645832069477 l 10.369923248286979 -49.48433367273981 a71.55921861748274,71.55921861748274 0 0,0 1.2034123194596358,0.2630193220988737 l -11.220178291900142 49.29850085254507" fill="red" stroke="none" /><path d="M 104.66035177308747 79.52364482259891 l 12.505565094197852 -54.94615106989223 a77.3512970189741,77.3512970189741 0 0,0 1.2957311463810215,0.3066576989540683 l -13.449519927541397 54.72274745879729" fill="red" stroke="none" /><path d="M 105.01212808612495 79.60689891045804 l 13.68331743462595 -55.67401129613957 a78.33087047847272,78.33087047847272 0 0,0 1.3066003652463605,0.3330815257720045 l -14.639626688557335 55.430226774198694" fill="red" stroke="none" /><path d="M 105.36241919743992 79.69619591428918 l 8.220047450429147 -31.123682588716505 a53.19088066472369,53.19088066472369 0 0,0 0.8832272553256599,0.2414193729833633 l -8.754572594978518 30.977576674906846" fill="red" stroke="none" /><path d="M 106.0581310904928 79.89281104454417 l 13.654266217907328 -45.319077251797644 a68.33136115625545,68.33136115625545 0 0,0 1.1232850177964777,0.349010122900654 l -14.432336608414523 45.07732699401447" fill="red" stroke="none" /><path d="M 106.40334571778207 80.00007090966166 l 4.224727609984658 -13.195328871756445 a34.85514443852448,34.85514443852448 0 0,0 0.5698271342365298,0.1878630471144277 l -4.451237566463606 13.120652100382781" fill="red" stroke="none" /><path d="M 106.74666289553966 80.11325718540242 l 17.091851682578408 -50.38064950027352 a74.20095147653535,74.20095147653535 0 0,0 1.2060057168842535,0.4207517140779172 l -17.956539403525934 50.0789769330234" fill="red" stroke="none" /><path d="M 107.08798089147638 80.2323363322302 l 8.841294960461116 -24.65747973109159 a47.19465218832019,47.19465218832019 0 0,0 0.7623457214901981,0.28077836292503866 l -9.26442300772389 24.50163810036023" fill="red" stroke="none" /><line stroke="#e1ed5e" stroke-width="0.3" x1="143.23703022742887" x2="145.7803849466894" y1="26.81831364943548" y2="22.513508569990506" /><path d="M 143.74570117128098 25.957352633546492 a86.0,86.0 0 0,1 28.547481713284135,27.462654790039103" fill="none" id="id86" stroke="none" /><text fill="#e1ed5e" style="font-size:6.75px; font-family:Arial;" text-anchor="middle"><textPath startOffset="19.985693538727396" xlink:href="#id86">February</textPath></text><line stroke="#e1ed5e" stroke-width="0.3" x1="172.23445277983987" x2="176.4835382374775" y1="55.19839476539836" y2="52.563006222186495" /><path d="M 173.08426987136738 54.67131705675599 a86.0,86.0 0 0,1 12.851231095245387,41.99856678651699" fill="none" id="id87" stroke="none" /><text fill="#e1ed5e" style="font-size:6.75px; font-family:Arial;" text-anchor="middle"><textPath startOffset="22.20632615414155" xlink:href="#id87">March</textPath></text><line stroke="#e1ed5e" stroke-width="0.3" x1="184.98032266829074" x2="189.97916517819016" y1="98.17113171792111" y2="98.06355123074" /><path d="M 185.9800911702706 98.14961562048488 a86.0,86.0 0 0,1 -9.607161424134198,41.387399972396054" fill="none" id="id88" stroke="none" /><text fill="#e1ed5e" style="font-size:6.75px; font-family:Arial;" text-anchor="middle"><textPath startOffset="21.466115282336823" xlink:href="#id88">April</textPath></text><line stroke="#e1ed5e" stroke-width="0.3" x1="174.80103733775053" x2="179.2010983576182" y1="140.37084112569926" y2="142.7455964860345" /><path d="M 175.68104954172406 140.8457921977663 a86.0,86.0 0 0,1 -30.038265399797805,32.042727171017184" fill="none" id="id89" stroke="none" /><text fill="#e1ed5e" style="font-size:6.75px; font-family:Arial;" text-anchor="middle"><textPath startOffset="22.206326154141568" xlink:href="#id89">May</textPath></text><line stroke="#e1ed5e" stroke-width="0.3" x1="143.8653032363475" x2="146.44561519142675" y1="172.8068346515853" y2="177.08958963109032" /><path d="M 144.38136562736335 173.6633856474863 a86.0,86.0 0 0,1 -40.68145358897372,12.25698825130547" fill="none" id="id90" stroke="none" /><text fill="#e1ed5e" style="font-size:6.75px; font-family:Arial;" text-anchor="middle"><textPath startOffset="21.466115282336833" xlink:href="#id90">June</textPath></text><line stroke="#e1ed5e" stroke-width="0.3" x1="102.19456741930631" x2="102.32365962044197" y1="184.97166512339345" y2="189.96999836594603" /><path d="M 102.22038585953345 185.97133177190398 a86.0,86.0 0 0,1 -42.740103519485714,-10.115201625700543" fill="none" id="id91" stroke="none" /><text fill="#e1ed5e" style="font-size:6.75px; font-family:Arial;" text-anchor="middle"><textPath startOffset="22.20632615414155" xlink:href="#id91">July</textPath></text><line stroke="#e1ed5e" stroke-width="0.3" x1="58.666819895761336" x2="56.23545636021788" y1="174.27360380694188" y2="178.64263932499728" /><path d="M 58.180547188652646 175.14741091055294 a86.0,86.0 0 0,1 -31.652253787137756,-30.449443065178592" fill="none" id="id92" stroke="none" /><text fill="#e1ed5e" style="font-size:6.75px; font-family:Arial;" text-anchor="middle"><textPath startOffset="22.20632615414155" xlink:href="#id92">August</textPath></text><line stroke="#e1ed5e" stroke-width="0.3" x1="26.63291911575756" x2="22.317208475507996" y1="142.92168965132927" y2="145.44649492493687" /><path d="M 25.769776987707644 143.4266507060508 a86.0,86.0 0 0,1 -11.730757126820373,-40.83630448921669" fill="none" id="id93" stroke="none" /><text fill="#e1ed5e" style="font-size:6.75px; font-family:Arial;" text-anchor="middle"><textPath startOffset="21.46611528233685" xlink:href="#id93">September</textPath></text><line stroke="#e1ed5e" stroke-width="0.3" x1="15.007084014347285" x2="10.007500721073583" y1="101.09737516637583" y2="101.16192664675087" /><path d="M 14.007167355692545 101.11028546245083 a86.0,86.0 0 0,1 10.666146001902534,-42.60595125391555" fill="none" id="id94" stroke="none" /><text fill="#e1ed5e" style="font-size:6.75px; font-family:Arial;" text-anchor="middle"><textPath startOffset="22.20632615414155" xlink:href="#id94">October</textPath></text><line stroke="#e1ed5e" stroke-width="0.3" x1="26.266209847984243" x2="21.928928074336255" y1="57.711370442889674" y2="55.22380399835377" /><path d="M 25.398753493254645 57.213857153982495 a86.0,86.0 0 0,1 29.58750427330803,-30.492523968695096" fill="none" id="id95" stroke="none" /><text fill="#e1ed5e" style="font-size:6.75px; font-family:Arial;" text-anchor="middle"><textPath startOffset="21.46611528233685" xlink:href="#id95">November</textPath></text><line stroke="#e1ed5e" stroke-width="0.3" x1="56.762969772571076" x2="54.21961505331055" y1="26.818313649435495" y2="22.513508569990535" /><path d="M 56.25429882871897 25.957352633546506 a86.0,86.0 0 0,1 42.265352541879196,-11.944610805530505" fill="none" id="id96" stroke="none" /><text fill="#e1ed5e" style="font-size:6.75px; font-family:Arial;" text-anchor="middle"><textPath startOffset="22.20632615414155" xlink:href="#id96">December</textPath></text></svg>