<?xml version="1.0" encoding="utf-8" ?>
<svg baseProfile="full" height="200mm" version="1.1" viewBox="0,0,200,200" width="200mm" xmlns="http://www.w3.org/2000/svg" xmlns:ev="http://www.w3.org/2001/xml-events" xmlns:xlink="http://www.w3.org/1999/xlink"><defs /><rect fill="#1a1a1a" height="200" width="200" x="0" y="0" /><text alignment-baseline="middle" fill="#e1ed5e" style="dominant-baseline: central; font-size:9.0px; font-family:Arial;" text-anchor="middle" x="100.0" y="100.0">2026</text><line stroke="#e1ed5e" stroke-width="0.3" x1="100.0" x2="100.0" y1="15.0" y2="10.0" /><path d="M 100.0 14.0 a86.0,86.0 0 0,1 42.46469731375804,11.215312516191453" fill="none" id="id85" stroke="none" /><text fill="#e1ed5e" style="font-size:6.75px; font-family:Arial;" text-anchor="middle"><textPath startOffset="22.20632615414155" xlink:href="#id85">January</textPath></text><path d="M 100.72285384407766 79.0124445844662 l 0.47174104743885215 -13.696671126564802 a34.70479257650814,34.70479257650814 0 0,0 0.5968549523348851,0.02570182976528333 l -0.7074368321630687 13.686521570275325" fill="#ff990e" stroke="none" /><path d="M 101.08401301168833 79.027996857942 l 1.6978792913468292 -32.84824946658366 a53.89210067944731,53.89210067944731 0 0,0 0.926015009185768,0.05585975419138385 l -2.263056349372209 32.814156443011974" fill="#79ff26" stroke="none" /><path d="M 101.80526077348638 79.07773832637324 l 1.8903633993434028 -21.908567604295627 a42.989970628756396,42.989970628756396 0 0,0 0.7367147722103734,0.06995994464505864 l -2.2672032986440205 21.87278211513539" fill="#f8ff18" stroke="none" /><path d="M 102.16513564639614 79.11191278185805 l 2.0332291441813886 -19.615522828244366 a40.72061755062768,40.72061755062768 0 0,0 0.6965810322777009,0.07826899531044783 l -2.370576879968815 19.577617879463318" fill="#ffe915" stroke="none" /><path d="M 102.52436894288641 79.15227682838746 l 4.843506596566689 -40.00052567183139 a61.29269921677905,61.29269921677905 0 0,0 1.0463109485339983,0.13584119044500487 l -5.531332273608533 39.91122615822225" fill="#30ff34" stroke="none" /><path d="M 102.88285421437855 79.19881850522331 l 4.343036041599375 -31.337096579175856 a52.63661777230977,52.63661777230977 0 0,0 0.8964041562237276,0.13210667103388074 l -4.881809178251759 31.25769542398101" fill="#87ff25" stroke="none" /><path d="M 103.2404852339499 79.25152402106235 l 2.3970850730758584 -15.348276096774626 a36.534336033135965,36.534336033135965 0 0,0 0.6205109826727477,0.10238962888426571 l -2.6609252618874817 15.304740204950734" fill="#ffb210" stroke="none" /><path d="M 103.95276090670814 79.375362276772 l 7.065818183826302 -36.86788644673647 a58.538871022665894,58.538871022665894 0 0,0 0.9880067734430631,0.19818486406752814 l -7.69939136673649 36.740797626591736" fill="#47ff2c" stroke="none" /><path d="M 104.307194497241 79.44645832069477 l 6.632257116576374 -31.648529724102165 a53.33599029189853,53.33599029189853 0 0,0 0.896952049336227,0.19603897696305983 l -7.176051890066129 31.529677249043235" fill="#7fff26" stroke="none" /><path d="M 104.66035177308747 79.52364482259891 l 7.998142426608971 -35.141726002839206 a57.04041049620478,57.04041049620478 0 0,0 0.9554983475475758,0.22613558795104527 l -8.60186446111907 34.99884450274729" fill="#57ff2a" stroke="none" /><path d="M 105.01212808612495 79.60689891045804 l 8.751393550493527 -35.60724113249064 a57.66691301627331,57.66691301627331 0 0,0 0.9619146212654464,0.2452134548830344 l -9.363017060443998 35.45132468143874" fill="#50ff2b" stroke="none" /><path d="M 105.36241919743992 79.69619591428918 l 5.2572682455205255 -19.90566954072472 a41.588213843602226,41.588213843602226 0 0,0 0.6905665690799898,0.18875792963283575 l -5.5991327038242265 19.81222507026559" fill="#fff417" stroke="none" /><path d="M 106.0581310904928 79.89281104454417 l 8.732813361015353 -28.98457061093105 a51.27156029507525,51.27156029507525 0 0,0 0.8428425037049685,0.26187526864821353 l -9.23044123743104 28.829955207400317" fill="#96ff23" stroke="none" /><path d="M 106.40334571778207 80.00007090966166 l 2.7019949025703744 -8.43929233803433 a29.86128837248406,29.86128837248406 0 0,0 0.48818539277364487,0.16094704855725925 l -2.846863117586437 8.391531565217834" fill="#ff5607" stroke="none" /><path d="M 106.74666289553966 80.11325718540242 l 10.931378395300486 -32.22178343905541 a55.02555453794438,55.02555453794438 0 0,0 0.8943434285808674,0.3120188613383135 l -11.484403827944627 32.028843724544885" fill="#6cff28" stroke="none" /><path d="M 107.08798089147638 80.2323363322302 l 5.6545974369632415 -15.770101813471422 a37.75322605892268,37.75322605892268 0 0,0 0.609836263728091,0.22460784255099553 l -5.925216026463909 15.670430703114102" fill="#ffc212" stroke="none" /><path d="M 107.4271985657038 80.35727306442388 l 11.312359200818184 -29.9178190556115 a52.98508039278073,52.98508039278073 0 0,0 0.8503268617244363,0.32991361172866723 l -11.825669227542287 29.718662739992286" fill="#83ff25" stroke="none" /><path d="M 108.43124777332544 80.76684994638697 l 6.978916583759415 -15.920128725401216 a38.382628550262964,38.382628550262964 0 0,0 0.6028227255297243,0.27046898508450784 l -7.25192142775592 15.797639409800176" fill="#ffcb12" stroke="none" /><path d="M 109.73455568895987 81.39251694778311 l 7.453013253274527 -14.246342845984762 a37.07811217272808,37.07811217272808 0 0,0 0.5629780824596796,0.30072339448427904 l -7.697136382262517 14.11594072499873" fill="#ffb911" stroke="none" /><path d="M 110.36928655335952 81.73862282372117 l 1.9102755851316968 -3.364191238347501 a24.8687123826054,24.8687123826054 0 0,0 0.37042926155518663,0.21457653784717592 l -1.9679015791522119 3.3308105431102755" fill="#ff0d01" stroke="none" /><line stroke="#e1ed5e" stroke-width="0.3" x1="143.23703022742887" x2="145.7803849466894" y1="26.81831364943548" y2="22.513508569990506" /><path d="M 143.74570117128098 25.957352633546492 a86.0,86.0 0 0,1 28.547481713284135,27.462654790039103" fill="none" id="id86" stroke="none" /><text fill="#e1ed5e" style="font-size:6.75px; font-family:Arial;" text-anchor="middle"><textPath startOffset="19.985693538727396" xlink:href="#id86">February</textPath></text><path d="M 110.68208982089419 81.91981866633111 l 4.4277531556943135 -7.494280735132077 a29.704552931927793,29.704552931927793 0 0,0 0.43798363779861615,0.2638802411412943 l -4.556098859710567 7.416953884532168" fill="#ff5407" stroke="none" /><path d="M 110.99172775467656 82.1063720568725 l 5.529723683504213 -9.001934948655077 a31.564690096530285,31.564690096530285 0 0,0 0.4605150717562751,0.28837449568604556 l -5.683857907632751 8.905416111646087" fill="#ff6e0a" stroke="none" /><path d="M 111.90073688211348 82.69761687909136 l 8.536851721934653 -12.411658252969483 a36.06409963823939,36.06409963823939 0 0,0 0.5084503277064383,0.3562019474782151 l -8.749233189224741 12.262871462727333" fill="#ffac0f" stroke="none" /><path d="M 114.68862486808459 84.99185889309783 l 3.2162667863068695 -3.286229051380953 a25.598225029165153,25.598225029165153 0 0,0 0.3122547062729956,0.3109137853300405 l -3.2723572927471873 3.2303794154007934" fill="#ff1802" stroke="none" /><path d="M 115.19652480421416 85.50635884689758 l 12.345078242896298 -11.774082322419739 a38.059600562684594,38.059600562684594 0 0,0 0.44807509389747563,0.47797526903738674 l -12.545920658764235 11.559837636504296" fill="#ffc612" stroke="none" /><path d="M 116.38621287248628 86.86637796730983 l 6.554911090147481 -5.253790206792528 a29.400545871354286,29.400545871354286 0 0,0 0.31311010059230304,0.39761803092367676 l -6.6443752713337485 5.140179781915814" fill="#ff4f07" stroke="none" /><path d="M 116.60985879189232 87.15038557335679 l 7.883588799514867 -6.098852352761518 a30.967295138633197,30.967295138633197 0 0,0 0.3225377387142822,0.424421856699233 l -7.987402478453262 5.962245720181251" fill="#ff6509" stroke="none" /><path d="M 116.82858285166822 87.43820079747576 l 6.882721972618309 -5.1376501603794935 a29.588789840414673,29.588789840414673 0 0,0 0.30115383997017076,0.41077349927582035 l -6.970138425102106 5.01841421743218" fill="#ff5207" stroke="none" /><path d="M 117.45458315368197 88.32363383020206 l 12.494255009303595 -8.358119768485368 a36.03211809100281,36.03211809100281 0 0,0 0.3404234983064543,0.5184883430344908 l -12.636275142967975 8.141813361473202" fill="#ffab0f" stroke="none" /><line stroke="#e1ed5e" stroke-width="0.3" x1="172.23445277983987" x2="176.4835382374775" y1="55.19839476539836" y2="52.563006222186495" /><path d="M 173.08426987136738 54.67131705675599 a86.0,86.0 0 0,1 12.851231095245387,41.99856678651699" fill="none" id="id87" stroke="none" /><text fill="#e1ed5e" style="font-size:6.75px; font-family:Arial;" text-anchor="middle"><textPath startOffset="22.20632615414155" xlink:href="#id87">March</textPath></text><path d="M 118.03404312379186 89.2402003453031 l 27.301348704228737 -16.289028497052538 a52.79144681274638,52.79144681274638 0 0,0 0.4588841850657679,0.784381821771486 l -27.577692563764835 15.816667262927156" fill="#85ff25" stroke="none" /><path d="M 118.21658344932153 89.55222093294921 l 26.47013962811235 -15.181451092510105 a51.514664494404,51.514664494404 0 0,0 0.4345442465032228,0.773005726779204 l -26.72754151590801 14.723561855796108" fill="#93ff23" stroke="none" /><path d="M 118.3937258080291 89.86733742301442 l 17.793959071166878 -9.802265460438823 a41.31525012357155,41.31525012357155 0 0,0 0.33778542023716934,0.6258650829849569 l -17.96005259062251 9.494519394121408" fill="#fff016" stroke="none" /><path d="M 118.73160827565052 90.50648371742162 l 18.263726667619373 -9.256385460771881 a41.47545808005037,41.47545808005037 0 0,0 0.3172674785109884,0.6395918767541937 l -18.42035415908377 8.940633995518738" fill="#fff216" stroke="none" /><path d="M 118.89224826269711 90.83032412892265 l 20.94246141078456 -10.164781894096492 a44.278949308264586,44.278949308264586 0 0,0 0.3269089655020315,0.6885536535277071 l -21.114328570128347 9.802785824928245" fill="#e9ff1a" stroke="none" /><path d="M 119.04729006885535 91.15688171328212 l 5.84625586748641 -2.7142513178362933 a27.445608418488927,27.445608418488927 0 0,0 0.1952528717739764,0.43021382120502644 l -5.892111056223733 2.613215487789204" fill="#ff3304" stroke="none" /><path d="M 119.7369772167798 92.82701384747503 l 5.621019461515581 -2.042840416629055 a26.98072376510988,26.98072376510988 0 0,0 0.1548782441621691,0.4378616523751093 l -5.65535078648756 1.9457811378273309" fill="#ff2c04" stroke="none" /><path d="M 119.85752413597 93.16781622104841 l 13.101807574814368 -4.507810569669447 a34.855602399732994,34.855602399732994 0 0,0 0.19031608087469384,0.5690208579273337 l -13.177460949460832 4.2816166088197996" fill="#ff9b0e" stroke="none" /><path d="M 120.6074358757038 95.95851677861258 l 29.51040462299612 -5.787513102530503 a51.07256704913821,51.07256704913821 0 0,0 0.16176451549231438,0.8641525101343788 l -29.605654862398296 5.2786825149335606" fill="#98ff23" stroke="none" /><path d="M 120.73433829027371 96.67025291283417 l 5.807015403140002 -0.9325541212377546 a26.881418628302423,26.881418628302423 0 0,0 0.0694361207893536,0.45749727990072875 l -5.822207417368656 0.8324577289449437" fill="#ff2b04" stroke="none" /><path d="M 120.83666639777658 97.38593545837742 l 11.681325934775979 -1.465481058356459 a32.77289303131866,32.77289303131866 0 0,0 0.06540477990446218,0.5603482121954649 l -11.70482106768403 1.2641891078361414" fill="#ff7f0b" stroke="none" /><path d="M 120.87857604477298 97.74499172005257 l 3.24907993366826 -0.35091962866247445 a24.267975673279462,24.267975673279462 0 0,0 0.04128199261539496,0.41570403190229227 l -3.2546390519658837 0.29494006605574724" fill="#ff0400" stroke="none" /><path d="M 120.91429891909075 98.10471618934814 l 62.74289675727228 -5.6858514319555935 a84.0,84.0 0 0,0 0.118102064722021,1.441144331168925 l -62.831473305813795 4.6049931835789" fill="#4dd2ff" stroke="none" /><path d="M 120.94382443527127 98.46500227214037 l 19.88019818171346 -1.4570432984979387 a40.93352088613301,40.93352088613301 0 0,0 0.04545454834157313,0.7031617441848356 l -19.902333321059448 1.1146224900600679" fill="#ffec16" stroke="none" /><path d="M 120.98425023603335 99.18683210126433 l 6.360475240003975 -0.24647696380368578 a27.365249105289557,27.365249105289557 0 0,0 0.01418862826456087,0.4708514964234501 l -6.363775562724181 0.13695531995523663" fill="#ff3204" stroke="none" /><line stroke="#e1ed5e" stroke-width="0.3" x1="184.98032266829074" x2="189.97916517819016" y1="98.17113171792111" y2="98.06355123074" /><path d="M 185.9800911702706 98.14961562048488 a86.0,86.0 0 0,1 -9.607161424134198,41.387399972396054" fill="none" id="id88" stroke="none" /><text fill="#e1ed5e" style="font-size:6.75px; font-family:Arial;" text-anchor="middle"><textPath startOffset="21.466115282336823" xlink:href="#id88">April</textPath></text><path d="M 120.99513854157772 99.54816195383933 l 7.0260460931481665 -0.1512080967065767 a28.02767298553029,28.02767298553029 0 0,0 0.0062288071585936185,0.4824279788194029 l -7.027607907424476 0.03024385982671104" fill="#ff3b05" stroke="none" /><path d="M 120.99980553446 99.90962569577887 l 3.0321535403447366 -0.013049109719164759 a24.03218161914645,24.03218161914645 0 0,0 -0.0017803300040029522,0.41368599397186034 l -3.0319289130512304 -0.03914636245638029" fill="#ff0000" stroke="none" /><path d="M 120.89721153311464 102.0752229133903 l 4.280864228600051 0.4251164095375183 a25.30192079254902,25.30192079254902 0 0,0 -0.04676963489378258,0.4330287331534186 l -4.272912292205217 -0.4987414645757283" fill="#ff1302" stroke="none" /><path d="M 120.8583938346157 102.4346265915055 l 7.221738231277637 0.8429333569098578 a28.27076610305189,28.27076610305189 0 0,0 -0.06057818128917619,0.4828677082789736 l -7.206158540741613 -0.9671188194762264" fill="#ff3f05" stroke="none" /><path d="M 120.23288151984713 105.62410040840565 l 6.435140192703551 1.7887652112443728 a27.679124963698975,27.679124963698975 0 0,0 -0.13155145123461592,0.45794785967674845 l -6.4033961045828365 -1.8992705464257034" fill="#ff3605" stroke="none" /><path d="M 119.41010516605496 108.01547362559984 l 5.418104446893832 2.2374259656651527 a26.86190504437622,26.86190504437622 0 0,0 -0.18016537946694083,0.4258577370671156 l -5.378788086234582 -2.330358228398432" fill="#ff2a04" stroke="none" /><path d="M 119.26925614724726 108.34839909993367 l 18.411929765823846 7.976962717733356 a41.06566948551027,41.06566948551027 0 0,0 -0.2865971416466882,0.6462008949775402 l -18.271891539445882 -8.292711949203584" fill="#ffed16" stroke="none" /><path d="M 118.64920377521936 109.65438752849418 l 2.8115285943226165 1.4554823318034005 a24.16593143559452,24.16593143559452 0 0,0 -0.19441778583109062,0.36776518253685647 l -2.786058300266633 -1.5036625294263914" fill="#ff0200" stroke="none" /><line stroke="#e1ed5e" stroke-width="0.3" x1="174.80103733775053" x2="179.2010983576182" y1="140.37084112569926" y2="142.7455964860345" /><path d="M 175.68104954172406 140.8457921977663 a86.0,86.0 0 0,1 -30.038265399797805,32.042727171017184" fill="none" id="id89" stroke="none" /><text fill="#e1ed5e" style="font-size:6.75px; font-family:Arial;" text-anchor="middle"><textPath startOffset="22.206326154141568" xlink:href="#id89">May</textPath></text><path d="M 118.30583269289576 110.29060199501025 l 9.759819160549862 5.486470689938668 a32.19622394730439,32.19622394730439 0 0,0 -0.27573460039779285,0.4807665175321865 l -9.66393256399969 -5.6536570533291695" fill="#ff770a" stroke="none" /><path d="M 118.12598468904814 110.60418214915192 l 8.35139152972291 4.885785710366111 a30.675569362592842,30.675569362592842 0 0,0 -0.27055724260941605,0.45346950103689987 l -8.266053411415268 -5.028817305289115" fill="#ff6109" stroke="none" /><path d="M 117.94076556474637 110.91462005526583 l 12.478146076507137 7.591327300257645 a35.605902220893014,35.605902220893014 0 0,0 -0.32305635283833956,0.520869704157509 l -12.345625084000835 -7.804993335780428" fill="#ffa60f" stroke="none" /><line stroke="#e1ed5e" stroke-width="0.3" x1="143.8653032363475" x2="146.44561519142675" y1="172.8068346515853" y2="177.08958963109032" /><path d="M 144.38136562736335 173.6633856474863 a86.0,86.0 0 0,1 -40.68145358897372,12.25698825130547" fill="none" id="id90" stroke="none" /><text fill="#e1ed5e" style="font-size:6.75px; font-family:Arial;" text-anchor="middle"><textPath startOffset="21.466115282336833" xlink:href="#id90">June</textPath></text><line stroke="#e1ed5e" stroke-width="0.3" x1="102.19456741930631" x2="102.32365962044197" y1="184.97166512339345" y2="189.96999836594603" /><path d="M 102.22038585953345 185.97133177190398 a86.0,86.0 0 0,1 -42.740103519485714,-10.115201625700543" fill="none" id="id91" stroke="none" /><text fill="#e1ed5e" style="font-size:6.75px; font-family:Arial;" text-anchor="middle"><textPath startOffset="22.20632615414155" xlink:href="#id91">July</textPath></text><line stroke="#e1ed5e" stroke-width="0.3" x1="58.666819895761336" x2="56.23545636021788" y1="174.27360380694188" y2="178.64263932499728" /><path d="M 58.180547188652646 175.14741091055294 a86.0,86.0 0 0,1 -31.652253787137756,-30.449443065178592" fill="none" id="id92" stroke="none" /><text fill="#e1ed5e" style="font-size:6.75px; font-family:Arial;" text-anchor="middle"><textPath startOffset="22.20632615414155" xlink:href="#id92">August</textPath></text><line stroke="#e1ed5e" stroke-width="0.3" x1="26.63291911575756" x2="22.317208475507996" y1="142.92168965132927" y2="145.44649492493687" /><path d="M 25.769776987707644 143.4266507060508 a86.0,86.0 0 0,1 -11.730757126820373,-40.83630448921669" fill="none" id="id93" stroke="none" /><text fill="#e1ed5e" style="font-size:6.75px; font-family:Arial;" text-anchor="middle"><textPath startOffset="21.46611528233685" xlink:href="#id93">September</textPath></text><line stroke="#e1ed5e" stroke-width="0.3" x1="15.007084014347285" x2="10.007500721073583" y1="101.09737516637583" y2="101.16192664675087" /><path d="M 14.007167355692545 101.11028546245083 a86.0,86.0 0 0,1 10.666146001902534,-42.60595125391555" fill="none" id="id94" stroke="none" /><text fill="#e1ed5e" style="font-size:6.75px; font-family:Arial;" text-anchor="middle"><textPath startOffset="22.20632615414155" xlink:href="#id94">October</textPath></text><line stroke="#e1ed5e" stroke-width="0.3" x1="26.266209847984243" x2="21.928928074336255" y1="57.711370442889674" y2="55.22380399835377" /><path d="M 25.398753493254645 57.213857153982495 a86.0,86.0 0 0,1 29.58750427330803,-30.492523968695096" fill="none" id="id95" stroke="none" /><text fill="#e1ed5e" style="font-size:6.75px; font-family:Arial;" text-anchor="middle"><textPath startOffset="21.46611528233685" xlink:href="#id95">November</textPath></text><line stroke="#e1ed5e" stroke-width="0.3" x1="56.762969772571076" x2="54.21961505331055" y1="26.818313649435495" y2="22.513508569990535" /><path d="M 56.25429882871897 25.957352633546506 a86.0,86.0 0 0,1 42.265352541879196,-11.944610805530505" fill="none" id="id96" stroke="none" /><text fill="#e1ed5e" style="font-size:6.75px; font-family:Arial;" text-anchor="middle"><textPath startOffset="22.20632615414155" xlink:href="#id96">December</textPath></text></svg>